<svg width="493" height="335" viewBox="0 0 493 335" fill="none" xmlns="http://www.w3.org/2000/svg">
<path opacity="0.05" d="M156.406 189.031V220.592H9.91504L7.95996 196.153L92.7266 61.6719H124.706L90.0732 119.626L47.8994 189.031H156.406ZM133.364 61.6719V265H93.1455V61.6719H133.364ZM315.047 145.461V180.652C315.047 195.921 313.418 209.094 310.159 220.173C306.901 231.159 302.199 240.189 296.055 247.265C290.003 254.247 282.788 259.414 274.409 262.766C266.03 266.117 256.72 267.793 246.479 267.793C238.287 267.793 230.653 266.769 223.577 264.721C216.502 262.579 210.124 259.274 204.445 254.806C198.859 250.337 194.018 244.704 189.922 237.908C185.919 231.019 182.846 222.826 180.705 213.33C178.564 203.834 177.493 192.941 177.493 180.652V145.461C177.493 130.193 179.122 117.112 182.381 106.22C185.732 95.234 190.434 86.25 196.485 79.2676C202.63 72.2852 209.892 67.1647 218.271 63.9062C226.649 60.5547 235.959 58.8789 246.2 58.8789C254.393 58.8789 261.98 59.9495 268.963 62.0908C276.038 64.139 282.416 67.3509 288.095 71.7266C293.774 76.1022 298.615 81.7347 302.618 88.624C306.621 95.4202 309.694 103.566 311.835 113.062C313.976 122.465 315.047 133.265 315.047 145.461ZM274.688 185.959V140.015C274.688 132.66 274.27 126.236 273.432 120.743C272.687 115.25 271.523 110.595 269.94 106.778C268.358 102.868 266.403 99.7028 264.075 97.2822C261.748 94.8617 259.094 93.0928 256.115 91.9756C253.136 90.8584 249.831 90.2998 246.2 90.2998C241.638 90.2998 237.589 91.1842 234.051 92.9531C230.606 94.722 227.674 97.5615 225.253 101.472C222.832 105.289 220.97 110.409 219.667 116.833C218.457 123.164 217.852 130.891 217.852 140.015V185.959C217.852 193.314 218.224 199.784 218.969 205.37C219.807 210.956 221.017 215.751 222.6 219.754C224.275 223.664 226.23 226.876 228.465 229.39C230.792 231.81 233.446 233.579 236.425 234.696C239.497 235.813 242.849 236.372 246.479 236.372C250.948 236.372 254.905 235.488 258.35 233.719C261.887 231.857 264.867 228.971 267.287 225.061C269.801 221.057 271.663 215.844 272.873 209.42C274.083 202.996 274.688 195.176 274.688 185.959ZM484.859 189.031V220.592H338.368L336.413 196.153L421.18 61.6719H453.159L418.526 119.626L376.353 189.031H484.859ZM461.817 61.6719V265H421.599V61.6719H461.817Z" fill="black"/>
<mask id="mask0_6512_140" style="mask-type:alpha" maskUnits="userSpaceOnUse" x="7" y="58" width="478" height="210">
<path d="M156.406 189.031V220.592H9.91504L7.95996 196.153L92.7266 61.6719H124.706L90.0732 119.626L47.8994 189.031H156.406ZM133.364 61.6719V265H93.1455V61.6719H133.364ZM315.047 145.461V180.652C315.047 195.921 313.418 209.094 310.159 220.173C306.901 231.159 302.199 240.189 296.055 247.265C290.003 254.247 282.788 259.414 274.409 262.766C266.03 266.117 256.72 267.793 246.479 267.793C238.287 267.793 230.653 266.769 223.577 264.721C216.502 262.579 210.124 259.274 204.445 254.806C198.859 250.337 194.018 244.704 189.922 237.908C185.919 231.019 182.846 222.826 180.705 213.33C178.564 203.834 177.493 192.941 177.493 180.652V145.461C177.493 130.193 179.122 117.112 182.381 106.22C185.732 95.234 190.434 86.25 196.485 79.2676C202.63 72.2852 209.892 67.1647 218.271 63.9062C226.649 60.5547 235.959 58.8789 246.2 58.8789C254.393 58.8789 261.98 59.9495 268.963 62.0908C276.038 64.139 282.416 67.3509 288.095 71.7266C293.774 76.1022 298.615 81.7347 302.618 88.624C306.621 95.4202 309.694 103.566 311.835 113.062C313.976 122.465 315.047 133.265 315.047 145.461ZM274.688 185.959V140.015C274.688 132.66 274.27 126.236 273.432 120.743C272.687 115.25 271.523 110.595 269.94 106.778C268.358 102.868 266.403 99.7028 264.075 97.2822C261.748 94.8617 259.094 93.0928 256.115 91.9756C253.136 90.8584 249.831 90.2998 246.2 90.2998C241.638 90.2998 237.589 91.1842 234.051 92.9531C230.606 94.722 227.674 97.5615 225.253 101.472C222.832 105.289 220.97 110.409 219.667 116.833C218.457 123.164 217.852 130.891 217.852 140.015V185.959C217.852 193.314 218.224 199.784 218.969 205.37C219.807 210.956 221.017 215.751 222.6 219.754C224.275 223.664 226.23 226.876 228.465 229.39C230.792 231.81 233.446 233.579 236.425 234.696C239.497 235.813 242.849 236.372 246.479 236.372C250.948 236.372 254.905 235.488 258.35 233.719C261.887 231.857 264.867 228.971 267.287 225.061C269.801 221.057 271.663 215.844 272.873 209.42C274.083 202.996 274.688 195.176 274.688 185.959ZM484.859 189.031V220.592H338.368L336.413 196.153L421.18 61.6719H453.159L418.526 119.626L376.353 189.031H484.859ZM461.817 61.6719V265H421.599V61.6719H461.817Z" fill="black"/>
</mask>
<g mask="url(#mask0_6512_140)">
<g opacity="0.13">
<path d="M121.094 250.018V304.589H121.055L66.3093 277.32V277.27L121.072 250.001L121.094 250.018Z" fill="#444444"/>
<path d="M175.875 277.287L121.094 304.571V250.018L175.875 277.287Z" fill="#474747"/>
<path d="M230.658 249.985V250.018L175.876 277.287V222.716L230.658 249.985Z" fill="#5F5F5F"/>
<path d="M175.856 222.734V277.272L121.11 250.003L175.856 222.734Z" fill="#333333"/>
<path d="M285.439 222.734V277.272L230.693 250.003L285.439 222.734Z" fill="#333333"/>
<path d="M285.439 277.27V277.303L230.677 304.572H230.658V250.018L230.696 250.001L285.439 277.27Z" fill="#7E7E7E"/>
<path d="M395.717 277.27V277.303L340.954 304.572H340.935V250.018L340.974 250.001L395.717 277.27Z" fill="#808080"/>
<path d="M394.974 113.462V113.495L340.193 140.764V86.1924L394.974 113.462Z" fill="#3D3D3D"/>
<path d="M394.974 58.9075V113.462L340.193 86.1931V86.1764L394.974 58.9075Z" fill="#9B9B9B"/>
<path d="M394.974 113.495V168.033L340.193 140.764L394.974 113.495Z" fill="#9E9E9E"/>
<path d="M340.192 140.764V195.335L285.411 168.065V168.049L340.192 140.764Z" fill="black"/>
<path d="M340.192 195.334V195.351L285.411 222.62V168.065L340.192 195.334Z" fill="black"/>
<path d="M285.392 168.069L230.629 195.321V140.797L285.392 168.069Z" fill="#BEBEBE"/>
<path d="M340.192 86.1931V140.764L285.411 113.479V113.462L340.192 86.1931Z" fill="#5A5A5A"/>
<path d="M285.409 113.479V168.067H285.39L230.627 140.798V140.731L285.373 113.479H285.409Z" fill="#5A5A5A"/>
<path d="M285.409 168.065V222.636H285.39L230.627 195.367V195.317L285.39 168.065H285.409Z" fill="#5D5D5D"/>
<path d="M504.719 222.73L449.937 249.999V195.445L504.719 222.73Z" fill="#A2A2A2"/>
<path d="M285.485 222.73L230.703 249.999V195.445L285.485 222.73Z" fill="#A2A2A2"/>
<path d="M449.917 250.016L395.154 277.285V222.747L449.917 250.016Z" fill="black"/>
<path d="M395.147 168.179V222.7L395.089 222.733L340.365 195.481V195.397L395.089 168.165H395.108L395.147 168.179Z" fill="black"/>
<path d="M340.269 250.018L285.583 277.25V222.779L340.269 250.018Z" fill="#585858"/>
<path d="M395.09 222.732L340.365 249.965V195.48L395.09 222.732Z" fill="black"/>
<path d="M449.937 140.874V195.445H449.917L395.155 168.177V168.126L449.917 140.874H449.937Z" fill="#434343"/>
<path d="M504.711 168.145V168.162L449.928 195.431V140.877L504.711 168.145Z" fill="black"/>
<path d="M504.711 222.733L449.928 195.447V195.431L504.71 168.162L504.711 222.733Z" fill="black"/>
<path d="M395.147 222.749V277.287L395.089 277.304L340.365 250.072V249.971L395.089 222.739L395.147 222.749Z" fill="#626262"/>
<path d="M449.929 250.035V304.606H449.891L395.152 277.338V277.288L449.915 250.02L449.929 250.035Z" fill="#454545"/>
<path d="M340.578 250.035V304.606H340.539L285.8 277.338V277.288L340.563 250.02L340.578 250.035Z" fill="#AFAFAF"/>
<path d="M340.578 195.347V249.919H340.539L285.8 222.651V222.601L340.563 195.332L340.578 195.347Z" fill="#9A9A9A"/>
<path d="M504.711 277.303L449.928 250.033V249.999L504.711 222.734V277.303Z" fill="#9D9D9D"/>
<path d="M504.912 4.46314V58.9509L504.835 58.9842L450.131 31.7487V31.6486L504.817 4.41309L504.912 4.46314Z" fill="#696969"/>
<path d="M504.815 113.571L450.129 140.807V86.3379L504.815 113.571Z" fill="black"/>
<path d="M504.912 113.623V168.094L504.816 168.144L450.131 140.908V140.808L504.817 113.571L504.912 113.623Z" fill="black"/>
<path d="M230.512 140.713V86.175L285.258 113.444L230.512 140.713Z" fill="#333333"/>
<path d="M230.512 86.1782V86.1449L285.275 58.876H285.294V113.43L285.256 113.447L230.512 86.1782Z" fill="#BEBEBE"/>
<path d="M120.978 249.951V195.414L175.759 222.682L120.978 249.951Z" fill="#9E9E9E"/>
<path d="M175.759 222.682V168.111L230.541 195.379V195.396L175.759 222.682Z" fill="black"/>
<path d="M175.759 168.111V168.094L230.541 140.825V195.38L175.759 168.111Z" fill="black"/>
<path d="M175.721 113.487V59.0024L175.798 58.969L230.503 86.2012V86.3013L175.817 113.537L175.721 113.487Z" fill="#898989"/>
<path d="M11.3679 140.826L66.1494 113.558V168.113L11.3679 140.826Z" fill="#A2A2A2"/>
<path d="M-43.4067 113.521V58.9663L11.3755 86.2519L-43.4067 113.521Z" fill="#777777"/>
<path d="M-43.4067 58.95V4.39551L11.3755 31.6644V31.6811L-43.4067 58.95Z" fill="#969696"/>
<path d="M66.1694 113.54L120.932 86.271V140.809L66.1694 113.54Z" fill="black"/>
<path d="M120.938 195.377V140.856L120.996 140.823L175.721 168.075V168.158L120.996 195.391H120.977L120.938 195.377Z" fill="black"/>
<path d="M175.817 113.537L230.503 86.3052V140.776L175.817 113.537Z" fill="#585858"/>
<path d="M120.996 140.823L175.721 113.591V168.079L120.996 140.823Z" fill="black"/>
<path d="M66.1501 222.682V168.111H66.1694L120.932 195.379V195.43L66.1694 222.682H66.1501Z" fill="#434343"/>
<path d="M11.3757 195.411V195.394L66.1572 168.125V222.68L11.3757 195.411Z" fill="black"/>
<path d="M175.798 58.9663L230.503 31.7141V86.2018L175.798 58.9663Z" fill="#4A4A4A"/>
<path d="M11.3757 195.394V140.823L66.1572 168.108V168.125L11.3757 195.394Z" fill="black"/>
<path d="M120.938 140.806V86.2686L120.996 86.252L175.721 113.484V113.584L120.996 140.816L120.938 140.806Z" fill="#626262"/>
<path d="M66.1577 113.523V58.9521H66.1962L120.942 86.2211V86.2711L66.18 113.54L66.1577 113.523Z" fill="#454545"/>
<path d="M-43.4067 113.707V113.691L11.3755 86.4219V140.993L-43.4067 113.707Z" fill="#515151"/>
<path d="M11.3757 86.2518V31.6807L66.1572 58.9496V58.9662L11.3757 86.2518Z" fill="#9E9E9E"/>
<path d="M11.3757 140.823V86.252L66.1572 113.521V113.554L11.3757 140.823Z" fill="#9D9D9D"/>
<path d="M11.3757 304.444V249.873L66.1572 277.141V277.175L11.3757 304.444Z" fill="#9D9D9D"/>
<path d="M11.3757 31.6811V31.6644L66.1572 4.39551V58.95L11.3757 31.6811Z" fill="black"/>
<path d="M11.27 249.985L65.956 222.752V277.223L11.27 249.985Z" fill="black"/>
</g>
</g>
</svg>
