<svg xmlns="http://www.w3.org/2000/svg" xmlns:xlink="http://www.w3.org/1999/xlink" width="54.679" height="57.166" viewBox="0 0 54.679 57.166">
  <defs>
    <clipPath id="clip-path">
      <rect id="Rectangle_1483" data-name="Rectangle 1483" width="54.679" height="57.166" fill="none"/>
    </clipPath>
  </defs>
  <g id="Group_2900" data-name="Group 2900" clip-path="url(#clip-path)">
    <path id="Path_24536" data-name="Path 24536" d="M44.58,57.167a2.59,2.59,0,0,1-.589-.068,2.32,2.32,0,0,1-1.467-1.04l-4.365-7.71-4.229,4.1a1.692,1.692,0,0,1-1.842.466,1.634,1.634,0,0,1-.959-1.558V28.538a1,1,0,0,1,1.589-.808L51.147,41.167a2.166,2.166,0,0,1,.921,2.4,2.234,2.234,0,0,1-2.207,1.561H45.293l3.935,6.815A2.61,2.61,0,0,1,48.2,55.4l-2.086,1.314a2.891,2.891,0,0,1-1.531.45M38.391,45.73a1,1,0,0,1,.87.508l4.985,8.805a.344.344,0,0,0,.2.108.811.811,0,0,0,.6-.126L47.13,53.71c.349-.218.472-.583.364-.772l-4.8-8.311a1,1,0,0,1,.866-1.5h6.282c.153,0,.284-.047.3-.108.01-.037,0-.119-.108-.188-.016-.011-.032-.022-.047-.034L33.129,30.5V50.435l4.566-4.423a1,1,0,0,1,.7-.282" fill="#94cc00"/>
    <path id="Path_24537" data-name="Path 24537" d="M27.34,11.578a1,1,0,0,1-1-1V1a1,1,0,0,1,2,0v9.578a1,1,0,0,1-1,1" fill="#001733"/>
    <path id="Path_24538" data-name="Path 24538" d="M15.487,16.487a1,1,0,0,1-.707-.293L8.008,9.422A1,1,0,0,1,9.422,8.008l6.772,6.772a1,1,0,0,1-.707,1.707" fill="#001733"/>
    <path id="Path_24539" data-name="Path 24539" d="M10.578,28.34H1a1,1,0,0,1,0-2h9.578a1,1,0,0,1,0,2" fill="#001733"/>
    <path id="Path_24540" data-name="Path 24540" d="M8.715,46.965a1,1,0,0,1-.707-1.707l6.772-6.772A1,1,0,0,1,16.194,39.9L9.422,46.672a1,1,0,0,1-.707.293" fill="#001733"/>
    <path id="Path_24541" data-name="Path 24541" d="M53.679,28.34H44.1a1,1,0,0,1,0-2h9.578a1,1,0,0,1,0,2" fill="#001733"/>
    <path id="Path_24542" data-name="Path 24542" d="M39.191,16.487a1,1,0,0,1-.707-1.707l6.772-6.772A1,1,0,0,1,46.67,9.422L39.9,16.194a1,1,0,0,1-.707.293" fill="#001733"/>
    <path id="Path_24543" data-name="Path 24543" d="M27.34,55.877h-2.4a1,1,0,0,1-.707-.293l-.9-.9h-.783a1,1,0,0,1,0-2h1.2a1,1,0,0,1,.707.293l.905.9h1.98a1,1,0,0,1,0,2" fill="#001733"/>
    <path id="Path_24544" data-name="Path 24544" d="M20.925,12.854A1,1,0,0,1,20,12.238L18.169,7.813a1,1,0,1,1,1.848-.766l1.832,4.425a1,1,0,0,1-.924,1.382" fill="#001733"/>
    <path id="Path_24545" data-name="Path 24545" d="M11.854,21.926a1,1,0,0,1-.384-.076L7.047,20.017a1,1,0,1,1,.766-1.848L12.236,20a1,1,0,0,1-.382,1.924" fill="#001733"/>
    <path id="Path_24546" data-name="Path 24546" d="M7.43,36.587a1,1,0,0,1-.383-1.924l4.424-1.833a1,1,0,1,1,.766,1.848L7.813,36.511a1,1,0,0,1-.383.076" fill="#001733"/>
    <path id="Path_24547" data-name="Path 24547" d="M42.825,21.926A1,1,0,0,1,42.442,20l4.425-1.833a1,1,0,1,1,.766,1.848L43.208,21.85a1,1,0,0,1-.383.076" fill="#001733"/>
    <path id="Path_24548" data-name="Path 24548" d="M33.754,12.854a1,1,0,0,1-.924-1.382l1.833-4.425a1,1,0,0,1,1.848.766l-1.833,4.425a1,1,0,0,1-.924.616" fill="#001733"/>
    <path id="Path_24549" data-name="Path 24549" d="M27.34,47.5H20.156a1,1,0,0,1-1-1V41.607a6.342,6.342,0,0,0-1.578-4.656l-.081-.08A12.825,12.825,0,0,1,13.17,27.34a14.169,14.169,0,1,1,28.339,0,1,1,0,0,1-2,0,12.169,12.169,0,1,0-24.339,0,10.86,10.86,0,0,0,3.74,8.115l.082.082a8.243,8.243,0,0,1,2.164,6.07V45.5H27.34a1,1,0,0,1,0,2" fill="#001733"/>
    <path id="Path_24550" data-name="Path 24550" d="M27.34,51.088H20.156a1,1,0,0,1,0-2H27.34a1,1,0,0,1,0,2" fill="#001733"/>
  </g>
</svg>
