<svg xmlns="http://www.w3.org/2000/svg" width="261.792" height="246.912" viewBox="0 0 261.792 246.912">
  <g id="Group_2961" data-name="Group 2961" transform="translate(0 0)" opacity="0.1" style="mix-blend-mode: overlay;isolation: isolate">
    <path id="Path_24609" data-name="Path 24609" d="M198.9,41.16H184.18a2.807,2.807,0,0,0-3.1,3.022,3.293,3.293,0,0,0,3.1,3.022H198.9a3.293,3.293,0,0,0,3.1-3.022,2.807,2.807,0,0,0-3.1-3.022" transform="translate(-10.892 115.078)" fill="#fff" fill-rule="evenodd"/>
    <path id="Path_24610" data-name="Path 24610" d="M187.59,33.84h-14.4a3.263,3.263,0,0,0,0,6.51h14.4a3.263,3.263,0,0,0,0-6.51" transform="translate(-42.286 94.033)" fill="#fff" fill-rule="evenodd"/>
    <path id="Path_24611" data-name="Path 24611" d="M209.038,48.6H195.2a2.8,2.8,0,0,0-3.077,3.022,3.28,3.28,0,0,0,3.077,3.022h13.841a3.28,3.28,0,0,0,3.077-3.022,2.8,2.8,0,0,0-3.077-3.022" transform="translate(20.848 136.468)" fill="#fff" fill-rule="evenodd"/>
    <path id="Path_24612" data-name="Path 24612" d="M147.58,51.69H190.2a2.83,2.83,0,0,0,3.1-3.081V27.8c0-2.309-.775-3.081-3.1-3.081H147.58a2.831,2.831,0,0,0-3.1,3.081V48.609a3.325,3.325,0,0,0,3.1,3.081m3.1-20.8H187.1v14.64H150.68Z" transform="translate(-116.115 67.814)" fill="#fff" fill-rule="evenodd"/>
    <path id="Path_24613" data-name="Path 24613" d="M187.59,48.6h-14.4a2.772,2.772,0,0,0-3.03,3.022,3.254,3.254,0,0,0,3.03,3.022h14.4a3.254,3.254,0,0,0,3.03-3.022,2.772,2.772,0,0,0-3.03-3.022" transform="translate(-42.286 136.468)" fill="#fff" fill-rule="evenodd"/>
    <path id="Path_24614" data-name="Path 24614" d="M187.59,41.16h-14.4a2.772,2.772,0,0,0-3.03,3.022,3.254,3.254,0,0,0,3.03,3.022h14.4a3.255,3.255,0,0,0,3.03-3.022,2.772,2.772,0,0,0-3.03-3.022" transform="translate(-42.286 115.078)" fill="#fff" fill-rule="evenodd"/>
    <path id="Path_24615" data-name="Path 24615" d="M209.038,41.16H195.2a2.8,2.8,0,0,0-3.077,3.022A3.28,3.28,0,0,0,195.2,47.2h13.841a3.28,3.28,0,0,0,3.077-3.022,2.8,2.8,0,0,0-3.077-3.022" transform="translate(20.848 115.078)" fill="#fff" fill-rule="evenodd"/>
    <path id="Path_24616" data-name="Path 24616" d="M198.9,48.6H184.18a2.807,2.807,0,0,0-3.1,3.022,3.293,3.293,0,0,0,3.1,3.022H198.9a3.293,3.293,0,0,0,3.1-3.022,2.807,2.807,0,0,0-3.1-3.022" transform="translate(-10.892 136.468)" fill="#fff" fill-rule="evenodd"/>
    <path id="Path_24617" data-name="Path 24617" d="M198.9,33.84H184.18a3.259,3.259,0,0,0,0,6.51H198.9a3.259,3.259,0,0,0,0-6.51" transform="translate(-10.892 94.033)" fill="#fff" fill-rule="evenodd"/>
    <path id="Path_24618" data-name="Path 24618" d="M209.038,33.84H195.2a3.26,3.26,0,0,0,0,6.51h13.841a3.26,3.26,0,0,0,0-6.51" transform="translate(20.848 94.033)" fill="#fff" fill-rule="evenodd"/>
    <path id="Path_24619" data-name="Path 24619" d="M395.867,78.494H242.714V3.917A2.821,2.821,0,0,0,239.633.84H140.241a2.821,2.821,0,0,0-3.081,3.077V244.675a2.819,2.819,0,0,0,3.081,3.077H395.867a2.82,2.82,0,0,0,3.084-3.077V81.575a3.313,3.313,0,0,0-3.084-3.081M236.549,21.765H143.321V6.993h93.228ZM143.325,27.81h93.224V241.6h-29.64V202.9a3.283,3.283,0,0,0-3.057-3.042H175.557A3.283,3.283,0,0,0,172.5,202.9v38.7H143.325ZM200.791,241.6H178.614V205.941h22.176Zm41.923,0V84.651H392.783v15.7H261.139a3.023,3.023,0,1,0,0,6.045H392.783V241.6Z" transform="translate(-137.16 -0.84)" fill="#fff" fill-rule="evenodd"/>
    <path id="Path_24620" data-name="Path 24620" d="M147.58,39.66H190.2a2.839,2.839,0,0,0,3.1-3.1V14.86a2.839,2.839,0,0,0-3.1-3.1H147.58a3.334,3.334,0,0,0-3.1,3.1v21.7a3.334,3.334,0,0,0,3.1,3.1m3.1-21.7H187.1v15.5H150.68Z" transform="translate(-116.115 30.555)" fill="#fff" fill-rule="evenodd"/>
    <path id="Path_24621" data-name="Path 24621" d="M190.2,65.34a2.839,2.839,0,0,0,3.1-3.1V40.54a2.839,2.839,0,0,0-3.1-3.1H147.58a3.334,3.334,0,0,0-3.1,3.1v21.7a3.334,3.334,0,0,0,3.1,3.1ZM150.68,43.64H187.1v15.5H150.68Z" transform="translate(-116.115 104.383)" fill="#fff" fill-rule="evenodd"/>
  </g>
</svg>
