<svg id="Group_2921" data-name="Group 2921" xmlns="http://www.w3.org/2000/svg" xmlns:xlink="http://www.w3.org/1999/xlink" width="72.234" height="67.095" viewBox="0 0 72.234 67.095">
  <defs>
    <clipPath id="clip-path">
      <rect id="Rectangle_1488" data-name="Rectangle 1488" width="72.234" height="67.095" fill="#f6ad32"/>
    </clipPath>
  </defs>
  <rect id="Rectangle_1486" data-name="Rectangle 1486" width="2.855" height="7.709" transform="translate(28.266 57.959)" fill="#f6ad32"/>
  <g id="Group_2909" data-name="Group 2909">
    <g id="Group_2908" data-name="Group 2908" clip-path="url(#clip-path)">
      <path id="Path_24567" data-name="Path 24567" d="M40.754,47.855H17.628a1.428,1.428,0,1,1,0-2.855H40.754a1.428,1.428,0,1,1,0,2.855" transform="translate(6.926 19.24)" fill="#f6ad32"/>
      <rect id="Rectangle_1487" data-name="Rectangle 1487" width="2.855" height="7.709" transform="translate(41.114 57.959)" fill="#f6ad32"/>
      <path id="Path_24568" data-name="Path 24568" d="M68.237,56.307H4a4,4,0,0,1-4-4V11.2a4,4,0,0,1,4-4H34.832a1.428,1.428,0,0,1,0,2.855H4A1.142,1.142,0,0,0,2.855,11.2V52.31A1.143,1.143,0,0,0,4,53.452h64.24a1.143,1.143,0,0,0,1.142-1.142V11.2a1.142,1.142,0,0,0-1.142-1.141H57.959a1.428,1.428,0,1,1,0-2.855H68.237a4,4,0,0,1,4,4V52.31a4,4,0,0,1-4,4" transform="translate(0 3.079)" fill="#f6ad32"/>
      <path id="Path_24569" data-name="Path 24569" d="M70.807,37.055H1.428a1.428,1.428,0,0,1,0-2.855H70.807a1.428,1.428,0,0,1,0,2.855" transform="translate(0 14.622)" fill="#f6ad32"/>
      <path id="Path_24570" data-name="Path 24570" d="M48.736,19.055H41.028a1.428,1.428,0,1,1,0-2.855h7.709a1.428,1.428,0,1,1,0,2.855" transform="translate(16.931 6.926)" fill="#f6ad32"/>
      <path id="Path_24571" data-name="Path 24571" d="M48.736,22.655H41.028a1.428,1.428,0,0,1,0-2.855h7.709a1.428,1.428,0,1,1,0,2.855" transform="translate(16.931 8.466)" fill="#f6ad32"/>
      <path id="Path_24572" data-name="Path 24572" d="M48.736,26.255H41.028a1.428,1.428,0,0,1,0-2.855h7.709a1.428,1.428,0,1,1,0,2.855" transform="translate(16.931 10.005)" fill="#f6ad32"/>
      <path id="Path_24573" data-name="Path 24573" d="M19.936,36.533a1.427,1.427,0,0,1-1.428-1.428V26.256H13.655v8.849a1.428,1.428,0,0,1-2.855,0V24.829A1.427,1.427,0,0,1,12.228,23.4h7.709a1.427,1.427,0,0,1,1.428,1.428V35.106a1.427,1.427,0,0,1-1.428,1.428" transform="translate(4.618 10.005)" fill="#f6ad32"/>
      <path id="Path_24574" data-name="Path 24574" d="M28.936,38.842a1.427,1.427,0,0,1-1.428-1.428V20.855H22.655v16.56a1.428,1.428,0,0,1-2.855,0V19.428A1.428,1.428,0,0,1,21.228,18h7.709a1.428,1.428,0,0,1,1.428,1.428V37.415a1.427,1.427,0,0,1-1.428,1.428" transform="translate(8.466 7.696)" fill="#f6ad32"/>
      <path id="Path_24575" data-name="Path 24575" d="M6.809,21.055a1.428,1.428,0,1,0-1.428-1.428,1.431,1.431,0,0,0,1.428,1.428" transform="translate(2.301 7.781)" fill="#f6ad32"/>
      <path id="Path_24576" data-name="Path 24576" d="M6.809,37.055a1.428,1.428,0,1,0-1.428-1.428,1.431,1.431,0,0,0,1.428,1.428" transform="translate(2.301 14.622)" fill="#f6ad32"/>
      <path id="Path_24577" data-name="Path 24577" d="M6.809,17.055a1.428,1.428,0,1,0-1.428-1.428,1.431,1.431,0,0,0,1.428,1.428" transform="translate(2.301 6.071)" fill="#f6ad32"/>
      <path id="Path_24578" data-name="Path 24578" d="M6.809,25.055a1.428,1.428,0,1,0-1.428-1.428,1.431,1.431,0,0,0,1.428,1.428" transform="translate(2.301 9.492)" fill="#f6ad32"/>
      <path id="Path_24579" data-name="Path 24579" d="M6.809,33.055a1.428,1.428,0,1,0-1.428-1.428,1.431,1.431,0,0,0,1.428,1.428" transform="translate(2.301 12.912)" fill="#f6ad32"/>
      <path id="Path_24580" data-name="Path 24580" d="M6.809,29.055a1.428,1.428,0,1,0-1.428-1.428,1.431,1.431,0,0,0,1.428,1.428" transform="translate(2.301 11.202)" fill="#f6ad32"/>
      <path id="Path_24581" data-name="Path 24581" d="M25.371,17.556a1.425,1.425,0,0,0,1.238.717H30.32V45.111a1.428,1.428,0,1,0,2.855,0V16.845a1.426,1.426,0,0,0-1.428-1.428H29.094L35.6,4.261,42.11,15.418H39.456a1.427,1.427,0,0,0-1.428,1.428V45.111a1.428,1.428,0,0,0,2.855,0V18.273H44.6a1.428,1.428,0,0,0,1.233-2.147L36.835.708a1.427,1.427,0,0,0-2.465,0l-9,15.418a1.43,1.43,0,0,0,0,1.43" transform="translate(10.766)" fill="#f6ad32"/>
    </g>
  </g>
</svg>
