<svg id="Component_5_1" data-name="Component 5 – 1" xmlns="http://www.w3.org/2000/svg" xmlns:xlink="http://www.w3.org/1999/xlink" width="188.578" height="46.425" viewBox="0 0 188.578 46.425">
  <defs>
    <clipPath id="clip-path">
      <rect id="Rectangle_265" data-name="Rectangle 265" width="188.578" height="46.425" fill="none"/>
    </clipPath>
  </defs>
  <g id="Group_517" data-name="Group 517" clip-path="url(#clip-path)">
    <path id="Path_4196" data-name="Path 4196" d="M82.526,30.923a8.453,8.453,0,0,1,1.555-5.348,5.36,5.36,0,0,1,8.225-.126l.119-1.595h2.246V37.886a5.849,5.849,0,0,1-1.654,4.4,6.106,6.106,0,0,1-4.444,1.608,7.405,7.405,0,0,1-3.043-.664,5.245,5.245,0,0,1-2.272-1.821l1.275-1.475A4.808,4.808,0,0,0,88.4,41.886a3.767,3.767,0,0,0,2.8-1.01,3.859,3.859,0,0,0,1-2.844V36.8a5.05,5.05,0,0,1-4.025,1.7,4.911,4.911,0,0,1-4.086-2.033,8.886,8.886,0,0,1-1.561-5.541M85,31.2a6.448,6.448,0,0,0,1,3.82,3.238,3.238,0,0,0,2.79,1.389A3.6,3.6,0,0,0,92.2,34.3V27.735a3.642,3.642,0,0,0-3.388-2.059,3.266,3.266,0,0,0-2.8,1.395A7.02,7.02,0,0,0,85,31.2" transform="translate(-26.21 -7.492)" fill="#003b71"/>
    <path id="Path_4197" data-name="Path 4197" d="M105.775,17.728a1.466,1.466,0,0,1,.365-1.01,1.373,1.373,0,0,1,1.083-.412,1.4,1.4,0,0,1,1.09.412,1.452,1.452,0,0,1,.372,1.01,1.4,1.4,0,0,1-.372,1,1.421,1.421,0,0,1-1.09.4,1.4,1.4,0,0,1-1.083-.4,1.418,1.418,0,0,1-.365-1m2.657,18.19h-2.458V21.541h2.458Z" transform="translate(-33.594 -5.179)" fill="#003b71"/>
    <path id="Path_4198" data-name="Path 4198" d="M119.514,35.02l3.561-11.042h2.511l-5.155,14.377h-1.874l-5.209-14.377h2.511Z" transform="translate(-35.999 -7.616)" fill="#003b71"/>
    <path id="Path_4199" data-name="Path 4199" d="M140.171,38.5a6.281,6.281,0,0,1-4.757-1.92,7.127,7.127,0,0,1-1.834-5.136v-.452a8.63,8.63,0,0,1,.817-3.82,6.375,6.375,0,0,1,2.286-2.631,5.745,5.745,0,0,1,3.182-.951,5.386,5.386,0,0,1,4.359,1.847,8,8,0,0,1,1.555,5.288v1.024h-9.74a5.109,5.109,0,0,0,1.243,3.435A3.9,3.9,0,0,0,140.3,36.49a4.278,4.278,0,0,0,2.206-.532,5.543,5.543,0,0,0,1.581-1.408l1.5,1.17a6.037,6.037,0,0,1-5.421,2.777m-.306-12.889a3.277,3.277,0,0,0-2.5,1.083,5.263,5.263,0,0,0-1.249,3.036h7.2v-.186a4.69,4.69,0,0,0-1.01-2.9,3.088,3.088,0,0,0-2.445-1.03" transform="translate(-42.425 -7.492)" fill="#003b71"/>
    <path id="Path_4200" data-name="Path 4200" d="M168.1,28.478a8.761,8.761,0,0,1-1.462,5.435,4.895,4.895,0,0,1-4.119,1.9,4.249,4.249,0,0,1-3.534-1.741l-.186,1.475h-4.013V15.138h4.478v7.188A4.1,4.1,0,0,1,162.49,20.9a4.9,4.9,0,0,1,4.146,1.926,8.808,8.808,0,0,1,1.462,5.421Zm-4.491-.285a5.851,5.851,0,0,0-.551-2.951,1.859,1.859,0,0,0-1.694-.882,2.143,2.143,0,0,0-2.1,1.155v5.7a2.155,2.155,0,0,0,2.126,1.141,1.9,1.9,0,0,0,2.006-1.539,11.029,11.029,0,0,0,.213-2.627" transform="translate(-49.159 -4.808)" fill="#003b71"/>
    <path id="Path_4201" data-name="Path 4201" d="M184.979,38.232a5.057,5.057,0,0,1-.426-1.289A4.163,4.163,0,0,1,181.1,38.5a5.1,5.1,0,0,1-3.455-1.229,3.911,3.911,0,0,1-1.421-3.089,4.02,4.02,0,0,1,1.727-3.534,8.8,8.8,0,0,1,5.022-1.2h1.382v-.761q0-1.99-1.714-1.989a1.4,1.4,0,0,0-1.595,1.575h-4.478a4.016,4.016,0,0,1,1.774-3.384,7.458,7.458,0,0,1,4.524-1.3,6.537,6.537,0,0,1,4.346,1.342,4.667,4.667,0,0,1,1.634,3.68v6.365a6.523,6.523,0,0,0,.611,3.03v.226Zm-2.8-2.923a2.5,2.5,0,0,0,1.389-.359,2.246,2.246,0,0,0,.79-.81v-2.3h-1.3q-2.339,0-2.339,2.1a1.28,1.28,0,0,0,.412.99,1.49,1.49,0,0,0,1.05.379" transform="translate(-55.968 -7.492)" fill="#003b71"/>
    <path id="Path_4202" data-name="Path 4202" d="M204.167,35.042a1.992,1.992,0,0,0,1.462-.512,1.875,1.875,0,0,0,.5-1.428h4.2a4.971,4.971,0,0,1-1.694,3.88,6.3,6.3,0,0,1-4.365,1.515,6.382,6.382,0,0,1-4.943-1.967,7.751,7.751,0,0,1-1.807-5.448V30.9a8.76,8.76,0,0,1,.8-3.847,5.851,5.851,0,0,1,2.319-2.564,6.914,6.914,0,0,1,3.587-.9,6.221,6.221,0,0,1,4.451,1.555,5.512,5.512,0,0,1,1.648,4.212h-4.2a2.46,2.46,0,0,0-.545-1.714,1.88,1.88,0,0,0-1.461-.6q-1.741,0-2.034,2.219A15.645,15.645,0,0,0,202,31.2a6.151,6.151,0,0,0,.518,3,1.8,1.8,0,0,0,1.648.837" transform="translate(-62.733 -7.492)" fill="#003b71"/>
    <path id="Path_4203" data-name="Path 4203" d="M224.857,30.187l-1.262,1.262v4.092h-4.477V15.118h4.477V25.961l.452-.6,3.375-4.2h5.368l-5.035,5.912,5.368,8.465h-5.129Z" transform="translate(-69.591 -4.802)" fill="#003b71"/>
    <path id="Path_4204" data-name="Path 4204" d="M261.6,29.682h-2.87l-2.7,4.442-3.557-6.42a5.828,5.828,0,0,0,2.717-2.006,5.21,5.21,0,0,0,.977-3.149,5.355,5.355,0,0,0-1.761-4.332,7.583,7.583,0,0,0-5.029-1.488h-6.4V36.076h2.564V28.249h4.544l4.446,8.145-.275.4-4.85,7.268h2.857l3.322-5.381.108-.155,3.022,5.536h2.737V43.9l-4.218-7.612Zm-12.143-3.519h-3.92V18.815h3.907a4.534,4.534,0,0,1,3.089.972,3.511,3.511,0,0,1,1.069,2.756,3.332,3.332,0,0,1-1.123,2.636,4.423,4.423,0,0,1-3.023.985" transform="translate(-77.166 -5.313)" fill="#003b71"/>
    <path id="Path_4205" data-name="Path 4205" d="M269.231,17.36h-.914V20.3h-.777V17.36h-.935v-.63h2.626Zm3.284.478-.822,2.474h-.411l-.822-2.467v2.467h-.736V16.73h.908l.856,2.527.882-2.527h.882v3.581h-.736Z" transform="translate(-84.673 -5.314)" fill="#003b71"/>
    <path id="Path_4206" data-name="Path 4206" d="M8.847,8.993A20.083,20.083,0,0,1,32.058,5.22l-2.319,1.5a26.825,26.825,0,0,1,8.592,1.228A26.789,26.789,0,0,1,34.844,0l-.9,2.87A23.21,23.21,0,0,0,20.348.306,23.068,23.068,0,0,0,.047,21.737,23.043,23.043,0,0,0,4.692,37.161,1.479,1.479,0,1,0,7.046,35.37a20.166,20.166,0,0,1,1.8-26.376" transform="translate(0 0)" fill="#003b71"/>
    <path id="Path_4207" data-name="Path 4207" d="M45.525,14.189A1.479,1.479,0,1,0,43.114,15.9,20.11,20.11,0,0,1,17.7,45.513l2.32-1.5a26.825,26.825,0,0,1-8.592-1.228,26.789,26.789,0,0,1,3.486,7.948l.9-2.869a23.215,23.215,0,0,0,10.909,2.721,23.069,23.069,0,0,0,18.8-36.4" transform="translate(-3.631 -4.309)" fill="#003b71"/>
    <path id="Path_4208" data-name="Path 4208" d="M47.433,22.727c-1.748-2.342-5.706-2.915-7.715-.607A2.936,2.936,0,0,1,42.645,18.5V15.122a9.364,9.364,0,0,0-4.021.764,5.789,5.789,0,0,0-3.536,5.606V35.708h4.178l.164-1.283c1.469,1.925,4.9,1.983,6.814.621,2.082-1.434,2.849-3.993,2.854-6.617a8.709,8.709,0,0,0-1.666-5.7m-5.571,9.7a2.381,2.381,0,0,1-2.144-1.011V25.206a2.444,2.444,0,0,1,2.171-1c2,.059,2.578,1.982,2.594,3.932-.035,2.162-.487,4.17-2.621,4.288" transform="translate(-11.144 -4.802)" fill="#003b71"/>
    <path id="Path_4209" data-name="Path 4209" d="M37.053,49.942h-.865V51.87H35.1V46.6H37.06a2.214,2.214,0,0,1,1.439.416,1.436,1.436,0,0,1,.506,1.176,1.618,1.618,0,0,1-.233.9,1.586,1.586,0,0,1-.707.573L39.2,51.82v.05H38.04Zm-.865-.879h.876a.893.893,0,0,0,.633-.208.743.743,0,0,0,.225-.573.793.793,0,0,0-.212-.585.878.878,0,0,0-.649-.214h-.872Z" transform="translate(-11.149 -14.802)" fill="#003b71"/>
    <path id="Path_4210" data-name="Path 4210" d="M43.268,49.754l.659-1.168h1.117L43.93,50.5l1.161,2H43.97l-.7-1.23-.694,1.23H41.452l1.161-2L41.5,48.586h1.121Z" transform="translate(-13.165 -15.431)" fill="#003b71"/>
    <path id="Path_4211" data-name="Path 4211" d="M13.649,36.552c1.748,2.342,5.706,2.915,7.715.607a2.936,2.936,0,0,1-2.928,3.624v3.374a9.364,9.364,0,0,0,4.021-.764,5.789,5.789,0,0,0,3.536-5.606V23.572H21.815l-.164,1.283c-1.469-1.925-4.9-1.983-6.814-.621-2.082,1.434-2.849,3.993-2.854,6.617a8.709,8.709,0,0,0,1.666,5.7m5.571-9.7a2.381,2.381,0,0,1,2.144,1.011v6.213a2.444,2.444,0,0,1-2.171,1c-2-.059-2.578-1.982-2.594-3.932.035-2.162.487-4.17,2.621-4.288" transform="translate(-3.805 -7.4)" fill="#003b71"/>
  </g>
</svg>
