<svg xmlns="http://www.w3.org/2000/svg" width="290.552" height="290" viewBox="0 0 290.552 290">
  <g id="Group_2960" data-name="Group 2960" opacity="0.1" style="mix-blend-mode: overlay;isolation: isolate">
    <path id="Path_24602" data-name="Path 24602" d="M33.66,47.76H11.289A3.938,3.938,0,0,0,7.56,51.35a3.938,3.938,0,0,0,3.729,3.59H33.66a3.938,3.938,0,0,0,3.729-3.59,3.938,3.938,0,0,0-3.729-3.59" transform="translate(27.24 172.088)" fill="#fff" fill-rule="evenodd"/>
    <path id="Path_24603" data-name="Path 24603" d="M49.08,51.35a3.926,3.926,0,0,0,3.706,3.59H74.1A3.926,3.926,0,0,0,77.8,51.35,3.927,3.927,0,0,0,74.1,47.76H52.786a3.927,3.927,0,0,0-3.706,3.59" transform="translate(176.844 172.088)" fill="#fff" fill-rule="evenodd"/>
    <path id="Path_24604" data-name="Path 24604" d="M33.66,53.88H11.289c-1.864,0-3.729.9-3.729,3.59a3.938,3.938,0,0,0,3.729,3.59H33.66a3.938,3.938,0,0,0,3.729-3.59c0-2.693-1.864-3.59-3.729-3.59" transform="translate(27.24 194.139)" fill="#fff" fill-rule="evenodd"/>
    <path id="Path_24605" data-name="Path 24605" d="M74.1,53.88H52.786c-1.85,0-3.706.9-3.706,3.59a3.926,3.926,0,0,0,3.706,3.59H74.1A3.926,3.926,0,0,0,77.8,57.47c0-2.693-1.855-3.59-3.706-3.59" transform="translate(176.844 194.139)" fill="#fff" fill-rule="evenodd"/>
    <path id="Path_24606" data-name="Path 24606" d="M26.16,40.827A4.045,4.045,0,0,0,29.8,44.693h41.88c2.73,0,3.641-1.933,3.641-3.867s-.911-3.867-3.641-3.867H29.8a4.045,4.045,0,0,0-3.641,3.867" transform="translate(94.259 133.173)" fill="#fff" fill-rule="evenodd"/>
    <path id="Path_24607" data-name="Path 24607" d="M219.06,126.829V94.856c0-30.146-19.25-56.642-49.5-66.691C168.646,16.289,157.649,6.24,144.816,6.24S121.9,16.289,120.069,28.165C90.738,38.214,70.576,64.709,70.576,94.856v31.974H0V267.516H290.552V126.829ZM147.569,105.82h-.916a.9.9,0,0,1-.921-.916H143.9v.916h-.916l-25.663,21.009H77.909V97.383H211.728v29.446h-38.5Zm65.991,63.031H76.993l67.823-54.81ZM144.816,13.55c8.249,0,15.582,6.394,17.418,13.7H127.4c1.832-7.31,9.165-13.7,17.414-13.7M124.654,34.563H165.9c25.93,8.613,43.689,30.224,45.636,55.639H78.1c1.947-25.414,19.761-47.026,46.552-55.639M7.333,134.139H108.156L82.489,155.148a.894.894,0,0,1-.916-.911H7.333ZM91.658,260.211H7.333V161.546H73.324l-9.165,8.221a.9.9,0,0,0-.916.911v.916a.894.894,0,0,1-.916.911.9.9,0,0,1,.916.916v1.827h1.832v.911H91.658Zm28.411,0H98.987V176.166h21.083Zm42.165,0H127.4V176.166h34.832Zm28.411,0H169.562V176.166h21.083Zm92.574,0H197.978V176.161h25.663c1.837,0,2.753-.911,3.669-2.739,0-.916,0-2.743-.916-3.655l-10.086-8.221h66.912Zm0-105.974H208.975a.894.894,0,0,0-.916.911L181.48,134.139H283.219Z" transform="translate(0 22.484)" fill="#fff" fill-rule="evenodd"/>
    <path id="Path_24608" data-name="Path 24608" d="M34.31,22.1a3.912,3.912,0,0,0,3.59-3.683V3.683A3.912,3.912,0,0,0,34.31,0a3.912,3.912,0,0,0-3.59,3.683v14.73A3.912,3.912,0,0,0,34.31,22.1" transform="translate(110.69)" fill="#fff" fill-rule="evenodd"/>
  </g>
</svg>
