<svg id="Group_3478" data-name="Group 3478" xmlns="http://www.w3.org/2000/svg" xmlns:xlink="http://www.w3.org/1999/xlink" width="129.914" height="31.501" viewBox="0 0 129.914 31.501">
  <defs>
    <clipPath id="clip-path">
      <rect id="Rectangle_1688" data-name="Rectangle 1688" width="129.914" height="31.501" fill="none"/>
    </clipPath>
  </defs>
  <g id="Group_3477" data-name="Group 3477" transform="translate(0 0)" clip-path="url(#clip-path)">
    <path id="Path_25847" data-name="Path 25847" d="M31.227,40.127c.629.313,1.258.714,1.258,1.515,0,1.044-.909,1.462-1.8,1.462a5.754,5.754,0,0,1-2.148-.539l-.175,1.584a8.176,8.176,0,0,0,2.148.452c1.991.07,3.72-.853,3.72-3.046,0-2.019-1.5-2.611-2.951-3.342-.542-.261-1.258-.626-1.258-1.34,0-.905.8-1.184,1.589-1.184a4.7,4.7,0,0,1,1.956.452l.245-1.549a6.918,6.918,0,0,0-2.236-.4c-1.816,0-3.283.957-3.283,2.8-.018,1.95,1.555,2.437,2.934,3.133" transform="translate(-15.124 -18.277)" fill="#005087"/>
    <path id="Path_25848" data-name="Path 25848" d="M50.441,37.328l.734,1.776h1.694l-2.428-5.361L48.031,39.1h1.677Z" transform="translate(-25.676 -18.037)" fill="#005087"/>
    <path id="Path_25849" data-name="Path 25849" d="M49.056,48.369l-1.223-.94L45.7,48.544l.891-2.019L45.388,45.41l-2.236,5h1.711Z" transform="translate(-23.068 -24.274)" fill="#005087"/>
    <path id="Path_25850" data-name="Path 25850" d="M10.563,44.563a9.661,9.661,0,0,0,3.161-.47V38.871h-3.6v1.462h1.886v2.594a6.469,6.469,0,0,1-1.45.139,3.7,3.7,0,0,1,.088-7.4,4.622,4.622,0,0,1,2.812.766l.14-1.741a7.818,7.818,0,0,0-3.021-.539,5.07,5.07,0,0,0-5.327,5.187,4.952,4.952,0,0,0,5.309,5.222" transform="translate(-2.809 -18.257)" fill="#005087"/>
    <path id="Path_25851" data-name="Path 25851" d="M57.588,50.406h1.764l-2.253-5-1.187,1.114Z" transform="translate(-29.888 -24.275)" fill="#005087"/>
    <path id="Path_25852" data-name="Path 25852" d="M.375,31.7H31.707V.421H.375Zm7.6-6.649a5.586,5.586,0,0,0,1.449-.139V22.319h-1.9V20.856h3.6v5.222a9.588,9.588,0,0,1-3.161.47,4.974,4.974,0,0,1-5.309-5.239,5.013,5.013,0,0,1,5.327-5.152,7.511,7.511,0,0,1,3.022.539l-.14,1.741a4.506,4.506,0,0,0-2.812-.766,3.534,3.534,0,0,0-3.65,3.708,3.508,3.508,0,0,0,3.58,3.673m8.4-4.891c1.467.731,2.952,1.323,2.952,3.342,0,2.193-1.729,3.116-3.72,3.046a7.519,7.519,0,0,1-2.148-.452l.175-1.584a6.2,6.2,0,0,0,2.148.539c.909-.017,1.8-.435,1.8-1.462,0-.8-.646-1.2-1.257-1.515-1.38-.7-2.952-1.184-2.952-3.116,0-1.845,1.467-2.8,3.283-2.8a6.84,6.84,0,0,1,2.236.4l-.245,1.549a4.651,4.651,0,0,0-1.956-.452c-.786,0-1.589.278-1.589,1.184,0,.679.734,1.044,1.275,1.323m7.353,2.315-.891,2.019,2.131-1.114,1.223.94L22,26.357H20.285l2.253-5.013Zm-1.17-1.184,2.41-5.361,2.41,5.361H25.7l-.734-1.775-.734,1.775ZM27.9,26.357l-1.677-3.882,1.205-1.114,2.253,5.013H27.9Z" transform="translate(-0.2 -0.225)" fill="#fff"/>
    <path id="Path_25853" data-name="Path 25853" d="M72.265,2.391a.349.349,0,0,0,.349-.348.326.326,0,0,0-.192-.278.779.779,0,0,0-.332-.035h-.419V2.949h.192V2.426h.122c.157,0,.21.052.367.331l.1.191H72.7L72.544,2.7a.854.854,0,0,0-.279-.313m-.157-.139h-.244V1.887h.227c.227,0,.315.052.315.174,0,.139-.1.191-.3.191" transform="translate(-38.312 -0.925)" fill="#fff"/>
    <path id="Path_25854" data-name="Path 25854" d="M71.418.533a1.131,1.131,0,1,0,1.135,1.131A1.131,1.131,0,0,0,71.418.533m0,2.089a.949.949,0,1,1,0-1.9.937.937,0,0,1,.943.94.931.931,0,0,1-.943.957" transform="translate(-37.57 -0.285)" fill="#fff"/>
    <path id="Path_25855" data-name="Path 25855" d="M.375,31.7H31.707V.421H.375Zm7.6-6.649a5.586,5.586,0,0,0,1.449-.139V22.319h-1.9V20.856h3.6v5.222a9.588,9.588,0,0,1-3.161.47,4.974,4.974,0,0,1-5.309-5.239,5.013,5.013,0,0,1,5.327-5.152,7.511,7.511,0,0,1,3.022.539l-.14,1.741a4.506,4.506,0,0,0-2.812-.766,3.534,3.534,0,0,0-3.65,3.708,3.508,3.508,0,0,0,3.58,3.673m8.4-4.891c1.467.731,2.952,1.323,2.952,3.342,0,2.193-1.729,3.116-3.72,3.046a7.519,7.519,0,0,1-2.148-.452l.175-1.584a6.2,6.2,0,0,0,2.148.539c.909-.017,1.8-.435,1.8-1.462,0-.8-.646-1.2-1.257-1.515-1.38-.7-2.952-1.184-2.952-3.116,0-1.845,1.467-2.8,3.283-2.8a6.84,6.84,0,0,1,2.236.4l-.245,1.549a4.651,4.651,0,0,0-1.956-.452c-.786,0-1.589.278-1.589,1.184,0,.679.734,1.044,1.275,1.323m7.353,2.315-.891,2.019,2.131-1.114,1.223.94L22,26.357H20.285l2.253-5.013Zm-1.17-1.184,2.41-5.361,2.41,5.361H25.7l-.734-1.775-.734,1.775ZM27.9,26.357l-1.677-3.882,1.205-1.114,2.253,5.013H27.9Z" transform="translate(-0.2 -0.225)" fill="#fff"/>
    <path id="Path_25856" data-name="Path 25856" d="M72.265,2.391a.349.349,0,0,0,.349-.348.326.326,0,0,0-.192-.278.779.779,0,0,0-.332-.035h-.419V2.949h.192V2.426h.122c.157,0,.21.052.367.331l.1.191H72.7L72.544,2.7a.854.854,0,0,0-.279-.313m-.157-.139h-.244V1.887h.227c.227,0,.315.052.315.174,0,.139-.1.191-.3.191" transform="translate(-38.312 -0.925)" fill="#fff"/>
    <path id="Path_25857" data-name="Path 25857" d="M71.418.533a1.131,1.131,0,1,0,1.135,1.131A1.131,1.131,0,0,0,71.418.533m0,2.089a.949.949,0,1,1,0-1.9.937.937,0,0,1,.943.94.931.931,0,0,1-.943.957" transform="translate(-37.57 -0.285)" fill="#fff"/>
    <path id="Path_25858" data-name="Path 25858" d="M80.977,39.359c0-3.081,1.764-5.2,4.541-5.2a3.919,3.919,0,0,1,4.139,3.22H88.312a2.609,2.609,0,0,0-2.742-2.037c-2.043,0-3.249,1.515-3.249,4.038s1.205,4.091,3.249,4.091a2.789,2.789,0,0,0,2.916-2.715H89.8a4.13,4.13,0,0,1-4.262,3.9c-2.829-.035-4.559-2.245-4.559-5.292" transform="translate(-43.287 -18.257)" fill="#fff"/>
    <path id="Path_25859" data-name="Path 25859" d="M100.827,43.912a3.475,3.475,0,0,1,3.545-3.812,3.417,3.417,0,0,1,3.476,3.76,3.568,3.568,0,0,1-3.528,3.882c-2.078,0-3.493-1.549-3.493-3.83m5.729-.052c0-1.654-.8-2.68-2.218-2.68-1.38,0-2.2,1.079-2.2,2.733s.839,2.733,2.2,2.733c1.415,0,2.218-1.131,2.218-2.785" transform="translate(-53.898 -21.436)" fill="#fff"/>
    <path id="Path_25860" data-name="Path 25860" d="M124.068,42.482V47.53h-1.293V42.743c0-1.01-.471-1.532-1.449-1.532a2,2,0,0,0-2.079,2.28V47.53h-1.31V40.254h1.223v1.027a2.771,2.771,0,0,1,2.445-1.219,2.254,2.254,0,0,1,2.463,2.419" transform="translate(-63.045 -21.416)" fill="#fff"/>
    <path id="Path_25861" data-name="Path 25861" d="M135.191,43.358c0,.539.175.7.7.7h.943v1.079h-1.327c-1.135,0-1.624-.488-1.624-1.619V38.8l-1.083.052V37.84l1.083.035V35.612h1.31v2.28l1.677-.052v1.01l-1.677-.052Z" transform="translate(-70.989 -19.037)" fill="#fff"/>
    <path id="Path_25862" data-name="Path 25862" d="M146.732,40.06v1.271a4.16,4.16,0,0,0-.471-.017,2.159,2.159,0,0,0-2.1,2.228V47.51h-1.31V40.234h1.222V41.7a2.537,2.537,0,0,1,2.376-1.671c.1.018.192.018.279.035" transform="translate(-76.365 -21.396)" fill="#fff"/>
    <path id="Path_25863" data-name="Path 25863" d="M158.148,46.533v.957h-.7c-.786,0-1.205-.348-1.258-1.079a3.117,3.117,0,0,1-2.637,1.253c-1.484,0-2.445-.783-2.445-2.106,0-1.2.716-2.037,2.5-2.263l1.869-.243a.5.5,0,0,0,.524-.557v-.313c0-.766-.507-1.131-1.642-1.131-1.048,0-1.572.33-1.659,1.306h-1.292c.122-1.6,1.152-2.367,3.039-2.367,1.816,0,2.864.731,2.864,2.332v3.586c0,.487.157.626.629.626Zm-2.166-1.584v-1.01l-2.183.331c-1.013.156-1.414.609-1.414,1.253,0,.748.559,1.166,1.4,1.166a2.085,2.085,0,0,0,2.2-1.741" transform="translate(-80.777 -21.376)" fill="#fff"/>
    <path id="Path_25864" data-name="Path 25864" d="M166.382,43.982c0-2.454,1.345-3.882,3.458-3.882a2.863,2.863,0,0,1,3.091,2.559h-1.223a1.679,1.679,0,0,0-1.834-1.48c-1.467,0-2.166,1.01-2.166,2.733s.768,2.733,2.148,2.733a1.767,1.767,0,0,0,1.869-1.636h1.223a2.922,2.922,0,0,1-3.161,2.716c-2.061.017-3.406-1.306-3.406-3.743" transform="translate(-88.941 -21.436)" fill="#fff"/>
    <path id="Path_25865" data-name="Path 25865" d="M182.809,43.358c0,.539.175.7.7.7h.943v1.079h-1.327c-1.135,0-1.624-.488-1.624-1.619V38.8l-1.083.052V37.84l1.083.035V35.612h1.31v2.28l1.677-.052v1.01l-1.677-.052Z" transform="translate(-96.443 -19.037)" fill="#fff"/>
    <path id="Path_25866" data-name="Path 25866" d="M204.873,34.565V44.609h-1.31V39.84h-5.327v4.769h-1.31V34.565h1.31V38.69h5.327V34.565Z" transform="translate(-105.269 -18.477)" fill="#fff"/>
    <path id="Path_25867" data-name="Path 25867" d="M216.139,43.912a3.475,3.475,0,0,1,3.545-3.812,3.417,3.417,0,0,1,3.476,3.76,3.568,3.568,0,0,1-3.528,3.882c-2.078,0-3.493-1.549-3.493-3.83m5.729-.052c0-1.654-.8-2.68-2.218-2.68-1.38,0-2.2,1.079-2.2,2.733s.839,2.733,2.2,2.733c1.4,0,2.218-1.131,2.218-2.785" transform="translate(-115.539 -21.436)" fill="#fff"/>
    <rect id="Rectangle_1687" data-name="Rectangle 1687" width="1.31" height="10.044" transform="translate(108.546 16.088)" fill="#fff"/>
    <path id="Path_25868" data-name="Path 25868" d="M244.632,34.565V44.609H243.5V43.46a2.653,2.653,0,0,1-2.341,1.306c-1.973,0-3.178-1.654-3.178-3.9,0-2.193,1.31-3.673,3.161-3.673a2.676,2.676,0,0,1,2.2,1.027V34.565Zm-1.223,6.3c0-1.723-.873-2.593-2.1-2.593-1.258,0-2.043.9-2.043,2.559,0,1.689.751,2.785,2.008,2.785,1.223.017,2.131-1.027,2.131-2.75" transform="translate(-127.214 -18.477)" fill="#fff"/>
    <path id="Path_25869" data-name="Path 25869" d="M261.06,44.245h-5.467c.035,1.636.891,2.437,2.2,2.437a1.979,1.979,0,0,0,2.026-1.445l1.187.139a3.2,3.2,0,0,1-3.248,2.367c-2.183,0-3.458-1.6-3.458-3.829s1.258-3.778,3.441-3.778c2.044,0,3.336,1.375,3.336,3.638v.47Zm-5.467-.923h4.244c-.175-1.375-.925-2.123-2.113-2.123a2.054,2.054,0,0,0-2.131,2.123" transform="translate(-135.939 -21.456)" fill="#fff"/>
    <path id="Path_25870" data-name="Path 25870" d="M274.651,40.06v1.271a4.16,4.16,0,0,0-.471-.017,2.159,2.159,0,0,0-2.1,2.228V47.51h-1.31V40.234H272V41.7a2.537,2.537,0,0,1,2.376-1.671c.1.018.192.018.279.035" transform="translate(-144.745 -21.396)" fill="#fff"/>
  </g>
</svg>
