<svg xmlns="http://www.w3.org/2000/svg" xmlns:xlink="http://www.w3.org/1999/xlink" width="1282" height="698" viewBox="0 0 1282 698">
  <defs>
    <clipPath id="clip-path">
      <rect id="Rectangle_1239" data-name="Rectangle 1239" width="1282" height="698" transform="translate(-1 102)" fill="#fff" stroke="#707070" stroke-width="1"/>
    </clipPath>
  </defs>
  <g id="Mask_Group_111" data-name="Mask Group 111" transform="translate(1 -102)" opacity="0.46" clip-path="url(#clip-path)">
    <g id="Group_2399" data-name="Group 2399" transform="translate(283.148 -18.055)" opacity="0.13">
      <path id="Path_19420" data-name="Path 19420" d="M185.3,327.528v81.76h-.025l-71.121-40.855v-.075l71.121-40.83Z" transform="translate(526.492 285.94)" fill="#999"/>
      <path id="Path_24380" data-name="Path 24380" d="M185.3,327.528v81.76h-.025l-71.121-40.855v-.075l71.121-40.83Z" transform="translate(-114.215 245.147)" fill="#999"/>
      <path id="Path_19421" data-name="Path 19421" d="M156.811,368.385v.025L85.665,409.265V327.53Z" transform="translate(626.114 285.942)" fill="#bebebe"/>
      <path id="Path_24379" data-name="Path 24379" d="M156.811,368.385v.025L85.665,409.265V327.53Z" transform="translate(-14.593 245.149)" fill="#bebebe"/>
      <path id="Path_19426" data-name="Path 19426" d="M128.321,384.755v.025l-71.146,40.88V343.9Z" transform="translate(725.751 310.451)" fill="#898989"/>
      <path id="Path_19487" data-name="Path 19487" d="M213.776,278.408v81.735L142.63,319.288v-.025Z" transform="translate(426.894 212.395)" fill="#414141"/>
      <path id="Path_19490" data-name="Path 19490" d="M270.756,245.683v81.76h-.05l-71.1-40.855v-.075l71.121-40.855Z" transform="translate(227.621 163.36)" fill="#444"/>
      <path id="Path_19491" data-name="Path 19491" d="M213.776,302.908v.025L142.63,343.788v-81.76Z" transform="translate(426.894 187.87)" fill="#4f4f4f"/>
      <path id="Path_19709" data-name="Path 19709" d="M213.776,302.908v.025L142.63,343.788v-81.76Z" transform="translate(285.064 187.87)" fill="#e4e4e4"/>
      <path id="Path_19493" data-name="Path 19493" d="M242.266,286.523,171.12,327.4V245.668Z" transform="translate(327.257 163.375)" fill="#474747"/>
      <path id="Path_19708" data-name="Path 19708" d="M242.266,286.523,171.12,327.4V245.668Z" transform="translate(327.257 245.26)" fill="#474747"/>
      <path id="Path_19494" data-name="Path 19494" d="M213.776,270.143v.05L142.63,311.048v-81.76Z" transform="translate(426.894 138.85)" fill="#5f5f5f"/>
      <path id="Path_19495" data-name="Path 19495" d="M242.226,229.3v81.71l-71.1-40.855Z" transform="translate(327.272 138.865)" fill="#333"/>
      <path id="Path_19496" data-name="Path 19496" d="M185.236,229.3v81.71l-71.1-40.855Z" transform="translate(526.58 138.865)" fill="#333"/>
      <path id="Path_19497" data-name="Path 19497" d="M185.286,286.513v.05l-71.121,40.855h-.025V245.683l.05-.025Z" transform="translate(526.53 163.36)" fill="#7e7e7e"/>
      <path id="Path_24341" data-name="Path 24341" d="M185.286,286.513v.05l-71.121,40.855h-.025V245.683l.05-.025Z" transform="translate(669.75 163.36)" fill="gray"/>
      <path id="Path_19501" data-name="Path 19501" d="M185.286,352v.05l-71.1,40.855-.05-.025v-81.71l.05-.025Z" transform="translate(526.53 261.415)" fill="#fff"/>
      <path id="Path_19504" data-name="Path 19504" d="M242.266,294.778v81.76l-71.146-40.88v-.025Z" transform="translate(327.257 236.905)" fill="#f2f2f2"/>
      <path id="Path_19509" data-name="Path 19509" d="M128.321,188.236v.05L57.175,229.14v-81.76Z" transform="translate(725.751 16.215)" fill="#3d3d3d"/>
      <path id="Path_23961" data-name="Path 23961" d="M128.321,188.236v.05L57.175,229.14v-81.76Z" transform="translate(155.93 16.138)" fill="#3d3d3d"/>
      <path id="Path_24369" data-name="Path 24369" d="M57.175,188.236v.05l71.146,40.855v-81.76Z" transform="translate(155.93 384.087)" fill="#3d3d3d"/>
      <path id="Path_24374" data-name="Path 24374" d="M128.321,188.236v.05L57.175,229.14v-81.76Z" transform="translate(227.741 384.233)" fill="#3d3d3d"/>
      <path id="Path_19716" data-name="Path 19716" d="M128.321,188.236v.05L57.175,229.14v-81.76Z" transform="translate(725.751 588.827)" fill="#3d3d3d"/>
      <path id="Path_19510" data-name="Path 19510" d="M128.321,131.011v81.735L57.175,171.891v-.025Z" transform="translate(725.751 -8.295)" fill="#9b9b9b"/>
      <path id="Path_19717" data-name="Path 19717" d="M128.321,131.011v81.735L57.175,171.891v-.025Z" transform="translate(725.751 564.317)" fill="#9b9b9b"/>
      <path id="Path_24382" data-name="Path 24382" d="M128.321,131.011v81.735L57.175,171.891v-.025Z" transform="translate(-129.06 400.457)" fill="#9b9b9b"/>
      <path id="Path_19724" data-name="Path 19724" d="M128.321,131.011v81.735L57.175,171.891v-.025Z" transform="translate(654.679 523.25)" fill="#9b9b9b"/>
      <path id="Path_19713" data-name="Path 19713" d="M99.831,171.856v.075l-71.1,40.855-.05-.025V131.026L28.71,131Z" transform="translate(825.387 564.302)" fill="#b9b9b9"/>
      <path id="Path_24381" data-name="Path 24381" d="M99.831,171.856v.075l-71.1,40.855-.05-.025V131.026L28.71,131Z" transform="translate(-29.424 400.442)" fill="#b9b9b9"/>
      <path id="Path_19512" data-name="Path 19512" d="M128.321,163.761v81.71L57.175,204.616Z" transform="translate(725.751 40.74)" fill="#9e9e9e"/>
      <path id="Path_19513" data-name="Path 19513" d="M156.811,180.121v81.76L85.665,221.025V221Z" transform="translate(626.114 65.234)" fill="#b9b9b9"/>
      <path id="Path_19514" data-name="Path 19514" d="M156.811,237.355v.025L85.665,278.235V196.5Z" transform="translate(626.114 89.759)" fill="#b9b9b9"/>
      <path id="Path_19515" data-name="Path 19515" d="M185.286,221l-71.121,40.83V180.141Z" transform="translate(526.468 65.265)" fill="#bebebe"/>
      <path id="Path_19516" data-name="Path 19516" d="M156.811,147.381v81.76l-71.146-40.88v-.025Z" transform="translate(626.114 16.215)" fill="#5a5a5a"/>
      <path id="Path_19517" data-name="Path 19517" d="M185.3,163.751v81.785h-.025l-71.121-40.855v-.1l71.1-40.83Z" transform="translate(526.477 40.725)" fill="#5a5a5a"/>
      <path id="Path_19518" data-name="Path 19518" d="M185.3,196.5v81.76h-.025l-71.121-40.855v-.075l71.121-40.83Z" transform="translate(526.477 89.759)" fill="#5d5d5d"/>
      <path id="Path_19524" data-name="Path 19524" d="M71.247,253.807.1,294.662V212.927Z" transform="translate(925.353 114.353)" fill="#a2a2a2"/>
      <path id="Path_24342" data-name="Path 24342" d="M71.247,253.807.1,294.662V212.927Z" transform="translate(640.629 114.353)" fill="#a2a2a2"/>
      <path id="Path_19525" data-name="Path 19525" d="M99.722,270.162,28.6,311.017v-81.71Z" transform="translate(825.705 138.878)" fill="#9c9c9c"/>
      <path id="Path_19526" data-name="Path 19526" d="M57.135,360.3l-.05-.025Z" transform="translate(797.161 334.974)" fill="#434343"/>
      <path id="Path_19527" data-name="Path 19527" d="M114.215,327.6l-.15-.075Z" transform="translate(597.789 285.939)" fill="#3e3e3e"/>
      <path id="Path_19528" data-name="Path 19528" d="M85.7,343.973l-.125-.075Z" transform="translate(697.45 310.449)" fill="#3e3e3e"/>
      <path id="Path_19529" data-name="Path 19529" d="M114.065,229.345l.15-.077Z" transform="translate(597.789 138.82)" fill="#3e3e3e"/>
      <path id="Path_19530" data-name="Path 19530" d="M128.231,196.583v81.685l-.075.05-71.072-40.83v-.125l71.072-40.8h.025Z" transform="translate(726.065 89.846)" fill="#3e3e3e"/>
      <path id="Path_19531" data-name="Path 19531" d="M85.575,212.975l.1-.077Z" transform="translate(697.475 114.31)" fill="#3e3e3e"/>
      <path id="Path_19532" data-name="Path 19532" d="M156.647,270.133l-71.022,40.8v-81.61Z" transform="translate(626.378 138.91)" fill="#585858"/>
      <path id="Path_19533" data-name="Path 19533" d="M128.187,253.778l-71.072,40.8V212.948Z" transform="translate(726.035 114.385)" fill="#414141"/>
      <path id="Path_19534" data-name="Path 19534" d="M99.737,180.187v81.76h-.025L28.591,221.092v-.075l71.121-40.83Z" transform="translate(825.716 65.334)" fill="#434343"/>
      <path id="Path_19535" data-name="Path 19535" d="M71.252,221.043v.025L.105,261.923V180.189Z" transform="translate(925.337 65.336)" fill="#4d4d4d"/>
      <path id="Path_19536" data-name="Path 19536" d="M156.662,302.873,85.615,343.7V262.068Z" transform="translate(626.388 187.93)" fill="#4a4a4a"/>
      <path id="Path_19537" data-name="Path 19537" d="M156.647,335.623,85.625,376.428v-81.61Z" transform="translate(626.378 236.965)" fill="#414141"/>
      <path id="Path_19538" data-name="Path 19538" d="M71.252,278.318.105,237.438v-.025l71.146-40.855Z" transform="translate(925.337 89.846)" fill="#767676"/>
      <path id="Path_19539" data-name="Path 19539" d="M128.231,229.323v81.71l-.075.025-71.072-40.8v-.15l71.072-40.8Z" transform="translate(726.065 138.865)" fill="#626262"/>
      <path id="Path_19540" data-name="Path 19540" d="M99.741,245.693v81.76h-.05L28.6,286.6v-.075l71.122-40.855Z" transform="translate(825.702 163.375)" fill="#454545"/>
      <path id="Path_24340" data-name="Path 24340" d="M99.741,245.693v81.76h-.05L28.6,286.6v-.075l71.122-40.855Z" transform="translate(683.685 163.375)" fill="#afafaf"/>
      <path id="Path_24343" data-name="Path 24343" d="M99.741,245.693v81.76h-.05L28.6,286.6v-.075l71.122-40.855Z" transform="translate(683.685 81.441)" fill="#9a9a9a"/>
      <path id="Path_19541" data-name="Path 19541" d="M71.252,343.8.105,302.943v-.025l71.146-40.88Z" transform="translate(925.337 187.885)" fill="#9e9e9e"/>
      <path id="Path_19542" data-name="Path 19542" d="M156.721,311.233v81.61l-.125.075-71.022-40.8v-.15L156.6,311.158Z" transform="translate(626.429 261.43)" fill="#a5a5a5"/>
      <path id="Path_24376" data-name="Path 24376" d="M156.721,311.233v81.61l-.125.075-71.022-40.8v-.15L156.6,311.158Z" transform="translate(-14.278 220.637)" fill="#a5a5a5"/>
      <path id="Path_19543" data-name="Path 19543" d="M99.712,302.913l-71.1,40.83V262.058Z" transform="translate(825.681 187.915)" fill="#5a5a5a"/>
      <path id="Path_19544" data-name="Path 19544" d="M71.252,311.056.105,270.2v-.052L71.252,229.3Z" transform="translate(925.337 138.866)" fill="#9d9d9d"/>
      <path id="Path_19545" data-name="Path 19545" d="M71.252,319.273v.025L.105,360.153V278.418Z" transform="translate(925.337 212.41)" fill="#9c9c9c"/>
      <path id="Path_19546" data-name="Path 19546" d="M99.712,335.653l-71.1,40.83V294.8Z" transform="translate(825.681 236.935)" fill="#9c9c9c"/>
      <path id="Path_19547" data-name="Path 19547" d="M71.252,409.288.105,368.433v-.025l71.146-40.88Z" transform="translate(925.337 285.94)" fill="#767676"/>
      <path id="Path_19548" data-name="Path 19548" d="M71.252,384.763v.025L.105,425.643V343.908Z" transform="translate(925.337 310.465)" fill="#4d4d4d"/>
      <path id="Path_24384" data-name="Path 24384" d="M71.252,384.763v.025L.105,425.643V343.908Z" transform="translate(70.526 146.605)" fill="#4d4d4d"/>
      <path id="Path_19549" data-name="Path 19549" d="M99.726,368.4l-71.121,40.83V327.548Z" transform="translate(825.691 285.969)" fill="#474747"/>
      <path id="Path_24383" data-name="Path 24383" d="M99.726,368.4l-71.121,40.83V327.548Z" transform="translate(185.003 162.965)" fill="#9e9e9e"/>
      <path id="Path_19550" data-name="Path 19550" d="M71.252,376.548.105,335.668v-.025l71.146-40.855Z" transform="translate(925.337 236.92)" fill="#767676"/>
      <path id="Path_19551" data-name="Path 19551" d="M99.741,311.158v81.785h-.025L28.6,352.088v-.1l71.1-40.83Z" transform="translate(825.702 261.43)" fill="#4d4d4d"/>
      <path id="Path_19552" data-name="Path 19552" d="M128.187,351.993,57.115,392.8v-81.61Z" transform="translate(726.035 261.474)" fill="#414141"/>
      <path id="Path_24378" data-name="Path 24378" d="M128.187,351.993,57.115,392.8v-81.61Z" transform="translate(85.328 220.682)" fill="#c1c1c1"/>
      <path id="Path_19553" data-name="Path 19553" d="M128.231,327.578v81.685l-.05.05h-.025l-71.072-40.83v-.15l71.072-40.8Z" transform="translate(726.065 285.94)" fill="#3e3e3e"/>
      <path id="Path_24377" data-name="Path 24377" d="M128.231,327.578v81.685l-.05.05h-.025l-71.072-40.83v-.15l71.072-40.8Z" transform="translate(85.358 245.147)" fill="#3e3e3e"/>
      <path id="Path_19554" data-name="Path 19554" d="M71.146,98.392v81.635l-.1.05L0,139.272v-.15L71.022,98.317Z" transform="translate(925.705 -57.246)" fill="#696969"/>
      <path id="Path_19555" data-name="Path 19555" d="M71.072,188.27.05,229.075V147.468Z" transform="translate(925.653 16.345)" fill="#767676"/>
      <path id="Path_19711" data-name="Path 19711" d="M71.072,188.27.05,229.075V147.468Z" transform="translate(925.653 588.957)" fill="#767676"/>
      <path id="Path_19556" data-name="Path 19556" d="M71.146,163.884v81.61l-.125.075L0,204.763v-.15l71.022-40.807Z" transform="translate(925.705 40.808)" fill="#4d4d4d"/>
      <path id="Path_19582" data-name="Path 19582" d="M85.726,179.985V98.25l71.146,40.855v.025Z" transform="translate(625.902 -57.345)" fill="#414141"/>
      <path id="Path_19584" data-name="Path 19584" d="M114.236,229.08V147.37l71.1,40.855Z" transform="translate(526.245 16.199)" fill="#333"/>
      <path id="Path_19585" data-name="Path 19585" d="M114.216,171.9v-.05l71.122-40.855h.025v81.735l-.05.025Z" transform="translate(526.265 -8.326)" fill="#bebebe"/>
      <path id="Path_19586" data-name="Path 19586" d="M28.746,180V98.24h.05l71.1,40.855v.075L28.8,180Z" transform="translate(825.175 -57.36)" fill="#ccc"/>
      <path id="Path_19587" data-name="Path 19587" d="M28.746,122.72l71.1-40.83v81.685Z" transform="translate(825.224 -81.84)" fill="#585858"/>
      <path id="Path_19588" data-name="Path 19588" d="M114.236,163.59V81.88l71.1,40.855Z" transform="translate(526.245 -81.855)" fill="#8f8f8f"/>
      <path id="Path_19592" data-name="Path 19592" d="M57.236,163.63V81.87l71.146,40.88v.025Z" transform="translate(725.538 -81.87)" fill="#adadad"/>
      <path id="Path_19597" data-name="Path 19597" d="M171.181,294.618v-81.71l71.146,40.855Z" transform="translate(327.045 114.325)" fill="#9e9e9e"/>
      <path id="Path_19598" data-name="Path 19598" d="M142.691,278.287v-81.76l71.146,40.855v.025Z" transform="translate(426.681 89.8)" fill="#b9b9b9"/>
      <path id="Path_19599" data-name="Path 19599" d="M142.691,221.038v-.025l71.146-40.855v81.735Z" transform="translate(426.681 65.29)" fill="#9c9c9c"/>
      <path id="Path_19620" data-name="Path 19620" d="M313.741,180.006V98.371l.125-.075L384.887,139.1v.15l-71.047,40.83Z" transform="translate(-171.522 -57.276)" fill="#dfdfdf"/>
      <path id="Path_19621" data-name="Path 19621" d="M313.741,122.761l71.022-40.8v81.61Z" transform="translate(-171.397 0.348)" fill="#d4d4d4"/>
      <path id="Path_19628" data-name="Path 19628" d="M342.231,139.131l71.072-40.8v81.635Z" transform="translate(-271.084 24.858)" fill="#b5b5b5"/>
      <path id="Path_19641" data-name="Path 19641" d="M342.231,163.661V81.976l.075-.05,71.072,40.8v.15l-71.072,40.8Z" transform="translate(-271.159 -81.786)" fill="#383838"/>
      <path id="Path_19642" data-name="Path 19642" d="M142.711,212.731V131.1l.1-.05,71.047,40.8V172l-71.022,40.805Z" transform="translate(426.611 -8.242)" fill="#898989"/>
      <path id="Path_19643" data-name="Path 19643" d="M228.185,204.653,299.331,163.8v81.735Z" transform="translate(127.688 40.795)" fill="#a2a2a2"/>
      <path id="Path_24366" data-name="Path 24366" d="M228.185,204.653,299.331,163.8v81.735Z" transform="translate(127.688 285.936)" fill="#a2a2a2"/>
      <path id="Path_24371" data-name="Path 24371" d="M228.185,204.653,299.331,163.8v81.735Z" transform="translate(199.499 408.89)" fill="#a2a2a2"/>
      <path id="Path_19644" data-name="Path 19644" d="M256.671,212.781V131.046l71.147,40.88Z" transform="translate(28.065 -8.242)" fill="#777"/>
      <path id="Path_24373" data-name="Path 24373" d="M256.671,212.781V131.046l71.147,40.88Z" transform="translate(99.877 359.853)" fill="#777"/>
      <path id="Path_24375" data-name="Path 24375" d="M285.171,196.4v-81.71l71.122,40.855Z" transform="translate(0.231 335.358)" fill="#3d3d3d"/>
      <path id="Path_19646" data-name="Path 19646" d="M256.671,122.831v-.05l71.147-40.855v81.76Z" transform="translate(28.065 -81.786)" fill="#515151"/>
      <path id="Path_19647" data-name="Path 19647" d="M256.671,180.041V98.306l71.147,40.855v.025Z" transform="translate(28.065 -57.261)" fill="#969696"/>
      <path id="Path_19648" data-name="Path 19648" d="M199.695,188.283l71.121-40.855v81.71Z" transform="translate(227.35 16.285)" fill="#9c9c9c"/>
      <path id="Path_19650" data-name="Path 19650" d="M142.8,81.971l-.147-.075Z" transform="translate(497.819 -81.832)" fill="#3e3e3e"/>
      <path id="Path_19652" data-name="Path 19652" d="M142.651,180.233l.147-.077Z" transform="translate(497.819 65.287)" fill="#3e3e3e"/>
      <path id="Path_19653" data-name="Path 19653" d="M171.2,261.891V180.206l.075-.05,71.072,40.83v.125l-71.072,40.8h-.025Z" transform="translate(326.975 65.288)" fill="#3e3e3e"/>
      <path id="Path_19654" data-name="Path 19654" d="M171.161,196.6l.1-.077Z" transform="translate(398.16 89.797)" fill="#3e3e3e"/>
      <path id="Path_19655" data-name="Path 19655" d="M142.711,188.251l71.022-40.8v81.61Z" transform="translate(426.736 16.313)" fill="#585858"/>
      <path id="Path_19656" data-name="Path 19656" d="M171.2,204.621l71.072-40.8v81.635Z" transform="translate(327.05 40.823)" fill="#414141"/>
      <path id="Path_19657" data-name="Path 19657" d="M199.695,278.287v-81.76h.025l71.121,40.855v.075l-71.121,40.83Z" transform="translate(227.325 89.8)" fill="#434343"/>
      <path id="Path_19658" data-name="Path 19658" d="M228.181,237.416v-.025l71.146-40.855v81.735Z" transform="translate(127.702 89.813)" fill="#4d4d4d"/>
      <path id="Path_19659" data-name="Path 19659" d="M142.711,155.526l71.047-40.83v81.635Z" transform="translate(426.711 -32.722)" fill="#4a4a4a"/>
      <path id="Path_19660" data-name="Path 19660" d="M142.711,122.761l71.022-40.8v81.61Z" transform="translate(426.736 -81.741)" fill="#414141"/>
      <path id="Path_19661" data-name="Path 19661" d="M228.181,261.916v-81.76l71.146,40.88v.025Z" transform="translate(127.702 65.288)" fill="#767676"/>
      <path id="Path_19662" data-name="Path 19662" d="M171.2,229.151v-81.71l.075-.025,71.072,40.8v.15l-71.072,40.8Z" transform="translate(326.975 16.268)" fill="#626262"/>
      <path id="Path_19663" data-name="Path 19663" d="M199.691,212.8v-81.76h.05l71.1,40.855v.075l-71.121,40.855Z" transform="translate(227.339 -8.257)" fill="#454545"/>
      <path id="Path_19725" data-name="Path 19725" d="M256.671,155.556v-.025l71.147-40.855v81.76Z" transform="translate(28.065 49.263)" fill="#515151"/>
      <path id="Path_19665" data-name="Path 19665" d="M228.181,196.436v-81.76l71.146,40.855v.025Z" transform="translate(127.702 -32.752)" fill="#9e9e9e"/>
      <path id="Path_19668" data-name="Path 19668" d="M228.181,229.176v-81.76l71.146,40.855v.05Z" transform="translate(127.702 16.268)" fill="#9d9d9d"/>
      <path id="Path_24367" data-name="Path 24367" d="M228.181,229.176v-81.76l71.146,40.855v.05Z" transform="translate(127.702 261.409)" fill="#9d9d9d"/>
      <path id="Path_24372" data-name="Path 24372" d="M228.181,229.176v-81.76l71.146,40.855v.05Z" transform="translate(199.513 384.363)" fill="#9d9d9d"/>
      <path id="Path_19672" data-name="Path 19672" d="M228.181,139.186v-.025l71.146-40.855v81.735Z" transform="translate(127.702 -57.261)" fill="#9c9c9c"/>
      <path id="Path_19673" data-name="Path 19673" d="M199.691,122.776l71.1-40.83v81.685Z" transform="translate(227.388 -81.756)" fill="#9c9c9c"/>
      <path id="Path_19679" data-name="Path 19679" d="M228.181,163.686V81.926l71.146,40.88v.025Z" transform="translate(127.702 -81.786)" fill="#767676"/>
      <path id="Path_19685" data-name="Path 19685" d="M228.286,270.113l71.022-40.8v81.61Z" transform="translate(127.46 138.88)" fill="#767676"/>
    </g>
  </g>
</svg>
