<svg xmlns="http://www.w3.org/2000/svg" width="151.896" height="86.27" viewBox="0 0 151.896 86.27">
  <g id="Group_3729" data-name="Group 3729" transform="translate(-3321 -2067)">
    <g id="Group_3732" data-name="Group 3732" transform="translate(3321 2067)">
      <g id="Group_3729-2" data-name="Group 3729" transform="translate(5.898 0)">
        <path id="Path_26505" data-name="Path 26505" d="M81.25,26.117S78.865,41.112,79.9,41.726C101.865,32.174,127.648,22.8,127.648,22.8L81.9,25.963" transform="translate(-68.233 -17.847)" fill="#145f82"/>
        <path id="Path_26506" data-name="Path 26506" d="M89.175,70.61,80.32,79.12l10.721-.3Z" transform="translate(-68.767 -55.271)" fill="#0c4c68"/>
        <path id="Path_26507" data-name="Path 26507" d="M121.06,33.21S124.6,54.9,126.259,56.7c3.278-3.406,33.812-33.893,33.812-33.893Z" transform="translate(-100.656 -17.855)" fill="#0072b6"/>
        <path id="Path_26508" data-name="Path 26508" d="M86.557,4.957S29.919-1.081,27.14.173c2.2,1.6,13.017,8.1,13.017,8.1l46.4-3.317Z" transform="translate(-27.14 -0.002)" fill="#0072b6"/>
      </g>
      <path id="Path_26509" data-name="Path 26509" d="M12.432,174.568c-.571-.508-1.132-1.038-1.666-1.577l.958-.954c.517.519,1.058,1.032,1.608,1.521Zm-3.237-3.252c-.5-.574-1-1.167-1.464-1.768l1.067-.83c.45.58.925,1.154,1.41,1.705l-1.015.893ZM6.379,167.69c-.43-.63-.845-1.282-1.232-1.938l1.162-.689c.374.632.773,1.26,1.186,1.866Zm-2.342-3.952c-.345-.678-.676-1.377-.98-2.079l1.24-.539c.293.676.61,1.349.945,2l-1.2.615Zm-1.829-4.215c-.259-.715-.5-1.449-.713-2.183l1.3-.38c.206.708.439,1.414.686,2.105l-1.271.461Zm-1.29-4.408c-.169-.743-.317-1.5-.439-2.255l1.334-.217c.119.726.261,1.458.424,2.172Zm-.741-4.532c-.076-.756-.133-1.527-.163-2.29l1.351-.056c.03.736.083,1.479.156,2.209l-1.345.137Zm1.164-4.562L-.01,146c.015-.763.054-1.534.115-2.294l1.347.109C1.393,144.542,1.356,145.287,1.341,146.022Zm.354-4.412-1.338-.191c.109-.758.239-1.519.393-2.264l1.325.272c-.148.717-.276,1.451-.378,2.181Zm.893-4.334-1.3-.354c.2-.741.428-1.479.676-2.2l1.28.439c-.237.691-.456,1.4-.65,2.116Zm1.436-4.182-1.247-.524c.3-.708.621-1.412.962-2.092l1.208.608C4.62,131.738,4.309,132.413,4.024,133.093ZM6.01,129.15l-1.16-.693c.4-.663.819-1.314,1.256-1.936l1.106.778c-.417.593-.821,1.214-1.2,1.849Zm2.537-3.6-1.041-.865c.5-.6,1.017-1.173,1.549-1.714l.965.947C9.514,124.436,9.017,124.986,8.547,125.553Zm3.081-3.128-.878-1.03c.245-.209.5-.415.749-.615l.988-.83.869,1.036-1,.843C12.1,122.031,11.86,122.225,11.628,122.424Z" transform="translate(0.01 -93.892)" fill="#fff"/>
      <g id="Group_3730" data-name="Group 3730" transform="translate(22.568 69.084)">
        <path id="Path_26510" data-name="Path 26510" d="M108.925,354.933a4.777,4.777,0,0,1-3.758-1.449,6.251,6.251,0,0,1-1.3-4.291,7.273,7.273,0,0,1,.68-3.3,4.562,4.562,0,0,1,1.864-2.005,5.454,5.454,0,0,1,2.7-.656,4.847,4.847,0,0,1,3.834,1.473,6.19,6.19,0,0,1,1.3,4.232,7.575,7.575,0,0,1-.652,3.313,4.449,4.449,0,0,1-1.847,2.018,5.71,5.71,0,0,1-2.829.669Zm-2.818-5.989a7.411,7.411,0,0,0,.776,3.745A2.447,2.447,0,0,0,109.1,354a2.317,2.317,0,0,0,1.349-.385,2.886,2.886,0,0,0,.906-1.036,5.121,5.121,0,0,0,.5-1.51,10.174,10.174,0,0,0,.154-1.792,9.212,9.212,0,0,0-.385-2.887,3.576,3.576,0,0,0-1.047-1.686,2.337,2.337,0,0,0-1.514-.539,2.435,2.435,0,0,0-2.2,1.243,6.776,6.776,0,0,0-.763,3.539Z" transform="translate(-103.87 -337.749)" fill="#0072b6"/>
        <path id="Path_26511" data-name="Path 26511" d="M167.976,324.876h-2.829v7.16a7.02,7.02,0,0,0,.076,1.195,1.562,1.562,0,0,0,.226.61,1.065,1.065,0,0,0,.391.332,3.538,3.538,0,0,0,.776.243V335h-4.84v-.58a3.42,3.42,0,0,0,.745-.272.972.972,0,0,0,.35-.332,1.6,1.6,0,0,0,.182-.58,8.664,8.664,0,0,0,.059-1.195v-7.16H161.68v-.6c.3-.048.5-.085.6-.113a1.216,1.216,0,0,0,.285-.124.746.746,0,0,0,.237-.237,1.565,1.565,0,0,0,.178-.456,5.328,5.328,0,0,0,.124-.847,6.491,6.491,0,0,1,.467-2.094,3.718,3.718,0,0,1,1.054-1.373,4.2,4.2,0,0,1,1.479-.8,6.615,6.615,0,0,1,1.853-.23,8.228,8.228,0,0,1,1.586.13v2.142h-1.171a2.417,2.417,0,0,0-.526-.988,1.172,1.172,0,0,0-.847-.289,1.751,1.751,0,0,0-.656.106,1.49,1.49,0,0,0-.491.332,1.877,1.877,0,0,0-.385.6,3.8,3.8,0,0,0-.237.941,11.085,11.085,0,0,0-.076,1.462v1.243h2.829v1.195Z" transform="translate(-149.121 -318)" fill="#0072b6"/>
        <path id="Path_26512" data-name="Path 26512" d="M217.74,334.2a2.456,2.456,0,0,0,.958-.332,1.7,1.7,0,0,0,.574-.61,3.367,3.367,0,0,0,.326-.934c.078-.376.161-.921.248-1.64h1.681V333.6h3.824V334.8h-3.824v5.268a13.559,13.559,0,0,0,.1,1.829,2.541,2.541,0,0,0,.354,1.065,1.58,1.58,0,0,0,.591.55,1.9,1.9,0,0,0,.852.165,2.066,2.066,0,0,0,.889-.2,3.341,3.341,0,0,0,.817-.563l.532.639a6.376,6.376,0,0,1-1.592,1.184,3.523,3.523,0,0,1-1.555.367,2.772,2.772,0,0,1-2.272-.906,4.422,4.422,0,0,1-.745-2.835V334.8H217.74v-.6Z" transform="translate(-193.002 -327.925)" fill="#0072b6"/>
        <path id="Path_26513" data-name="Path 26513" d="M263.275,354.933a4.777,4.777,0,0,1-3.758-1.449,6.251,6.251,0,0,1-1.3-4.291,7.273,7.273,0,0,1,.68-3.3,4.562,4.562,0,0,1,1.864-2.005,5.454,5.454,0,0,1,2.7-.656A4.847,4.847,0,0,1,267.3,344.7a6.19,6.19,0,0,1,1.3,4.232,7.574,7.574,0,0,1-.652,3.313,4.449,4.449,0,0,1-1.847,2.018,5.71,5.71,0,0,1-2.829.669Zm-2.818-5.989a7.411,7.411,0,0,0,.776,3.745,2.446,2.446,0,0,0,2.22,1.308,2.317,2.317,0,0,0,1.349-.385,2.886,2.886,0,0,0,.906-1.036,5.122,5.122,0,0,0,.5-1.51,10.173,10.173,0,0,0,.154-1.792,9.212,9.212,0,0,0-.385-2.887,3.577,3.577,0,0,0-1.047-1.686,2.337,2.337,0,0,0-1.514-.539,2.435,2.435,0,0,0-2.2,1.243,6.776,6.776,0,0,0-.763,3.539Z" transform="translate(-224.688 -337.749)" fill="#0072b6"/>
        <path id="Path_26514" data-name="Path 26514" d="M319.579,345.282l.165.048a14.505,14.505,0,0,1,1.167-1.071,5.375,5.375,0,0,1,.882-.58,3.827,3.827,0,0,1,.8-.313,3.108,3.108,0,0,1,.763-.1,3.2,3.2,0,0,1,1.929.545,2.829,2.829,0,0,1,1.03,1.668,15.607,15.607,0,0,1,1.438-1.325,4.608,4.608,0,0,1,1.125-.656,3.275,3.275,0,0,1,1.236-.23,3.649,3.649,0,0,1,1.366.23,2.42,2.42,0,0,1,.971.71,3,3,0,0,1,.58,1.2,8.248,8.248,0,0,1,.182,1.942v4.462a8.675,8.675,0,0,0,.059,1.243,1.559,1.559,0,0,0,.172.532.953.953,0,0,0,.337.326,3.152,3.152,0,0,0,.758.278v.58h-4.651v-.58a4.433,4.433,0,0,0,.663-.248.976.976,0,0,0,.337-.3,1.527,1.527,0,0,0,.213-.587,6.8,6.8,0,0,0,.076-1.2v-3.1q0-1.007-.054-1.664a5.578,5.578,0,0,0-.165-1.047,2.068,2.068,0,0,0-.272-.615,2,2,0,0,0-.361-.391,1.513,1.513,0,0,0-.474-.261,2.253,2.253,0,0,0-.721-.1,2.074,2.074,0,0,0-.882.189,3.514,3.514,0,0,0-.889.639,3.058,3.058,0,0,0-.693.906,2.519,2.519,0,0,0-.213,1.071v4.321a8.68,8.68,0,0,0,.059,1.243,1.559,1.559,0,0,0,.172.532.953.953,0,0,0,.337.326,3.152,3.152,0,0,0,.758.278v.58h-4.651v-.58a4.433,4.433,0,0,0,.663-.248.976.976,0,0,0,.337-.3,1.528,1.528,0,0,0,.213-.587,6.8,6.8,0,0,0,.076-1.2v-3.1c0-.7-.02-1.275-.059-1.716a5.33,5.33,0,0,0-.182-1.065,2.028,2.028,0,0,0-.319-.652,1.641,1.641,0,0,0-.4-.378,1.507,1.507,0,0,0-.474-.2,2.655,2.655,0,0,0-.615-.065,1.977,1.977,0,0,0-.912.219,3.841,3.841,0,0,0-.869.634,3.088,3.088,0,0,0-.669.865,2.142,2.142,0,0,0-.226.971v4.438c0,.45.011.793.035,1.03a2.212,2.212,0,0,0,.113.556.984.984,0,0,0,.2.326,1.23,1.23,0,0,0,.337.237,3.423,3.423,0,0,0,.656.23v.58h-4.64v-.58a4.238,4.238,0,0,0,.645-.248,1.038,1.038,0,0,0,.337-.3,1.387,1.387,0,0,0,.213-.58,7.439,7.439,0,0,0,.072-1.219V346.7c0-.5-.009-.912-.024-1.219a1.869,1.869,0,0,0-.165-.741.911.911,0,0,0-.432-.415,3.382,3.382,0,0,0-.823-.23v-.628l2.77-.106h.721l-.13,1.929Z" transform="translate(-270.08 -337.78)" fill="#0072b6"/>
        <path id="Path_26515" data-name="Path 26515" d="M415.335,354.933a4.777,4.777,0,0,1-3.758-1.449,6.251,6.251,0,0,1-1.3-4.291,7.273,7.273,0,0,1,.68-3.3,4.562,4.562,0,0,1,1.864-2.005,5.477,5.477,0,0,1,2.7-.656,4.847,4.847,0,0,1,3.834,1.473,6.19,6.19,0,0,1,1.3,4.232,7.575,7.575,0,0,1-.652,3.313,4.45,4.45,0,0,1-1.847,2.018,5.71,5.71,0,0,1-2.829.669Zm-2.818-5.989a7.411,7.411,0,0,0,.776,3.745,2.446,2.446,0,0,0,2.22,1.308,2.317,2.317,0,0,0,1.349-.385,2.886,2.886,0,0,0,.906-1.036,5.123,5.123,0,0,0,.5-1.51,10.173,10.173,0,0,0,.154-1.792,9.211,9.211,0,0,0-.385-2.887A3.576,3.576,0,0,0,417,344.7a2.342,2.342,0,0,0-1.514-.539,2.437,2.437,0,0,0-2.2,1.243,6.776,6.776,0,0,0-.763,3.539Z" transform="translate(-343.714 -337.749)" fill="#0072b6"/>
        <path id="Path_26516" data-name="Path 26516" d="M471.663,345.386l.165.035a9.08,9.08,0,0,1,1.208-1.249,4.346,4.346,0,0,1,1.2-.7,4.054,4.054,0,0,1,1.462-.248,9.775,9.775,0,0,1,1.243.072v2.722H475.6a2.78,2.78,0,0,0-.6-.93,1.256,1.256,0,0,0-.875-.289,1.654,1.654,0,0,0-.847.248,3.153,3.153,0,0,0-.81.721,3.025,3.025,0,0,0-.539.889,2.948,2.948,0,0,0-.148.982v4.143a5.653,5.653,0,0,0,.13,1.486,1.046,1.046,0,0,0,.432.6,2.591,2.591,0,0,0,.906.3v.58h-4.771v-.58a4.232,4.232,0,0,0,.645-.248,1.038,1.038,0,0,0,.337-.3,1.417,1.417,0,0,0,.213-.58,7.436,7.436,0,0,0,.072-1.219v-5.16c0-.5-.009-.912-.024-1.219a1.869,1.869,0,0,0-.165-.741.911.911,0,0,0-.432-.415,3.383,3.383,0,0,0-.823-.23v-.615l2.77-.117h.721l-.13,2.07Z" transform="translate(-389.129 -337.741)" fill="#0072b6"/>
        <path id="Path_26517" data-name="Path 26517" d="M517.813,345.386l.165.035a9.081,9.081,0,0,1,1.208-1.249,4.346,4.346,0,0,1,1.2-.7,4.053,4.053,0,0,1,1.462-.248,9.776,9.776,0,0,1,1.243.072v2.722h-1.338a2.778,2.778,0,0,0-.6-.93,1.252,1.252,0,0,0-.875-.289,1.655,1.655,0,0,0-.847.248,3.153,3.153,0,0,0-.81.721,3.022,3.022,0,0,0-.539.889,2.891,2.891,0,0,0-.148.982v4.143a5.652,5.652,0,0,0,.13,1.486,1.046,1.046,0,0,0,.432.6,2.591,2.591,0,0,0,.906.3v.58h-4.771v-.58a4.234,4.234,0,0,0,.645-.248,1.037,1.037,0,0,0,.337-.3,1.386,1.386,0,0,0,.213-.58,7.439,7.439,0,0,0,.072-1.219v-5.16c0-.5-.009-.912-.024-1.219a1.871,1.871,0,0,0-.165-.741.912.912,0,0,0-.432-.415,3.384,3.384,0,0,0-.823-.23v-.615l2.77-.117h.721l-.13,2.07Z" transform="translate(-425.253 -337.741)" fill="#0072b6"/>
        <path id="Path_26518" data-name="Path 26518" d="M565.215,354.933a4.777,4.777,0,0,1-3.758-1.449,6.251,6.251,0,0,1-1.3-4.291,7.273,7.273,0,0,1,.68-3.3,4.562,4.562,0,0,1,1.864-2.005,5.477,5.477,0,0,1,2.7-.656,4.847,4.847,0,0,1,3.834,1.473,6.19,6.19,0,0,1,1.3,4.232,7.575,7.575,0,0,1-.652,3.313,4.45,4.45,0,0,1-1.847,2.018,5.71,5.71,0,0,1-2.829.669Zm-2.818-5.989a7.411,7.411,0,0,0,.776,3.745,2.446,2.446,0,0,0,2.22,1.308,2.317,2.317,0,0,0,1.349-.385,2.885,2.885,0,0,0,.906-1.036,5.122,5.122,0,0,0,.5-1.51,10.173,10.173,0,0,0,.154-1.792,9.212,9.212,0,0,0-.385-2.887,3.576,3.576,0,0,0-1.047-1.686,2.342,2.342,0,0,0-1.514-.539,2.437,2.437,0,0,0-2.2,1.243,6.776,6.776,0,0,0-.763,3.539Z" transform="translate(-461.033 -337.749)" fill="#0072b6"/>
        <path id="Path_26519" data-name="Path 26519" d="M623.8,346.614l-3.1,8.9h-1.645l-2.842-8.783a8.459,8.459,0,0,0-.456-1.2,1.68,1.68,0,0,0-.391-.521,1.734,1.734,0,0,0-.669-.289v-.58h4.675v.58a1.994,1.994,0,0,0-.93.374.909.909,0,0,0-.243.693,3.324,3.324,0,0,0,.072.669c.048.232.117.5.213.81l1.857,6.037,3.042-9.161h1.668l2.581,9.161,2.083-5.787a8.761,8.761,0,0,0,.272-.858,2.994,2.994,0,0,0,.106-.763,1.048,1.048,0,0,0-.267-.769,1.763,1.763,0,0,0-.906-.4v-.58h4.13v.58a2.252,2.252,0,0,0-.5.172,1.245,1.245,0,0,0-.326.261,2.6,2.6,0,0,0-.354.532,11.3,11.3,0,0,0-.491,1.119l-3.422,8.712h-1.6l-2.568-8.9Z" transform="translate(-503.724 -338.461)" fill="#0072b6"/>
      </g>
      <g id="Group_3731" data-name="Group 3731" transform="translate(22.309 46.629)">
        <path id="Path_26520" data-name="Path 26520" d="M107.238,231.409h7.643v3.8h-12.2V216h4.56v15.409Z" transform="translate(-102.68 -215.705)" fill="#fff"/>
        <path id="Path_26521" data-name="Path 26521" d="M193.131,219.658h-9.148V223.6h7.191v3.617h-7.191v4.193h9.148v3.8H179.41V216h13.721Z" transform="translate(-162.741 -215.705)" fill="#fff"/>
        <path id="Path_26522" data-name="Path 26522" d="M267.456,216l6.013,19.209h-4.836l-1.184-3.954h-6.211l-1.2,3.954H256.09L262.247,216Zm-5.138,11.71h4.071l-2.018-6.741Z" transform="translate(-222.762 -215.705)" fill="#fff"/>
        <path id="Path_26523" data-name="Path 26523" d="M355.56,216h5.863a11.18,11.18,0,0,1,5.342.993,9.281,9.281,0,0,1,3.15,3.139,9.79,9.79,0,0,1,1.393,5.425,10.051,10.051,0,0,1-2.433,6.889,8.462,8.462,0,0,1-6.706,2.766H355.56V216Zm4.419,3.532v12.061h1.853a4.058,4.058,0,0,0,3.652-1.836,8.211,8.211,0,0,0,.513-7.543,4.492,4.492,0,0,0-1.692-2.083,4.7,4.7,0,0,0-2.429-.6h-1.9Z" transform="translate(-300.623 -215.705)" fill="#fff"/>
        <path id="Path_26524" data-name="Path 26524" d="M465.261,219.658h-9.148V223.6H463.3v3.617h-7.191v4.193h9.148v3.8H451.54V216h13.721Z" transform="translate(-375.752 -215.705)" fill="#fff"/>
        <path id="Path_26525" data-name="Path 26525" d="M541.612,227.6v7.614H537.08V216.01h8.444a10.713,10.713,0,0,1,3.75.541,4.814,4.814,0,0,1,2.344,1.99,5.847,5.847,0,0,1,.93,3.22,5.116,5.116,0,0,1-3.335,4.964l3.548,8.492h-4.973l-2.95-7.614h-3.224Zm0-8.177v4.9h2.759a7.192,7.192,0,0,0,1.964-.191,2.174,2.174,0,0,0,1.091-.845,2.473,2.473,0,0,0,.478-1.5,2.261,2.261,0,0,0-.478-1.436,1.974,1.974,0,0,0-1.041-.78,9.9,9.9,0,0,0-2.112-.148h-2.659Z" transform="translate(-442.708 -215.712)" fill="#fff"/>
        <path id="Path_26526" data-name="Path 26526" d="M640.605,219.157l-3.828,1.282a3.137,3.137,0,0,0-3.272-2.279q-2.669,0-2.668,1.731a1.551,1.551,0,0,0,.5,1.169,5.021,5.021,0,0,0,2.255.832,22.469,22.469,0,0,1,4.3,1.2,5.505,5.505,0,0,1,2.3,1.949,5.134,5.134,0,0,1,.934,3,6.008,6.008,0,0,1-2,4.5q-2,1.9-5.94,1.9a9.04,9.04,0,0,1-5.027-1.345,6.382,6.382,0,0,1-2.735-3.991l4.165-.943q.7,2.688,3.9,2.687a3.694,3.694,0,0,0,2.3-.6,1.771,1.771,0,0,0,.758-1.43,1.5,1.5,0,0,0-.689-1.308,8.362,8.362,0,0,0-2.657-.873,12.085,12.085,0,0,1-5.229-2.077,4.75,4.75,0,0,1-1.56-3.85,5.735,5.735,0,0,1,1.862-4.319,7.063,7.063,0,0,1,5.055-1.76q5.651,0,7.269,4.517Z" transform="translate(-511.857 -214.64)" fill="#fff"/>
      </g>
    </g>
  </g>
</svg>
