<svg xmlns="http://www.w3.org/2000/svg" width="58.588" height="58.606" viewBox="0 0 58.588 58.606">
  <g id="Icon_ionic-ios-quote" data-name="Icon ionic-ios-quote" transform="translate(58.588 58.606) rotate(180)" opacity="0.15">
    <path id="Path_24908" data-name="Path 24908" d="M20.689,0H8.788A8.814,8.814,0,0,0,0,8.788V32.223a8.814,8.814,0,0,0,8.788,8.788h7.085a1.473,1.473,0,0,1,1.465,1.575,22.332,22.332,0,0,1-5.731,13.567,1.466,1.466,0,0,0,1.08,2.453h7.305a1.422,1.422,0,0,0,1.153-.568c1.355-1.758,5.218-7.616,5.218-17.192V5.694A5.55,5.55,0,0,0,20.689,0Z" transform="translate(0 0)" fill="#94cc00"/>
    <path id="Path_24909" data-name="Path 24909" d="M20.689,0H8.788A8.814,8.814,0,0,0,0,8.788V32.223a8.814,8.814,0,0,0,8.788,8.788h7.085a1.473,1.473,0,0,1,1.465,1.575,22.332,22.332,0,0,1-5.731,13.567,1.466,1.466,0,0,0,1.08,2.453h7.305a1.422,1.422,0,0,0,1.153-.568c1.355-1.758,5.218-7.616,5.218-17.192V5.694A5.55,5.55,0,0,0,20.689,0Z" transform="translate(32.223 0)" fill="#94cc00"/>
  </g>
</svg>
