<svg xmlns="http://www.w3.org/2000/svg" xmlns:xlink="http://www.w3.org/1999/xlink" width="181.2" height="32.367" viewBox="0 0 181.2 32.367">
  <defs>
    <clipPath id="clip-path">
      <rect id="Rectangle_1197" data-name="Rectangle 1197" width="181.2" height="32.367" fill="none"/>
    </clipPath>
  </defs>
  <g id="Group_3643" data-name="Group 3643" transform="translate(-59 -53)">
    <g id="Group_2397" data-name="Group 2397" transform="translate(59 53)">
      <path id="Path_19350" data-name="Path 19350" d="M82.9.072V32.407h21.737l.634-4.71H88.376V18.141H103.5V13.386H88.376v-8.6h16.032V.072Z" transform="translate(-45.381 -0.039)" fill="#001733"/>
      <g id="Group_2398" data-name="Group 2398" transform="translate(0 0)">
        <g id="Group_2397-2" data-name="Group 2397" clip-path="url(#clip-path)">
          <path id="Path_19351" data-name="Path 19351" d="M155.522.072a19.859,19.859,0,0,1,6.43.973A12.434,12.434,0,0,1,166.8,4.011a13.156,13.156,0,0,1,3.056,5,21.147,21.147,0,0,1,1.064,7.042,20.376,20.376,0,0,1-1.132,7.088,13.549,13.549,0,0,1-3.261,5.117,13.663,13.663,0,0,1-5.185,3.1,21.342,21.342,0,0,1-6.906,1.042h-10.6V.072Zm-.906,27.67a12.976,12.976,0,0,0,4.868-.816,8.273,8.273,0,0,0,3.306-2.355A9.612,9.612,0,0,0,164.67,20.9a18.024,18.024,0,0,0,.589-4.8q0-5.343-2.264-8.355t-7.428-3.012h-6.249V27.742Z" transform="translate(-78.744 -0.039)" fill="#001733"/>
          <path id="Path_19352" data-name="Path 19352" d="M214.273.072h21.512v4.71H219.753v8.6h15.126v4.755H219.753V27.7h16.893l-.634,4.71H214.273Z" transform="translate(-117.303 -0.039)" fill="#001733"/>
          <path id="Path_19353" data-name="Path 19353" d="M286.267.073a18.012,18.012,0,0,1,6.047.86,10.087,10.087,0,0,1,3.758,2.241A7.646,7.646,0,0,1,298,6.231a10.681,10.681,0,0,1,.544,3.306,10.356,10.356,0,0,1-1.245,5.3,8.857,8.857,0,0,1-4.008,3.442l6.7,14.129h-5.978l-5.8-12.861c-.272.03-.56.053-.861.067s-.619.023-.952.023h-5.8V32.407h-5.389V.073Zm.408,14.944a10.409,10.409,0,0,0,3.079-.385,4.641,4.641,0,0,0,1.925-1.087,3.965,3.965,0,0,0,1-1.7,7.861,7.861,0,0,0,.293-2.219,5.958,5.958,0,0,0-.339-2.061A3.674,3.674,0,0,0,291.5,5.983a5.624,5.624,0,0,0-2.106-1.02,12.533,12.533,0,0,0-3.262-.362h-5.524V15.017Z" transform="translate(-150.667 -0.04)" fill="#001733"/>
          <path id="Path_19354" data-name="Path 19354" d="M346.267.072H351.7L364.02,32.406h-5.841l-3.034-8.242H342.6l-2.989,8.242H333.95Zm7.382,19.519-4.8-13.315-4.755,13.315Z" transform="translate(-182.82 -0.039)" fill="#001733"/>
          <path id="Path_19355" data-name="Path 19355" d="M388.557,2.059a.563.563,0,0,0,.2.409.838.838,0,0,0,.507.128.917.917,0,0,0,.277-.036.5.5,0,0,0,.18-.1.327.327,0,0,0,.1-.142.54.54,0,0,0,.029-.175.456.456,0,0,0-.02-.134.324.324,0,0,0-.072-.122.469.469,0,0,0-.141-.1.9.9,0,0,0-.224-.066l-.365-.068a2.509,2.509,0,0,1-.384-.1.879.879,0,0,1-.282-.158.623.623,0,0,1-.173-.241.92.92,0,0,1-.058-.346.741.741,0,0,1,.082-.357A.734.734,0,0,1,388.437.2a1.028,1.028,0,0,1,.342-.152A1.777,1.777,0,0,1,389.21,0a1.563,1.563,0,0,1,.5.068.944.944,0,0,1,.324.178.744.744,0,0,1,.188.254,1.168,1.168,0,0,1,.088.3l-.457.072a.638.638,0,0,0-.195-.356A.675.675,0,0,0,389.218.4a1.155,1.155,0,0,0-.286.03.507.507,0,0,0-.184.084.314.314,0,0,0-.1.124.363.363,0,0,0-.03.146.357.357,0,0,0,.1.281.775.775,0,0,0,.358.144l.4.076a1.3,1.3,0,0,1,.665.286.768.768,0,0,1,.212.583.842.842,0,0,1-.066.334.726.726,0,0,1-.2.268,1.013,1.013,0,0,1-.338.18,1.523,1.523,0,0,1-.471.066,1.421,1.421,0,0,1-.861-.23.907.907,0,0,1-.344-.715Z" transform="translate(-212.447 0)" fill="#001733"/>
          <path id="Path_19356" data-name="Path 19356" d="M394.148.16h.589l.813,2.275L396.387.16h.569V3.019h-.444V.94l-.785,2.079h-.384L394.585.945V3.019h-.437Z" transform="translate(-215.775 -0.087)" fill="#001733"/>
          <path id="Path_19357" data-name="Path 19357" d="M28.369,23.678a1.265,1.265,0,0,1-.629,1.1L14.866,32.26a1.264,1.264,0,0,1-1.265,0L.681,24.86a1.264,1.264,0,0,1-.636-1.093L0,8.872A1.264,1.264,0,0,1,.628,7.777L13.5.289a1.265,1.265,0,0,1,1.264,0l12.92,7.406a1.266,1.266,0,0,1,.635,1.095Z" transform="translate(0 -0.064)" fill="#0072b6"/>
          <path id="Path_19358" data-name="Path 19358" d="M19.758,24.573l9.35-5.383a.357.357,0,0,0,.179-.31V16.493a.356.356,0,0,0-.179-.31L19.68,10.761a.356.356,0,0,0-.356,0L9.875,16.206a.358.358,0,0,0-.179.31L9.709,27.65a.358.358,0,0,0,.179.309l9.437,5.434a.358.358,0,0,0,.357,0l9.426-5.429a.357.357,0,0,0,.179-.31V24.7a.294.294,0,0,0-.44-.254l-9.164,5.274a.357.357,0,0,1-.356,0L12.978,26.06a.359.359,0,0,1-.179-.31l0-4.56a.239.239,0,0,1,.357-.206L19.4,24.573a.357.357,0,0,0,.357,0m-5.512-7.217,5.088-2.933a.341.341,0,0,1,.333,0L24.833,17.4a.333.333,0,0,1,0,.575L19.748,20.9a.329.329,0,0,1-.33,0l-5.171-2.971a.333.333,0,0,1,0-.577" transform="translate(-5.308 -5.865)" fill="#fff"/>
        </g>
      </g>
    </g>
  </g>
</svg>
