<svg xmlns="http://www.w3.org/2000/svg" xmlns:xlink="http://www.w3.org/1999/xlink" width="79.356" height="90.393" viewBox="0 0 79.356 90.393">
  <defs>
    <clipPath id="clip-path">
      <rect id="Rectangle_1678" data-name="Rectangle 1678" width="42.406" height="46.475" fill="none"/>
    </clipPath>
  </defs>
  <g id="Group_3640" data-name="Group 3640" transform="translate(-208.322 -1180.607)">
    <path id="Path_26182" data-name="Path 26182" d="M79.356,66.024a3.538,3.538,0,0,1-1.76,3.069L41.586,90.03a3.536,3.536,0,0,1-3.54.013L1.905,69.329A3.537,3.537,0,0,1,.127,66.271L0,24.606a3.536,3.536,0,0,1,1.756-3.062L37.774.6a3.538,3.538,0,0,1,3.537-.01L77.452,21.3a3.541,3.541,0,0,1,1.777,3.062Z" transform="translate(208.322 1180.489)" fill="#94cc00" opacity="0.3"/>
    <g id="Group_3464" data-name="Group 3464" transform="translate(226.797 1201.525)">
      <g id="Group_3463" data-name="Group 3463" transform="translate(0 0)" clip-path="url(#clip-path)">
        <path id="Path_25748" data-name="Path 25748" d="M31.016,59.6a4.86,4.86,0,1,1,4.908-4.86,4.884,4.884,0,0,1-4.908,4.86m0-7.981a3.13,3.13,0,1,0,0-.017Z" transform="translate(-9.813 -18.747)" fill="#011e41" fill-rule="evenodd"/>
        <path id="Path_25749" data-name="Path 25749" d="M23.473,71.592a1.018,1.018,0,0,1-.314-.061.869.869,0,0,1-.5-1.122,5.645,5.645,0,0,1,5.228-3.583h3.625A5.647,5.647,0,0,1,36.735,70.4a.874.874,0,0,1-1.63.634,3.887,3.887,0,0,0-3.6-2.434H27.89a3.9,3.9,0,0,0-3.608,2.469.871.871,0,0,1-.81.522" transform="translate(-8.493 -25.116)" fill="#011e41" fill-rule="evenodd"/>
        <path id="Path_25750" data-name="Path 25750" d="M8.42,53.034a4.86,4.86,0,1,1,4.908-4.86v.009A4.884,4.884,0,0,1,8.42,53.034m0-7.975a3.124,3.124,0,1,0,3.155,3.125A3.14,3.14,0,0,0,8.42,45.059" transform="translate(-1.32 -16.279)" fill="#011e41" fill-rule="evenodd"/>
        <path id="Path_25751" data-name="Path 25751" d="M13.337,65.019a.873.873,0,0,1-.812-.548A3.9,3.9,0,0,0,8.911,62H5.306a3.893,3.893,0,0,0-3.613,2.47.876.876,0,0,1-1.632-.635A5.656,5.656,0,0,1,5.3,60.262H8.9a5.664,5.664,0,0,1,5.237,3.574.868.868,0,0,1-.5,1.126l-.011,0a.977.977,0,0,1-.3.052" transform="translate(0 -22.649)" fill="#011e41" fill-rule="evenodd"/>
        <path id="Path_25752" data-name="Path 25752" d="M30.863,17.372a4.86,4.86,0,1,1,4.908-4.86v.009a4.884,4.884,0,0,1-4.908,4.851m0-7.975a3.124,3.124,0,1,0,3.155,3.125A3.14,3.14,0,0,0,30.863,9.4" transform="translate(-9.755 -2.876)" fill="#011e41" fill-rule="evenodd"/>
        <path id="Path_25753" data-name="Path 25753" d="M35.78,29.357a.873.873,0,0,1-.812-.548,3.9,3.9,0,0,0-3.613-2.47H27.749a3.893,3.893,0,0,0-3.613,2.47.876.876,0,0,1-1.632-.635A5.656,5.656,0,0,1,27.741,24.6h3.6a5.663,5.663,0,0,1,5.237,3.574.868.868,0,0,1-.495,1.126l-.011,0a.978.978,0,0,1-.3.052" transform="translate(-8.435 -9.246)" fill="#011e41" fill-rule="evenodd"/>
        <path id="Path_25754" data-name="Path 25754" d="M53.62,53.645a4.86,4.86,0,1,1,4.9-4.868v.009a4.884,4.884,0,0,1-4.9,4.86m0-7.975A3.124,3.124,0,1,0,56.767,48.8v-.017A3.131,3.131,0,0,0,53.62,45.67" transform="translate(-18.305 -16.509)" fill="#011e41" fill-rule="evenodd"/>
        <path id="Path_25755" data-name="Path 25755" d="M58.521,65.638a.873.873,0,0,1-.813-.557,3.907,3.907,0,0,0-3.618-2.469H50.474a3.907,3.907,0,0,0-3.618,2.469.873.873,0,0,1-1.625-.626,5.66,5.66,0,0,1,5.243-3.582h3.617a5.661,5.661,0,0,1,5.243,3.582.868.868,0,0,1-.5,1.122.811.811,0,0,1-.315.061" transform="translate(-16.986 -22.879)" fill="#011e41" fill-rule="evenodd"/>
        <path id="Ellipse_41" data-name="Ellipse 41" d="M12.014-1.5A13.514,13.514,0,0,1,25.528,12.014,13.514,13.514,0,0,1,12.014,25.528,13.514,13.514,0,0,1-1.5,12.014,13.514,13.514,0,0,1,12.014-1.5Zm0,24.028A10.514,10.514,0,1,0,1.5,12.014,10.526,10.526,0,0,0,12.014,22.528Z" transform="translate(9.19 0.936)" fill="#95c93d"/>
      </g>
    </g>
  </g>
</svg>
