<svg xmlns="http://www.w3.org/2000/svg" xmlns:xlink="http://www.w3.org/1999/xlink" width="65" height="65" viewBox="0 0 65 65">
  <defs>
    <clipPath id="clip-path">
      <rect id="Rectangle_1485" data-name="Rectangle 1485" width="65" height="65" fill="#f6ad32"/>
    </clipPath>
  </defs>
  <g id="Group_2919" data-name="Group 2919" transform="translate(0 0)">
    <g id="Group_2906" data-name="Group 2906" transform="translate(0 0)">
      <g id="Group_2905" data-name="Group 2905" transform="translate(0 0)" clip-path="url(#clip-path)">
        <path id="Path_24561" data-name="Path 24561" d="M27,36.986a10,10,0,1,1,10-10,10.017,10.017,0,0,1-10,10m0-17.377a7.373,7.373,0,1,0,7.373,7.373A7.381,7.381,0,0,0,27,19.608" transform="translate(5.372 5.365)" fill="#f6ad32"/>
        <path id="Path_24562" data-name="Path 24562" d="M44.924,54.558a1.317,1.317,0,0,1-1.316-1.316V40.209a4.347,4.347,0,0,0-2.984-4.138l-4.014-1.2L29.718,41.76a1.355,1.355,0,0,1-1.861,0l-6.891-6.892-4.05,1.213a4.339,4.339,0,0,0-2.948,4.127V53.242a1.316,1.316,0,0,1-2.632,0V40.209a6.975,6.975,0,0,1,4.789-6.637l4.837-1.45a1.314,1.314,0,0,1,1.309.33l6.516,6.517L35.3,32.452a1.313,1.313,0,0,1,1.308-.33l4.8,1.438a6.987,6.987,0,0,1,4.825,6.649V53.242a1.317,1.317,0,0,1-1.316,1.316" transform="translate(3.583 10.135)" fill="#f6ad32"/>
        <path id="Path_24563" data-name="Path 24563" d="M17.368,52.173a1.317,1.317,0,0,1-1.316-1.316v-9.93a1.316,1.316,0,1,1,2.632,0v9.93a1.317,1.317,0,0,1-1.316,1.316" transform="translate(5.074 12.52)" fill="#f6ad32"/>
        <path id="Path_24564" data-name="Path 24564" d="M32.458,52.173a1.317,1.317,0,0,1-1.316-1.316v-9.93a1.316,1.316,0,1,1,2.632,0v9.93a1.317,1.317,0,0,1-1.316,1.316" transform="translate(9.843 12.52)" fill="#f6ad32"/>
        <path id="Path_24565" data-name="Path 24565" d="M12.063,29.366A17.3,17.3,0,1,1,44.45,37.811a1.316,1.316,0,0,0,2.3,1.29,19.935,19.935,0,1,0-34.76,0,1.316,1.316,0,0,0,2.3-1.29,17.272,17.272,0,0,1-2.218-8.445" transform="translate(2.981 2.98)" fill="#f6ad32"/>
        <path id="Path_24566" data-name="Path 24566" d="M12.228,45.964a24.344,24.344,0,0,1-1.746-3.009,2.612,2.612,0,0,0-2.337-1.448l-4.521.075-.77-2.874,3.938-2.186a2.566,2.566,0,0,0,1.3-2.423q-.061-.869-.062-1.753t.062-1.754a2.565,2.565,0,0,0-1.3-2.423L2.853,25.985l.77-2.876,4.519.076a2.565,2.565,0,0,0,2.337-1.448,24.565,24.565,0,0,1,1.748-3.009,2.569,2.569,0,0,0,.088-2.756L9.985,12.09l2.106-2.1,3.884,2.331a2.57,2.57,0,0,0,2.753-.088,24.369,24.369,0,0,1,3.01-1.746,2.566,2.566,0,0,0,1.448-2.337L23.11,3.623l2.874-.77,2.185,3.935a2.561,2.561,0,0,0,2.424,1.3,24.741,24.741,0,0,1,3.506,0,2.567,2.567,0,0,0,2.423-1.3l2.186-3.936,2.876.77-.076,4.519a2.567,2.567,0,0,0,1.448,2.339,24.257,24.257,0,0,1,3.009,1.746,2.572,2.572,0,0,0,2.755.088L52.6,9.985l2.106,2.1-2.331,3.885a2.564,2.564,0,0,0,.088,2.753,24.343,24.343,0,0,1,1.746,3.01,2.565,2.565,0,0,0,2.337,1.448l4.521-.076.77,2.876L57.9,28.169a2.566,2.566,0,0,0-1.3,2.423q.063.871.063,1.754T56.6,34.1a2.568,2.568,0,0,0,1.3,2.423l3.936,2.186-.77,2.874-4.519-.075a2.61,2.61,0,0,0-2.34,1.448,24.236,24.236,0,0,1-1.744,3.009,2.564,2.564,0,0,0-.089,2.755L54.708,52.6l-2.191,2.191a1.316,1.316,0,1,0,1.861,1.861L57.3,53.737a1.314,1.314,0,0,0,.2-1.607l-2.851-4.687a20.7,20.7,0,0,0,1.862-3.3l5.547.093a1.282,1.282,0,0,0,1.292-.977l1.3-4.86a1.315,1.315,0,0,0-.632-1.491l-4.789-2.619q.069-.959.07-1.94a11.978,11.978,0,0,0-.117-1.874l4.837-2.686a1.315,1.315,0,0,0,.632-1.491l-1.3-4.86a1.313,1.313,0,0,0-1.292-.975l-5.475.125a20.649,20.649,0,0,0-1.944-3.256l2.86-4.766a1.316,1.316,0,0,0-.2-1.608L53.738,7.4a1.32,1.32,0,0,0-1.608-.2L47.445,10.05a20.872,20.872,0,0,0-3.3-1.862l.093-5.547a1.318,1.318,0,0,0-.975-1.294L38.4.045a1.316,1.316,0,0,0-1.491.632L34.288,5.466a17.666,17.666,0,0,0-3.815.046L27.788.677A1.316,1.316,0,0,0,26.3.045l-4.86,1.3A1.318,1.318,0,0,0,20.46,2.64l.126,5.475a20.741,20.741,0,0,0-3.257,1.944L12.563,7.2a1.318,1.318,0,0,0-1.607.2L7.4,10.955a1.314,1.314,0,0,0-.2,1.608l2.851,4.685a20.759,20.759,0,0,0-1.864,3.3L2.64,20.46a1.351,1.351,0,0,0-1.292.975L.045,26.3a1.316,1.316,0,0,0,.633,1.491l4.788,2.619q-.067.961-.068,1.941a12.146,12.146,0,0,0,.116,1.874L.678,36.906A1.316,1.316,0,0,0,.045,38.4l1.3,4.86a1.317,1.317,0,0,0,1.292.977l5.475-.125a20.932,20.932,0,0,0,1.944,3.256L7.2,52.13a1.312,1.312,0,0,0,.2,1.607l2.918,2.918a1.316,1.316,0,1,0,1.861-1.861L9.985,52.6l2.331-3.884a2.566,2.566,0,0,0-.088-2.755" transform="translate(0 -0.001)" fill="#f6ad32"/>
      </g>
    </g>
  </g>
</svg>
