<svg xmlns="http://www.w3.org/2000/svg" xmlns:xlink="http://www.w3.org/1999/xlink" width="180.489" height="205.591" viewBox="0 0 180.489 205.591">
  <defs>
    <clipPath id="clip-path">
      <rect id="Rectangle_533" data-name="Rectangle 533" width="180.489" height="205.591" fill="none"/>
    </clipPath>
  </defs>
  <g id="Group_1027" data-name="Group 1027" clip-path="url(#clip-path)">
    <path id="Path_8503" data-name="Path 8503" d="M89.956,5.259a2.789,2.789,0,0,1,1.386.369l82.2,47.123a2.8,2.8,0,0,1,1.4,2.416l.287,94.745a2.791,2.791,0,0,1-1.386,2.416L91.934,199.953a2.786,2.786,0,0,1-2.787.01l-82.2-47.111a2.792,2.792,0,0,1-1.4-2.409L5.259,55.687a2.794,2.794,0,0,1,1.377-2.409L88.556,5.637a2.792,2.792,0,0,1,1.4-.378m0-5.259a8.041,8.041,0,0,0-4.043,1.089L3.992,48.731A8.046,8.046,0,0,0,0,55.7L.287,150.46a8.045,8.045,0,0,0,4.045,6.956l82.2,47.11a8.046,8.046,0,0,0,8.05-.028l81.905-47.62a8.047,8.047,0,0,0,4-6.98L180.2,55.153a8.045,8.045,0,0,0-4.044-6.964L93.957,1.066a8.037,8.037,0,0,0-4-1.066" transform="translate(0)" fill="#fff"/>
    <path id="Path_8504" data-name="Path 8504" d="M95,122.04l59.488-34.251a2.269,2.269,0,0,0,1.139-1.968V70.63a2.271,2.271,0,0,0-1.14-1.97l-59.982-34.5a2.273,2.273,0,0,0-2.267,0L32.122,68.806a2.27,2.27,0,0,0-1.137,1.97l.083,70.841a2.274,2.274,0,0,0,1.138,1.967l60.043,34.573a2.275,2.275,0,0,0,2.268,0l59.974-34.542a2.272,2.272,0,0,0,1.138-1.969V122.823a1.867,1.867,0,0,0-2.8-1.617l-58.3,33.554a2.271,2.271,0,0,1-2.267,0L51.867,131.5a2.274,2.274,0,0,1-1.139-1.97l.014-29.01a1.515,1.515,0,0,1,2.27-1.313l39.724,22.831a2.274,2.274,0,0,0,2.266,0M59.931,76.121,92.307,57.462a2.161,2.161,0,0,1,2.115,0L127.291,76.4a2.114,2.114,0,0,1,0,3.662L94.937,98.693a2.091,2.091,0,0,1-2.1,0l-32.9-18.9a2.123,2.123,0,0,1,0-3.672" transform="translate(-3.068 -3.352)" fill="#fff"/>
    <path id="Path_8505" data-name="Path 8505" d="M145.881,222.919a2.323,2.323,0,0,0,.833,1.687,3.452,3.452,0,0,0,2.092.529,3.767,3.767,0,0,0,1.14-.15,2.1,2.1,0,0,0,.744-.4,1.37,1.37,0,0,0,.4-.587,2.225,2.225,0,0,0,.117-.72,1.931,1.931,0,0,0-.083-.552,1.314,1.314,0,0,0-.3-.5,1.916,1.916,0,0,0-.579-.405,3.678,3.678,0,0,0-.924-.273l-1.5-.28a10.325,10.325,0,0,1-1.586-.414,3.633,3.633,0,0,1-1.164-.651,2.564,2.564,0,0,1-.712-.993,3.789,3.789,0,0,1-.241-1.43,2.937,2.937,0,0,1,1.273-2.52,4.2,4.2,0,0,1,1.413-.627,7.237,7.237,0,0,1,1.777-.208,6.43,6.43,0,0,1,2.05.282,3.889,3.889,0,0,1,1.338.735,3.052,3.052,0,0,1,.777,1.049,4.848,4.848,0,0,1,.365,1.241l-1.884.3a2.648,2.648,0,0,0-.8-1.47,2.791,2.791,0,0,0-1.81-.478,4.717,4.717,0,0,0-1.18.123,2.083,2.083,0,0,0-.76.347,1.3,1.3,0,0,0-.414.513,1.51,1.51,0,0,0-.123.6,1.479,1.479,0,0,0,.422,1.158,3.2,3.2,0,0,0,1.479.594l1.636.314a5.351,5.351,0,0,1,2.744,1.182,3.169,3.169,0,0,1,.876,2.4,3.463,3.463,0,0,1-.273,1.38,2.961,2.961,0,0,1-.835,1.107,4.194,4.194,0,0,1-1.4.742,6.289,6.289,0,0,1-1.943.272,5.869,5.869,0,0,1-3.554-.95,3.748,3.748,0,0,1-1.42-2.95Z" transform="translate(-14.243 -21.228)" fill="#fff"/>
    <path id="Path_8506" data-name="Path 8506" d="M156.467,214.755H158.9l3.355,9.387,3.454-9.387h2.346v11.8h-1.834v-8.578l-3.24,8.578h-1.586L158.269,218v8.56h-1.8Z" transform="translate(-15.49 -21.261)" fill="#fff"/>
  </g>
</svg>
