<svg id="Group_525" data-name="Group 525" xmlns="http://www.w3.org/2000/svg" xmlns:xlink="http://www.w3.org/1999/xlink" width="202.156" height="46.425" viewBox="0 0 202.156 46.425">
  <defs>
    <clipPath id="clip-path">
      <rect id="Rectangle_264" data-name="Rectangle 264" width="202.156" height="46.425" fill="none"/>
    </clipPath>
  </defs>
  <rect id="Rectangle_266" data-name="Rectangle 266" width="0.535" height="46.425" transform="translate(50.676)" fill="#b1b1b1"/>
  <path id="Path_4213" data-name="Path 4213" d="M108.278,27.421l-10.53-15.74h-3.12V32.744h3.034V16.991l10.53,15.753h3.12V11.681h-3.033Z" transform="translate(-36.354 -4.487)" fill="#003b71"/>
  <g id="Group_524" data-name="Group 524">
    <g id="Group_515" data-name="Group 515" clip-path="url(#clip-path)">
      <path id="Path_4170" data-name="Path 4170" d="M133.817,11.681l-8.089,21.064h3.347l2.268-6.255h8.348l2.409,6.255h3.563l-8.621-21.064Zm-1.533,12.171,2.164-5.78a26.866,26.866,0,0,0,.952-3.188c.309.986.724,2.168,1.239,3.528l2.05,5.44Z" transform="translate(-48.302 -4.487)" fill="#003b71"/>
      <path id="Path_4171" data-name="Path 4171" d="M155.875,14.53h6.8V32.744h3.145V14.53h6.832V11.68H155.875Z" transform="translate(-59.883 -4.487)" fill="#003b71"/>
      <rect id="Rectangle_261" data-name="Rectangle 261" width="3.146" height="21.064" transform="translate(116.28 7.193)" fill="#003b71"/>
      <path id="Path_4172" data-name="Path 4172" d="M253.239,27.421l-10.53-15.74h-3.12V32.744h3.034V16.991l10.529,15.753h3.12V11.681h-3.033Z" transform="translate(-92.044 -4.487)" fill="#003b71"/>
      <path id="Path_4173" data-name="Path 4173" d="M278.778,11.681l-8.089,21.064h3.347L276.3,26.49h8.349l2.409,6.255h3.562L282,11.681Zm-1.532,12.171,2.164-5.78a26.934,26.934,0,0,0,.952-3.188c.309.986.724,2.169,1.239,3.528l2.05,5.44Z" transform="translate(-103.992 -4.487)" fill="#003b71"/>
      <path id="Path_4174" data-name="Path 4174" d="M309.791,29.895V11.681h-3.146V32.744h13.316V29.895Z" transform="translate(-117.806 -4.487)" fill="#003b71"/>
      <path id="Path_4175" data-name="Path 4175" d="M109.087,55.288a4.036,4.036,0,1,0,4.03-4.031,3.993,3.993,0,0,0-4.03,4.031m6.961,0a2.92,2.92,0,1,1-2.931-2.864,2.911,2.911,0,0,1,2.931,2.864" transform="translate(-41.909 -19.691)" fill="#003b71"/>
      <path id="Path_4176" data-name="Path 4176" d="M123.489,55.288a4.036,4.036,0,1,0,4.03-4.031,3.993,3.993,0,0,0-4.03,4.031m6.961,0a2.92,2.92,0,1,1-2.931-2.864,2.911,2.911,0,0,1,2.931,2.864" transform="translate(-47.441 -19.691)" fill="#003b71"/>
      <path id="Path_4177" data-name="Path 4177" d="M212.512,55.288a4.036,4.036,0,1,0,4.031-4.031,3.993,3.993,0,0,0-4.031,4.031m6.962,0a2.921,2.921,0,1,1-2.931-2.864,2.911,2.911,0,0,1,2.931,2.864" transform="translate(-81.642 -19.691)" fill="#003b71"/>
      <path id="Path_4178" data-name="Path 4178" d="M199.818,21.944a10.54,10.54,0,1,0,21.063,0,10.539,10.539,0,1,0-21.063,0m18.166,0a7.621,7.621,0,1,1-7.648-7.759,7.742,7.742,0,0,1,7.648,7.759" transform="translate(-76.765 -4.233)" fill="#003b71"/>
      <path id="Path_4179" data-name="Path 4179" d="M252.034,58.092a2.92,2.92,0,1,1,2.686-4.18h1.3a4.122,4.122,0,0,0-3.989-2.781,4.039,4.039,0,1,0,0,8.072,4.131,4.131,0,0,0,3.944-2.659h-1.323a2.981,2.981,0,0,1-2.621,1.548" transform="translate(-95.212 -19.643)" fill="#b1b1b1"/>
      <path id="Path_4180" data-name="Path 4180" d="M143.046,56.058a2.543,2.543,0,0,0-.471-.285,3.026,3.026,0,0,0,1.609-.688,1.885,1.885,0,0,0,.61-1.419,2.079,2.079,0,0,0-.368-1.189,1.932,1.932,0,0,0-.982-.75,5.7,5.7,0,0,0-1.753-.208h-3.848V59.27h1.262V55.892h1.243a3.814,3.814,0,0,1,.614.034,1.76,1.76,0,0,1,.5.2,2.4,2.4,0,0,1,.556.5c.21.24.483.59.81,1.043l1.148,1.611h1.588L144,57.084a5.583,5.583,0,0,0-.949-1.026m.039-3.222a1,1,0,0,1,.411.83,1.072,1.072,0,0,1-.212.639,1.223,1.223,0,0,1-.629.432,4.013,4.013,0,0,1-1.19.14h-2.359V52.5h2.632a2.188,2.188,0,0,1,1.347.334" transform="translate(-52.956 -19.792)" fill="#003b71"/>
      <path id="Path_4181" data-name="Path 4181" d="M320.941,56.058a2.564,2.564,0,0,0-.471-.285,3.026,3.026,0,0,0,1.609-.688,1.885,1.885,0,0,0,.61-1.419,2.074,2.074,0,0,0-.368-1.189,1.935,1.935,0,0,0-.982-.75,5.693,5.693,0,0,0-1.753-.208h-3.847V59.27H317V55.892h1.242a3.824,3.824,0,0,1,.615.034,1.749,1.749,0,0,1,.5.2,2.4,2.4,0,0,1,.556.5c.211.24.483.59.81,1.043l1.148,1.611h1.588l-1.565-2.186a5.563,5.563,0,0,0-.949-1.026m.039-3.222a1.008,1.008,0,0,1,.412.83,1.08,1.08,0,0,1-.212.639,1.225,1.225,0,0,1-.63.432,4.01,4.01,0,0,1-1.19.14H317V52.5h2.632a2.187,2.187,0,0,1,1.347.334" transform="translate(-121.299 -19.792)" fill="#b1b1b1"/>
      <path id="Path_4182" data-name="Path 4182" d="M158.173,52.187a3.124,3.124,0,0,0-1.276-.557,8.1,8.1,0,0,0-1.531-.11h-3v7.752h3.143a6.54,6.54,0,0,0,1.383-.131,3.467,3.467,0,0,0,1.037-.389,3.031,3.031,0,0,0,.794-.706,3.679,3.679,0,0,0,.594-1.131,4.892,4.892,0,0,0,.23-1.561,4.716,4.716,0,0,0-.34-1.839,3.208,3.208,0,0,0-1.032-1.328m-4.548,6.043V52.56h1.724a4.886,4.886,0,0,1,1.439.152,2.088,2.088,0,0,1,1.033.833,3.177,3.177,0,0,1,.426,1.792,4.173,4.173,0,0,1-.219,1.44,2.309,2.309,0,0,1-.605.934,1.915,1.915,0,0,1-.74.381,4.9,4.9,0,0,1-1.306.137Z" transform="translate(-58.534 -19.792)" fill="#003b71"/>
      <path id="Path_4183" data-name="Path 4183" d="M98.826,52.252a2.983,2.983,0,0,1,2.685,1.66h1.3a4.121,4.121,0,0,0-3.988-2.781,4.039,4.039,0,1,0,0,8.072,4.13,4.13,0,0,0,3.943-2.659h-1.323a2.965,2.965,0,1,1-2.621-4.292" transform="translate(-36.354 -19.643)" fill="#003b71"/>
      <rect id="Rectangle_262" data-name="Rectangle 262" width="1.262" height="7.752" transform="translate(102.264 31.727)" fill="#003b71"/>
      <path id="Path_4184" data-name="Path 4184" d="M176.738,57.36l-4.379-5.842H171.1v7.752h1.215V53.424l4.379,5.847h1.256V51.519h-1.216Z" transform="translate(-65.734 -19.792)" fill="#003b71"/>
      <path id="Path_4185" data-name="Path 4185" d="M282.2,57.36l-4.379-5.842h-1.256v7.752h1.216V53.424l4.379,5.847h1.256V51.519H282.2Z" transform="translate(-106.248 -19.792)" fill="#b1b1b1"/>
      <path id="Path_4186" data-name="Path 4186" d="M186.843,51.518l-3.336,7.753h1.347l.936-2.3h3.478l.994,2.3H191.7l-3.555-7.753ZM186.175,56l.894-2.131a9.08,9.08,0,0,0,.409-1.237c.13.376.309.832.533,1.362L188.859,56Z" transform="translate(-70.499 -19.792)" fill="#003b71"/>
      <path id="Path_4187" data-name="Path 4187" d="M195.514,52.56h2.809v6.711h1.262V52.56h2.821V51.518h-6.892Z" transform="translate(-75.112 -19.792)" fill="#003b71"/>
      <path id="Path_4188" data-name="Path 4188" d="M289.529,52.56h2.809v6.711H293.6V52.56h2.82V51.518h-6.892Z" transform="translate(-111.23 -19.792)" fill="#b1b1b1"/>
      <path id="Path_4189" data-name="Path 4189" d="M269.454,52.577V51.535h-6.295v7.753h6.295V58.246h-5.033V55.727h4.418V54.685h-4.418V52.577Z" transform="translate(-101.099 -19.798)" fill="#b1b1b1"/>
      <path id="Path_4190" data-name="Path 4190" d="M308.808,52.577V51.535h-6.295v7.753h6.295V58.246h-5.033V55.727h4.417V54.685h-4.417V52.577Z" transform="translate(-116.218 -19.798)" fill="#b1b1b1"/>
      <rect id="Rectangle_263" data-name="Rectangle 263" width="1.262" height="7.752" transform="translate(128.508 31.727)" fill="#003b71"/>
      <path id="Path_4191" data-name="Path 4191" d="M233.04,57.36l-4.379-5.842h-1.256v7.752h1.216V53.424L233,59.271h1.256V51.519H233.04Z" transform="translate(-87.364 -19.792)" fill="#003b71"/>
      <path id="Path_4192" data-name="Path 4192" d="M34.4,20.377l.116.2h3.629l-.267-.573a16.919,16.919,0,1,0-.273,14.822l.3-.586H34.2l-.118.187a13.655,13.655,0,1,1,.32-14.053" transform="translate(-2.157 -3.925)" fill="#003b71"/>
      <path id="Path_4193" data-name="Path 4193" d="M32.826,23.549V35.667L24.718,23.549H21.844v17.42h2.915V28.84l8.107,12.129H35.74V23.549Z" transform="translate(-8.392 -9.047)" fill="#003b71"/>
      <path id="Path_4194" data-name="Path 4194" d="M20.4,0A23.2,23.2,0,0,0,.6,11.1l-.39.637h3.74l.125-.175a20.063,20.063,0,1,1-.384,22.729H0l.092.166A23.213,23.213,0,1,0,20.4,0" transform="translate(0 0)" fill="#b1b1b1"/>
      <path id="Path_4195" data-name="Path 4195" d="M320.356,70.614a1.951,1.951,0,0,1-.79-.345.66.66,0,0,1-.208-.509.641.641,0,0,1,.286-.547,1.275,1.275,0,0,1,.756-.2,1.233,1.233,0,0,1,.775.217.74.74,0,0,1,.273.632H321c0-.31-.2-.466-.6-.466s-.593.123-.593.368a.292.292,0,0,0,.108.243,2.313,2.313,0,0,0,.621.222,1.81,1.81,0,0,1,.73.334.66.66,0,0,1,.217.514.642.642,0,0,1-.289.552,1.381,1.381,0,0,1-.81.2,1.364,1.364,0,0,1-.823-.222.734.734,0,0,1-.3-.626h.45a.4.4,0,0,0,.179.34.859.859,0,0,0,.5.125.932.932,0,0,0,.485-.1.307.307,0,0,0,.163-.272.313.313,0,0,0-.15-.27,1.7,1.7,0,0,0-.529-.189m3.051.47.854-2.04h.547V71.79h-.461V69.929l-.807,1.861h-.261l-.834-1.927V71.79h-.459V69.045h.578Z" transform="translate(-122.653 -26.511)" fill="#b1b1b1"/>
    </g>
  </g>
  <rect id="Rectangle_260" data-name="Rectangle 260" width="0.535" height="46.425" transform="translate(50.676)" fill="#a2a2a2"/>
</svg>
