<svg xmlns="http://www.w3.org/2000/svg" xmlns:xlink="http://www.w3.org/1999/xlink" width="223.047" height="223.047" viewBox="0 0 223.047 223.047">
  <defs>
    <clipPath id="clip-path">
      <rect id="Rectangle_1488" data-name="Rectangle 1488" width="223.047" height="223.047" fill="none" stroke="#a2a2a2" stroke-linejoin="round" stroke-width="10"/>
    </clipPath>
  </defs>
  <g id="Group_2895" data-name="Group 2895" opacity="0.1">
    <g id="Group_2894" data-name="Group 2894" transform="translate(0 0)" clip-path="url(#clip-path)">
      <path id="Path_24520" data-name="Path 24520" d="M82.8,141.388H35.6a5,5,0,0,1-5-5.011l.052-23.968c.047-8.1-2.879-15.692-8.028-20.841a51.138,51.138,0,0,1-15.31-36.63,51.935,51.935,0,1,1,88.8,36.557,29.759,29.759,0,0,0-8.258,20.849L87.8,136.4A5,5,0,0,1,82.8,141.388Zm-42.191-10h37.2l.042-19.084a39.818,39.818,0,0,1,11.167-27.86A41.905,41.905,0,0,0,64.384,13.33a43.6,43.6,0,0,0-5.19-.312,41.946,41.946,0,0,0-41.878,41.92,41.228,41.228,0,0,0,12.36,29.537c7.048,7.048,11.042,17.236,10.979,27.974Z" transform="translate(52.278 34.032)" fill="#a2a2a2"/>
      <path id="Line_14" data-name="Line 14" d="M47.375,5H0A5,5,0,0,1-5,0,5,5,0,0,1,0-5H47.375a5,5,0,0,1,5,5A5,5,0,0,1,47.375,5Z" transform="translate(87.838 143.983)" fill="#a2a2a2"/>
      <path id="Line_15" data-name="Line 15" d="M47.375,5H0A5,5,0,0,1-5,0,5,5,0,0,1,0-5H47.375a5,5,0,0,1,5,5A5,5,0,0,1,47.375,5Z" transform="translate(87.838 156.802)" fill="#a2a2a2"/>
      <path id="Path_24521" data-name="Path 24521" d="M18.749,27.494H45.13a5,5,0,0,1,5,5c0,10.569-8.148,18.741-18.164,18.741A18.237,18.237,0,0,1,13.749,33.018C13.749,30.257,15.988,27.494,18.749,27.494Zm20.061,10H25.078a8.171,8.171,0,0,0,13.732,0Z" transform="translate(79.584 137.926)" fill="#a2a2a2"/>
      <path id="Path_24522" data-name="Path 24522" d="M52.416,80.108a5,5,0,0,1-5-5V45.142H44.2V75.108a5,5,0,0,1-10,0V45.142H31.018a13.449,13.449,0,0,1-9.463-3.925L14.4,34.065a13.379,13.379,0,0,1,18.923-18.92l6.965,6.965A13.294,13.294,0,0,1,44.2,31.572v3.57h3.211v-3.57a13.31,13.31,0,0,1,3.908-9.456L58.3,15.144a13.378,13.378,0,1,1,18.918,18.92L70.06,41.223A13.294,13.294,0,0,1,60.6,45.142H57.416V75.108A5,5,0,0,1,52.416,80.108Zm5-44.966H60.6a3.359,3.359,0,0,0,2.391-.99l7.159-7.159a3.378,3.378,0,1,0-4.777-4.777L58.4,29.182a3.368,3.368,0,0,0-.983,2.39ZM23.859,21.226A3.378,3.378,0,0,0,21.471,27l7.16,7.155a3.387,3.387,0,0,0,2.387.991H34.2v-3.57a3.359,3.359,0,0,0-.99-2.391L26.25,22.216A3.359,3.359,0,0,0,23.859,21.226Z" transform="translate(65.715 68.873)" fill="#a2a2a2"/>
      <path id="Path_24523" data-name="Path 24523" d="M128.206,222.182H89.594a12.661,12.661,0,0,1-12.647-12.647,2.765,2.765,0,0,0-1.981-2.588,104.427,104.427,0,0,1-11.415-4.7,3.2,3.2,0,0,0-1.385-.326,2.542,2.542,0,0,0-1.832.736,12.651,12.651,0,0,1-17.886,0l-27.3-27.3a12.668,12.668,0,0,1,0-17.886,2.773,2.773,0,0,0,.41-3.217,104.4,104.4,0,0,1-4.7-11.41,2.762,2.762,0,0,0-2.564-1.986A12.667,12.667,0,0,1-4.382,128.206V89.594A12.661,12.661,0,0,1,8.265,76.948a2.765,2.765,0,0,0,2.588-1.981,104.047,104.047,0,0,1,4.7-11.415,2.767,2.767,0,0,0-.406-3.213,12.669,12.669,0,0,1,0-17.89l27.3-27.3a12.651,12.651,0,0,1,17.883,0,2.545,2.545,0,0,0,1.835.739,3.2,3.2,0,0,0,1.385-.326,103.365,103.365,0,0,1,11.416-4.7,2.76,2.76,0,0,0,1.98-2.562A12.667,12.667,0,0,1,89.594-4.382h38.612A12.661,12.661,0,0,1,140.853,8.265a2.766,2.766,0,0,0,1.981,2.588,102.98,102.98,0,0,1,11.415,4.7,3.2,3.2,0,0,0,1.386.326,2.533,2.533,0,0,0,1.827-.732,12.651,12.651,0,0,1,17.89,0l27.3,27.3a12.667,12.667,0,0,1,0,17.883,2.774,2.774,0,0,0-.411,3.223,104.022,104.022,0,0,1,4.7,11.409,2.762,2.762,0,0,0,2.563,1.984,12.667,12.667,0,0,1,12.673,12.647v38.612a12.661,12.661,0,0,1-12.647,12.647,2.767,2.767,0,0,0-2.588,1.981,103.332,103.332,0,0,1-4.7,11.415,2.773,2.773,0,0,0,.41,3.217,12.667,12.667,0,0,1,0,17.883l-27.307,27.307a12.651,12.651,0,0,1-17.883,0,2.538,2.538,0,0,0-1.834-.739,3.2,3.2,0,0,0-1.386.326,104.035,104.035,0,0,1-11.412,4.7,2.758,2.758,0,0,0-1.984,2.558A12.668,12.668,0,0,1,128.206,222.182ZM62.167,191.919a13.258,13.258,0,0,1,5.743,1.326,94.363,94.363,0,0,0,10.313,4.247A12.785,12.785,0,0,1,86.948,209.5a2.657,2.657,0,0,0,2.647,2.678h38.612a2.65,2.65,0,0,0,2.647-2.647,12.8,12.8,0,0,1,8.729-12.045,93.99,93.99,0,0,0,10.308-4.245,13.261,13.261,0,0,1,5.745-1.326,12.484,12.484,0,0,1,8.906,3.669,2.72,2.72,0,0,0,3.74,0l27.3-27.3a2.653,2.653,0,0,0,0-3.743,12.807,12.807,0,0,1-2.339-14.646,93.307,93.307,0,0,0,4.245-10.308,12.791,12.791,0,0,1,12.019-8.73,2.655,2.655,0,0,0,2.673-2.647V89.594a2.65,2.65,0,0,0-2.647-2.647,12.8,12.8,0,0,1-12.045-8.729,93.992,93.992,0,0,0-4.245-10.308,12.806,12.806,0,0,1,2.343-14.651,2.652,2.652,0,0,0,0-3.74l-27.3-27.3a2.715,2.715,0,0,0-3.747,0,12.479,12.479,0,0,1-8.9,3.662,13.26,13.26,0,0,1-5.745-1.326,92.953,92.953,0,0,0-10.306-4.245,12.791,12.791,0,0,1-8.732-12.019,2.655,2.655,0,0,0-2.647-2.673H89.594a2.65,2.65,0,0,0-2.647,2.647,12.8,12.8,0,0,1-8.729,12.045A93.312,93.312,0,0,0,67.91,24.555a13.259,13.259,0,0,1-5.743,1.326,12.5,12.5,0,0,1-8.9-3.665,2.717,2.717,0,0,0-3.744,0l-27.3,27.3a2.654,2.654,0,0,0,0,3.747A12.8,12.8,0,0,1,24.555,67.91a94,94,0,0,0-4.247,10.311A12.786,12.786,0,0,1,8.3,86.948a2.657,2.657,0,0,0-2.678,2.647v38.612a2.65,2.65,0,0,0,2.647,2.647,12.8,12.8,0,0,1,12.045,8.729,94.342,94.342,0,0,0,4.246,10.308,12.807,12.807,0,0,1-2.339,14.647,2.654,2.654,0,0,0,0,3.747l27.3,27.3a2.715,2.715,0,0,0,3.747,0A12.5,12.5,0,0,1,62.167,191.919Z" transform="translate(2.623 2.622)" fill="#a2a2a2"/>
    </g>
  </g>
</svg>
