<svg xmlns="http://www.w3.org/2000/svg" xmlns:xlink="http://www.w3.org/1999/xlink" width="301.7" height="301.678" viewBox="0 0 301.7 301.678">
  <defs>
    <clipPath id="clip-path">
      <rect id="Rectangle_1487" data-name="Rectangle 1487" width="223.1" height="223.047" fill="none" stroke="#a2a2a2" stroke-linecap="round" stroke-linejoin="round" stroke-width="10"/>
    </clipPath>
  </defs>
  <g id="Group_2893" data-name="Group 2893" transform="translate(0 104.739) rotate(-28)" opacity="0.09" style="isolation: isolate">
    <g id="Group_2892" data-name="Group 2892" transform="translate(0 0)">
      <g id="Group_2891" data-name="Group 2891" clip-path="url(#clip-path)">
        <path id="Path_24516" data-name="Path 24516" d="M101.179,207.373A105.771,105.771,0,0,1,31.8,181.5a5,5,0,0,1,.289-7.782L85.93,133.532a35.766,35.766,0,0,1-17.086-17.091l-40.236,53.8a5,5,0,0,1-7.783.279c-36.234-41.83-33.908-105.263,5.295-144.41a106.126,106.126,0,0,1,144.459-5.29,5,5,0,0,1-.282,7.786L116.341,68.9a35.365,35.365,0,0,1,10.029,7.056,36.018,36.018,0,0,1,7.058,10.081l40.289-53.953A5,5,0,0,1,181.5,31.8c36.3,41.779,34,105.236-5.234,144.467A105.5,105.5,0,0,1,101.179,207.373Zm-57.97-29.48a96.091,96.091,0,0,0,125.984-8.7c34.046-34.046,37.388-88.232,8.7-125.986l-42.4,56.786a5,5,0,0,1-8.962-2.331,25.5,25.5,0,0,0-7.246-14.653A25.2,25.2,0,0,0,104.713,75.8a5,5,0,0,1-2.325-8.962l56.778-42.4A96.17,96.17,0,0,0,24.443,159.116l42.345-56.624a5,5,0,0,1,8.96,2.328A25.462,25.462,0,0,0,97.56,126.633a5,5,0,0,1,2.324,8.962Z" transform="translate(10.413 10.306)" fill="#a2a2a2"/>
        <path id="Path_24517" data-name="Path 24517" d="M30.58,66.241A35.6,35.6,0,0,1,5.454,5.422,35.42,35.42,0,0,1,35.515-4.65,35.5,35.5,0,0,1,65.9,25.757,35.618,35.618,0,0,1,30.58,66.241ZM30.555,5a25.344,25.344,0,0,0-18.03,7.494A25.613,25.613,0,1,0,55.99,27.132,25.5,25.5,0,0,0,34.14,5.255,25.406,25.406,0,0,0,30.555,5Z" transform="translate(80.976 80.862)" fill="#a2a2a2"/>
        <path id="Path_24518" data-name="Path 24518" d="M103.278-5a4.992,4.992,0,0,1,3.538,1.466A5,5,0,0,1,107.283,3L76.348,44.35l-46.24,61.921a5,5,0,0,1-8.962-2.331A25.5,25.5,0,0,0,13.9,89.287,25.2,25.2,0,0,0-.666,82.079a5,5,0,0,1-4.173-3.7,5,5,0,0,1,1.848-5.262L100.288-4.006A4.987,4.987,0,0,1,103.278-5ZM28.048,92.316,78.557,24.7l-67.6,50.477A35.365,35.365,0,0,1,20.99,82.235,36.018,36.018,0,0,1,28.048,92.316Z" transform="translate(115.793 4.028)" fill="#a2a2a2"/>
        <path id="Path_24519" data-name="Path 24519" d="M77.177-5a5,5,0,0,1,1.257.161,5,5,0,0,1,3.7,4.173A25.219,25.219,0,0,0,89.36,13.919a25.219,25.219,0,0,0,14.586,7.227,5,5,0,0,1,2.324,8.962L44.453,76.243,2.993,107.231a5,5,0,0,1-6.529-.469A5,5,0,0,1-4,100.232L26.984,58.77,73.173-2.994A5,5,0,0,1,77.177-5ZM92.315,28.045A35.371,35.371,0,0,1,82.289,20.99a35.37,35.37,0,0,1-7.06-10.036L24.713,78.513Z" transform="translate(4.028 115.793)" fill="#a2a2a2"/>
        <path id="Line_8" data-name="Line 8" d="M0,26.354a5,5,0,0,1-5-5V0A5,5,0,0,1,0-5,5,5,0,0,1,5,0V21.354A5,5,0,0,1,0,26.354Z" transform="translate(111.594 32.422)" fill="#a2a2a2"/>
        <path id="Line_9" data-name="Line 9" d="M0,26.354a5,5,0,0,1-5-5V0A5,5,0,0,1,0-5,5,5,0,0,1,5,0V21.354A5,5,0,0,1,0,26.354Z" transform="translate(111.594 167.406)" fill="#a2a2a2"/>
        <path id="Line_10" data-name="Line 10" d="M21.354,5H0A5,5,0,0,1-5,0,5,5,0,0,1,0-5H21.354a5,5,0,0,1,5,5A5,5,0,0,1,21.354,5Z" transform="translate(168.41 110.591)" fill="#a2a2a2"/>
        <path id="Line_11" data-name="Line 11" d="M21.354,5H0A5,5,0,0,1-5,0,5,5,0,0,1,0-5H21.354a5,5,0,0,1,5,5A5,5,0,0,1,21.354,5Z" transform="translate(33.426 110.591)" fill="#a2a2a2"/>
        <path id="Line_12" data-name="Line 12" d="M15.1,20.1a4.984,4.984,0,0,1-3.536-1.464l-15.1-15.1a5,5,0,0,1,0-7.071,5,5,0,0,1,7.071,0l15.1,15.1A5,5,0,0,1,15.1,20.1Z" transform="translate(151.766 150.763)" fill="#a2a2a2"/>
        <path id="Line_13" data-name="Line 13" d="M15.1,20.1a4.984,4.984,0,0,1-3.536-1.464l-15.1-15.1a5,5,0,0,1,0-7.071,5,5,0,0,1,7.071,0l15.1,15.1A5,5,0,0,1,15.1,20.1Z" transform="translate(56.318 55.315)" fill="#a2a2a2"/>
      </g>
    </g>
  </g>
</svg>
