<svg xmlns="http://www.w3.org/2000/svg" xmlns:xlink="http://www.w3.org/1999/xlink" width="79.356" height="90.393" viewBox="0 0 79.356 90.393">
  <defs>
    <clipPath id="clip-path">
      <rect id="Rectangle_1683" data-name="Rectangle 1683" width="32.009" height="54.605" fill="none"/>
    </clipPath>
  </defs>
  <g id="Group_3637" data-name="Group 3637" transform="translate(-601.309 -731.106)">
    <path id="Path_26180" data-name="Path 26180" d="M79.356,66.024a3.538,3.538,0,0,1-1.76,3.069L41.586,90.03a3.536,3.536,0,0,1-3.54.013L1.905,69.329A3.537,3.537,0,0,1,.127,66.271L0,24.606a3.536,3.536,0,0,1,1.756-3.062L37.774.6a3.538,3.538,0,0,1,3.537-.01L77.452,21.3a3.541,3.541,0,0,1,1.777,3.062Z" transform="translate(601.309 730.988)" fill="#94cc00" opacity="0.3"/>
    <g id="Group_3472" data-name="Group 3472" transform="translate(624.235 749)">
      <g id="Group_3471" data-name="Group 3471" transform="translate(0 0)" clip-path="url(#clip-path)">
        <path id="Path_25783" data-name="Path 25783" d="M20.165,20.553H12.08A2.256,2.256,0,0,1,10.54,19.7l-.083-.083L.4,3.259A1.841,1.841,0,0,1,.383.98,1.92,1.92,0,0,1,2.328,0h7.807a2.36,2.36,0,0,1,.892.141,1.453,1.453,0,0,1,.908,1.078l9.875,16.072a1.839,1.839,0,0,1-.1,2.413A2.257,2.257,0,0,1,20.165,20.553Zm-7.936-2h7.794c.04-.033.088-.078.138-.126L10.068,2H2.328C2.254,2,2.17,2,2.1,2L2.1,2.014l-.051.1,9.991,16.26C12.1,18.438,12.175,18.507,12.23,18.553Z" transform="translate(-0.158 -0.158)" fill="#011e41"/>
        <path id="Path_25784" data-name="Path 25784" d="M24.772,19.521l-1.7-1.047L33.112,2.126c-.049-.048-.1-.093-.138-.126H25.18c-.059.049-.138.125-.208.2L19.838,9.828,18.178,8.711,23.422.917,23.49.849A2.256,2.256,0,0,1,25.031,0h8.085a2.257,2.257,0,0,1,1.549.849,1.788,1.788,0,0,1,.5,1.277,1.79,1.79,0,0,1-.405,1.137Z" transform="translate(-3 -0.158)" fill="#011e41"/>
        <path id="Path_25785" data-name="Path 25785" d="M16.143,59.38A15.332,15.332,0,0,1,.717,43.954,15.821,15.821,0,0,1,5.2,32.892a15.175,15.175,0,0,1,10.945-4.634A15.4,15.4,0,0,1,22.226,29.5a15.95,15.95,0,0,1,8.369,8.368,15.4,15.4,0,0,1,1.246,6.082A15.174,15.174,0,0,1,27.206,54.9,15.823,15.823,0,0,1,16.143,59.38Zm0-29.122a13.579,13.579,0,0,0-13.426,13.7A13.284,13.284,0,0,0,16.143,57.38a13.562,13.562,0,1,0,0-27.122Z" transform="translate(-0.271 -4.618)" fill="#011e41"/>
        <path id="Path_25786" data-name="Path 25786" d="M12.042,53.83a.971.971,0,0,1-.557-.278c-.558-.277-.558-.832-.558-1.388l1.672-5L8.142,43.837c-.279-.277-.279-.555-.279-1.11.279-.555.558-.833,1.115-.833H14.27l1.672-5c.279-.555.558-.832,1.114-.832s.836.277,1.114.832l1.672,5h5.572a.888.888,0,0,1,.835.833c.279.555,0,.833-.279,1.11l-4.457,3.332,1.672,5a1.218,1.218,0,0,1-.279,1.388,1.246,1.246,0,0,1-1.393,0l-4.458-3.331L12.6,53.552a.974.974,0,0,1-.558.278m.279-9.715,2.228,1.666c.558.277.558.832.558,1.388l-.836,2.5L16.5,48a1.249,1.249,0,0,1,1.393,0l2.228,1.666-.835-2.5a1.218,1.218,0,0,1,.278-1.388l2.229-1.666H19.007c-.558,0-.836-.278-1.114-.833l-.836-2.5-.835,2.5c0,.555-.558.833-1.114.833Z" transform="translate(-1.241 -5.692)" fill="#95c93d" fill-rule="evenodd"/>
        <path id="Line_24" data-name="Line 24" d="M1,5.7H-1V0H1Z" transform="translate(14.259 19.395)" fill="#011e41"/>
        <path id="Line_25" data-name="Line 25" d="M1,5.7H-1V0H1Z" transform="translate(19.245 19.395)" fill="#011e41"/>
      </g>
    </g>
  </g>
</svg>
