<svg id="Component_4_1" data-name="Component 4 – 1" xmlns="http://www.w3.org/2000/svg" xmlns:xlink="http://www.w3.org/1999/xlink" width="229.308" height="46.425" viewBox="0 0 229.308 46.425">
  <defs>
    <clipPath id="clip-path">
      <rect id="Rectangle_255" data-name="Rectangle 255" width="229.308" height="46.425" fill="none"/>
    </clipPath>
    <clipPath id="clip-path-2">
      <path id="Path_4163" data-name="Path 4163" d="M44.343,19.431a5.077,5.077,0,0,0-5.061,5.062V34.909h11.5a3.981,3.981,0,0,0,3.981-3.981V23.412a3.981,3.981,0,0,0-3.981-3.981Z" transform="translate(-39.282 -19.431)" fill="none"/>
    </clipPath>
    <linearGradient id="linear-gradient" x1="-2.021" y1="2" x2="-1.969" y2="2" gradientUnits="objectBoundingBox">
      <stop offset="0" stop-color="#003b71"/>
      <stop offset="1" stop-color="#011335"/>
    </linearGradient>
    <clipPath id="clip-path-4">
      <path id="Path_4165" data-name="Path 4165" d="M2.1,19.431A2.105,2.105,0,0,0,0,21.536V32.8a2.1,2.1,0,0,0,2.1,2.1H9.733a6.977,6.977,0,0,0,4.932-2.042l0,0a8.053,8.053,0,0,0,0-11.388,6.978,6.978,0,0,0-4.932-2.043Z" transform="translate(0 -19.431)" fill="none"/>
    </clipPath>
    <linearGradient id="linear-gradient-2" y1="2" x2="0.045" y2="2" gradientUnits="objectBoundingBox">
      <stop offset="0" stop-color="#011335"/>
      <stop offset="1" stop-color="#003b71"/>
    </linearGradient>
  </defs>
  <g id="Group_518" data-name="Group 518">
    <g id="Group_504" data-name="Group 504" clip-path="url(#clip-path)">
      <path id="Path_4150" data-name="Path 4150" d="M82.13,8.436H76.513a.578.578,0,0,1-.578-.578V4.542a.578.578,0,0,1,.578-.578h16.04a.578.578,0,0,1,.578.578V7.857a.578.578,0,0,1-.578.578H86.936V24.679a.6.6,0,0,1-.578.578h-3.65a.6.6,0,0,1-.578-.578Z" transform="translate(-15.475 -0.808)" fill="#011e41"/>
      <path id="Path_4151" data-name="Path 4151" d="M109.359,4.542a.578.578,0,0,1,.578-.578h9.1a6.615,6.615,0,0,1,6.632,6.57,6.675,6.675,0,0,1-4.5,6.114l4.167,7.726a.576.576,0,0,1-.518.882h-4.045a.56.56,0,0,1-.487-.274l-4.046-8.06h-2.1v7.756a.6.6,0,0,1-.578.578h-3.619a.577.577,0,0,1-.578-.578Zm9.277,8.517a2.439,2.439,0,0,0,2.312-2.433,2.331,2.331,0,0,0-2.312-2.312h-4.5v4.745Z" transform="translate(-22.286 -0.808)" fill="#011e41"/>
      <path id="Path_4152" data-name="Path 4152" d="M141.433,4.542a.6.6,0,0,1,.578-.578h3.741a.579.579,0,0,1,.578.578V16.861a3.772,3.772,0,1,0,7.543,0V4.542a.578.578,0,0,1,.578-.578h3.741a.6.6,0,0,1,.578.578V17.105a8.671,8.671,0,0,1-17.337,0Z" transform="translate(-28.823 -0.808)" fill="#011e41"/>
      <path id="Path_4153" data-name="Path 4153" d="M175,22.29l1.429-2.525a.783.783,0,0,1,1.033-.182,9.1,9.1,0,0,0,4.321,1.672,1.9,1.9,0,0,0,2.1-1.825c0-1.278-1.065-2.251-3.132-3.073-2.616-1.033-5.9-3.072-5.9-6.722,0-3.012,2.342-6.053,7.026-6.053a11.312,11.312,0,0,1,6.51,2.28.77.77,0,0,1,.182.973L187.016,9.18c-.213.334-.76.608-1.035.395-.273-.15-2.494-1.824-4.349-1.824A1.764,1.764,0,0,0,179.715,9.3c0,1.126.913,1.978,3.315,2.95,2.373.944,6.144,2.8,6.144,6.936,0,3.134-2.706,6.3-7.178,6.3a9.653,9.653,0,0,1-6.845-2.343c-.3-.3-.395-.425-.151-.851" transform="translate(-35.633 -0.731)" fill="#011e41"/>
      <path id="Path_4154" data-name="Path 4154" d="M208.952,8.436h-5.617a.578.578,0,0,1-.578-.578V4.542a.578.578,0,0,1,.578-.578h16.04a.578.578,0,0,1,.578.578V7.857a.578.578,0,0,1-.578.578h-5.617V24.679a.6.6,0,0,1-.578.578h-3.65a.6.6,0,0,1-.578-.578Z" transform="translate(-41.32 -0.808)" fill="#011e41"/>
      <path id="Path_4155" data-name="Path 4155" d="M234.986,4.542a.578.578,0,0,1,.578-.578h12.593a.579.579,0,0,1,.578.578V7.857a.578.578,0,0,1-.578.578h-8.426v3.772h6.936a.6.6,0,0,1,.578.578V16.1a.577.577,0,0,1-.578.578h-6.936v4.106h8.426a.578.578,0,0,1,.578.578v3.315a.578.578,0,0,1-.578.578H235.564a.577.577,0,0,1-.578-.578Z" transform="translate(-47.888 -0.808)" fill="#011e41"/>
      <path id="Path_4156" data-name="Path 4156" d="M264.582,4.542a.572.572,0,0,1,.547-.578h7.421a10.647,10.647,0,1,1,0,21.293h-7.421a.571.571,0,0,1-.547-.578Zm7.664,16.212a5.92,5.92,0,0,0,5.932-6.175,5.913,5.913,0,0,0-5.932-6.144h-2.92V20.754Z" transform="translate(-53.919 -0.808)" fill="#011e41"/>
      <path id="Path_4157" data-name="Path 4157" d="M81.436,37.658a.367.367,0,0,1,.345-.268h.307a.365.365,0,0,1,.326.211l3.795,10.558H86.3L90.04,37.6a.365.365,0,0,1,.326-.211h.307a.368.368,0,0,1,.346.268L93.49,50.535c.057.268-.057.46-.345.46h-.767a.4.4,0,0,1-.345-.268l-1.705-9.869h-.076L86.725,50.976a.388.388,0,0,1-.326.212h-.345a.388.388,0,0,1-.326-.212L82.165,40.858h-.077l-1.667,9.869a.374.374,0,0,1-.345.268h-.767c-.287,0-.4-.192-.345-.46Z" transform="translate(-16.089 -7.62)" fill="#0083c1"/>
      <path id="Path_4158" data-name="Path 4158" d="M106.21,37.994a.364.364,0,0,1,.364-.364h7.55a.364.364,0,0,1,.364.364v.556a.363.363,0,0,1-.364.364h-6.439V43.59h5.5a.376.376,0,0,1,.364.364v.556a.364.364,0,0,1-.364.365h-5.5V49.76h6.439a.363.363,0,0,1,.364.364v.556a.363.363,0,0,1-.364.364h-7.55a.364.364,0,0,1-.364-.364Z" transform="translate(-21.645 -7.669)" fill="#0083c1"/>
      <path id="Path_4159" data-name="Path 4159" d="M125.75,37.994a.361.361,0,0,1,.345-.364h4.293a6.707,6.707,0,1,1,0,13.415h-4.293a.361.361,0,0,1-.345-.365Zm4.331,11.728a5.394,5.394,0,1,0,0-10.789h-2.874V49.722Z" transform="translate(-25.627 -7.669)" fill="#0083c1"/>
      <rect id="Rectangle_254" data-name="Rectangle 254" width="1.494" height="13.414" rx="0.457" transform="translate(118.653 29.961)" fill="#0083c1"/>
      <path id="Path_4160" data-name="Path 4160" d="M166.793,37.39a6.737,6.737,0,0,1,4.637,1.782.37.37,0,0,1,.02.536l-.518.518c-.154.192-.307.173-.5-.018a5.8,5.8,0,0,0-3.659-1.438,5.512,5.512,0,0,0,0,11.02,5.574,5.574,0,0,0,3.659-1.438.362.362,0,0,1,.46-.057l.574.518a.365.365,0,0,1-.018.518,6.578,6.578,0,0,1-4.657,1.858,6.9,6.9,0,1,1,0-13.8" transform="translate(-32.581 -7.62)" fill="#0083c1"/>
      <path id="Path_4161" data-name="Path 4161" d="M181.091,50.5l5.825-12.9a.344.344,0,0,1,.326-.21h.192a.344.344,0,0,1,.326.21l5.787,12.9a.338.338,0,0,1-.326.5h-.766a.353.353,0,0,1-.326-.21l-1.417-3.163h-6.8l-1.4,3.163a.351.351,0,0,1-.326.21h-.766a.338.338,0,0,1-.326-.5m9.1-4.063c-.939-2.088-1.858-4.2-2.8-6.285h-.154l-2.8,6.285Z" transform="translate(-36.897 -7.62)" fill="#0083c1"/>
      <path id="Path_4162" data-name="Path 4162" d="M204.661,37.994a.364.364,0,0,1,.364-.364h.747a.377.377,0,0,1,.365.364V49.76h5.519a.364.364,0,0,1,.364.364v.556a.364.364,0,0,1-.364.364h-6.631a.364.364,0,0,1-.364-.364Z" transform="translate(-41.708 -7.669)" fill="#0083c1"/>
    </g>
  </g>
  <g id="Group_519" data-name="Group 519" transform="translate(31.277 15.471)">
    <g id="Group_506" data-name="Group 506" clip-path="url(#clip-path-2)">
      <rect id="Rectangle_256" data-name="Rectangle 256" width="15.478" height="15.478" transform="translate(0 0)" fill="url(#linear-gradient)"/>
    </g>
  </g>
  <g id="Group_520" data-name="Group 520">
    <g id="Group_508" data-name="Group 508" clip-path="url(#clip-path)">
      <path id="Path_4164" data-name="Path 4164" d="M21.507,34.429a6.124,6.124,0,0,0-1.663,4.484V46.4a3.981,3.981,0,0,0,3.981,3.98h7.516a3.981,3.981,0,0,0,3.98-3.98V24.493a5.075,5.075,0,0,1,5.061-5.061H39.8a6.635,6.635,0,0,0-4.855,2.011Z" transform="translate(-4.044 -3.96)" fill="#0083c1" fill-rule="evenodd"/>
    </g>
  </g>
  <g id="Group_521" data-name="Group 521" transform="translate(0 15.471)">
    <g id="Group_510" data-name="Group 510" clip-path="url(#clip-path-4)">
      <rect id="Rectangle_258" data-name="Rectangle 258" width="17.811" height="15.477" transform="translate(0 0)" fill="url(#linear-gradient-2)"/>
    </g>
  </g>
  <g id="Group_522" data-name="Group 522">
    <g id="Group_512" data-name="Group 512" clip-path="url(#clip-path)">
      <path id="Path_4166" data-name="Path 4166" d="M35.322,9.735V2.1A2.1,2.1,0,0,0,33.217,0H21.949a2.1,2.1,0,0,0-2.1,2.1V9.733a6.975,6.975,0,0,0,2.043,4.932l0,0a8.052,8.052,0,0,0,11.387,0,6.972,6.972,0,0,0,2.044-4.932" transform="translate(-4.044 0)" fill="#0083c1"/>
      <path id="Path_4167" data-name="Path 4167" d="M218.956,41.034c.049-.072.093-.154.143-.225a.123.123,0,0,1,.186-.044,1.614,1.614,0,0,0,.877.377.552.552,0,0,0,.619-.509c0-.33-.284-.537-.827-.762-.559-.236-1-.526-1-1.162a1.07,1.07,0,0,1,1.2-1.014,1.854,1.854,0,0,1,1.013.323.13.13,0,0,1,.033.186c-.044.065-.093.143-.138.208a.128.128,0,0,1-.191.055,1.68,1.68,0,0,0-.74-.274c-.46,0-.619.291-.619.493,0,.313.241.5.7.69.636.258,1.178.56,1.178,1.228a1.119,1.119,0,0,1-1.222,1.036,1.772,1.772,0,0,1-1.178-.433.115.115,0,0,1-.033-.175" transform="translate(-44.616 -7.683)" fill="#0083c1"/>
      <path id="Path_4168" data-name="Path 4168" d="M223.319,37.78a.112.112,0,0,1,.1-.083h.088a.115.115,0,0,1,.094.061l1.144,2.8h.021l1.14-2.8A.105.105,0,0,1,226,37.7h.088a.113.113,0,0,1,.1.083l.673,3.682a.093.093,0,0,1-.1.126H226.4a.115.115,0,0,1-.1-.076l-.406-2.45h-.016l-.986,2.521a.1.1,0,0,1-.094.061h-.1a.1.1,0,0,1-.093-.061l-.991-2.521h-.022l-.394,2.45a.108.108,0,0,1-.1.076h-.357a.1.1,0,0,1-.1-.126Z" transform="translate(-45.371 -7.683)" fill="#0083c1"/>
    </g>
  </g>
</svg>
