<?xml version="1.0" encoding="UTF-8"?>
<svg id="Layer_2" data-name="Layer 2" xmlns="http://www.w3.org/2000/svg" viewBox="0 0 457.04 130.49">
  <defs>
    <style>
      .cls-1 {
        fill: #0083c1;
      }

      .cls-2 {
        fill: #011e41;
      }

      .cls-3 {
        fill: #93d500;
      }

      .cls-4 {
        fill: #58595b;
      }
    </style>
  </defs>
  <g id="Layer_1-2" data-name="Layer 1">
    <g>
      <g>
        <polygon class="cls-2" points="72.63 43.64 72.63 127.37 108.88 64.55 72.63 43.64"/>
        <polygon class="cls-1" points="0 1.73 72.63 127.37 72.63 43.64 0 1.73"/>
        <polygon class="cls-3" points="72.63 1.67 72.63 43.64 108.88 64.55 145.16 1.67 72.63 1.67"/>
      </g>
      <g>
        <g>
          <path class="cls-2" d="m171.73,1.66l18.08,50.74L208.17,1.66h11.9l-25,65.88h-10.7L159.28,1.66h12.46Z"/>
          <path class="cls-2" d="m253.66,69.2c-4.74,0-9-.78-12.78-2.35-3.78-1.57-7.03-3.83-9.73-6.78-2.71-2.95-4.78-6.56-6.23-10.84-1.45-4.27-2.17-9.12-2.17-14.53s.74-10.27,2.21-14.58c1.48-4.3,3.57-7.95,6.27-10.93,2.71-2.98,5.97-5.26,9.78-6.83,3.81-1.57,8.03-2.35,12.64-2.35s8.92.78,12.73,2.35c3.81,1.57,7.04,3.83,9.69,6.78,2.64,2.95,4.69,6.57,6.14,10.84,1.44,4.28,2.17,9.12,2.17,14.53s-.71,10.35-2.12,14.62c-1.42,4.28-3.45,7.91-6.09,10.89-2.65,2.98-5.86,5.26-9.64,6.83-3.78,1.57-8.07,2.35-12.87,2.35Zm-.09-9.6c6.33,0,11.13-2.23,14.39-6.69,3.26-4.46,4.89-10.56,4.89-18.31,0-3.87-.41-7.35-1.24-10.43-.83-3.07-2.05-5.69-3.64-7.84-1.6-2.15-3.6-3.81-6-4.98-2.4-1.17-5.2-1.75-8.4-1.75s-6,.58-8.4,1.75c-2.4,1.17-4.41,2.83-6.04,4.98-1.63,2.15-2.85,4.77-3.64,7.84-.8,3.08-1.2,6.55-1.2,10.43,0,7.75,1.61,13.86,4.84,18.31,3.23,4.46,8.04,6.69,14.44,6.69Z"/>
          <path class="cls-2" d="m296.19,1.66h11.16v65.88h-11.16V1.66Z"/>
          <path class="cls-2" d="m376.46,45.3c-.37,3.45-1.2,6.61-2.49,9.5-1.29,2.89-3.08,5.41-5.35,7.56-2.28,2.15-5.04,3.83-8.3,5.03-3.26,1.2-7.04,1.8-11.35,1.8-4.74,0-8.96-.8-12.69-2.4-3.72-1.6-6.86-3.89-9.41-6.87-2.55-2.98-4.49-6.61-5.81-10.89-1.32-4.27-1.98-9.06-1.98-14.35s.72-10.27,2.17-14.58c1.44-4.3,3.49-7.95,6.14-10.93,2.64-2.98,5.81-5.26,9.5-6.83,3.69-1.57,7.75-2.35,12.18-2.35,4.12,0,7.69.52,10.7,1.57,3.01,1.05,5.58,2.54,7.7,4.47,2.12,1.94,3.81,4.26,5.07,6.97,1.26,2.71,2.2,5.72,2.81,9.04l-10.98,1.57c-.49-2.21-1.11-4.18-1.85-5.9s-1.71-3.18-2.91-4.38-2.66-2.12-4.38-2.77c-1.72-.65-3.78-.97-6.18-.97-2.95,0-5.57.58-7.84,1.75-2.28,1.17-4.2,2.85-5.77,5.03-1.57,2.18-2.75,4.81-3.55,7.89-.8,3.08-1.2,6.52-1.2,10.33s.41,7.35,1.25,10.43c.83,3.08,2.04,5.71,3.64,7.89,1.6,2.18,3.52,3.85,5.77,4.98,2.24,1.14,4.81,1.71,7.7,1.71,2.58,0,4.78-.34,6.6-1.01,1.81-.68,3.34-1.63,4.57-2.86s2.2-2.72,2.91-4.47c.71-1.75,1.21-3.74,1.52-5.95h11.81Z"/>
          <path class="cls-2" d="m386.97,1.66h43.82v9.6h-32.66v17.53h30.82v9.69h-30.82v19.47h34.41l-1.29,9.6h-44.29V1.66Z"/>
        </g>
        <g>
          <path class="cls-4" d="m171.35,86.57h1.46l5.04,13.44,5.1-13.44h1.33l-5.77,14.87h-1.38l-5.79-14.87Z"/>
          <path class="cls-4" d="m185.81,86.57h1.38v1.81h-1.38v-1.81Zm.08,4.15h1.21v10.73h-1.21v-10.73Z"/>
          <path class="cls-4" d="m190.08,90.72h1.21v1.75c.43-.61.92-1.08,1.48-1.42.56-.33,1.15-.5,1.77-.5.15,0,.3,0,.43,0,.13,0,.27.02.43.05l-.15,1.15c-.25-.04-.48-.06-.69-.06-.36,0-.73.07-1.1.2-.38.13-.73.36-1.06.68-.32.28-.58.61-.79,1.01-.21.4-.31.86-.31,1.41v6.46h-1.21v-10.73Z"/>
          <path class="cls-4" d="m198.23,91.72h-1.67v-1h1.67v-2.96h1.21v2.96h3.04v1h-3.04v7.02c0,.53.11.97.33,1.34s.61.55,1.17.55c.36,0,.67-.03.92-.08.25-.06.47-.12.67-.19l.25.98c-.21.08-.46.16-.76.23-.3.07-.69.1-1.18.1-.61,0-1.09-.1-1.44-.31-.35-.21-.61-.48-.78-.82s-.28-.73-.32-1.18c-.04-.44-.06-.91-.06-1.4v-6.25Z"/>
          <path class="cls-4" d="m204.45,90.72h1.21v6.81c0,1.12.18,1.93.53,2.43.35.49.96.74,1.82.74.43,0,.86-.08,1.29-.25.43-.17.84-.42,1.23-.75.4-.36.71-.73.92-1.12s.31-.91.31-1.57v-6.29h1.21v10.73h-1.21v-1.75c-1.12,1.39-2.42,2.08-3.9,2.08-1.22,0-2.1-.33-2.62-1-.53-.67-.79-1.64-.79-2.92v-7.15Z"/>
          <path class="cls-4" d="m222.72,99.93c-.18.22-.4.44-.65.66-.25.22-.53.41-.85.57-.32.17-.67.3-1.05.4-.38.1-.8.14-1.26.14-1.12,0-2.03-.27-2.71-.81-.68-.54-1.02-1.35-1.02-2.42,0-.72.15-1.31.46-1.77.31-.46.71-.82,1.22-1.08.51-.26,1.08-.45,1.73-.55.65-.1,1.32-.17,2.01-.2l2.08-.08v-.33c0-1.06-.21-1.83-.61-2.31-.41-.49-1.14-.73-2.2-.73-.51,0-.95.04-1.3.13-.35.08-.65.21-.89.37-.24.16-.42.35-.56.56-.14.22-.24.45-.31.72l-1.1-.17c.39-1.75,1.79-2.62,4.21-2.62.75,0,1.38.09,1.9.27.51.18.93.44,1.24.78s.54.76.68,1.25c.14.49.21,1.06.21,1.7v7.06h-1.21v-1.52Zm-.02-4.19l-1.98.08c-.81.03-1.48.1-2.02.22-.54.12-.98.28-1.31.5-.33.22-.57.48-.72.79-.15.31-.22.68-.22,1.11,0,.65.18,1.18.55,1.57s1.01.59,1.93.59c.46,0,.91-.05,1.36-.16.45-.1.82-.27,1.11-.51.25-.18.45-.35.61-.52.16-.17.29-.35.4-.55s.18-.43.22-.68c.04-.25.06-.54.06-.88v-1.58Z"/>
          <path class="cls-4" d="m226.89,86.57h1.21v14.87h-1.21v-14.87Z"/>
          <path class="cls-4" d="m242.16,101.82c-.96,0-1.85-.16-2.68-.49-.83-.33-1.54-.82-2.14-1.47-.6-.65-1.07-1.47-1.41-2.44-.34-.97-.51-2.1-.51-3.38s.17-2.41.51-3.39c.34-.98.81-1.8,1.42-2.46.6-.66,1.32-1.16,2.14-1.5.82-.34,1.71-.51,2.67-.51s1.85.16,2.67.49c.82.33,1.52.82,2.11,1.47.59.65,1.06,1.46,1.4,2.43s.51,2.09.51,3.36-.17,2.43-.5,3.41c-.33.98-.79,1.8-1.39,2.46-.59.66-1.3,1.16-2.11,1.5-.82.34-1.72.51-2.69.51Zm0-1.12c.88,0,1.65-.16,2.31-.49s1.23-.78,1.68-1.37c.45-.59.79-1.3,1.02-2.11.23-.82.34-1.72.34-2.71s-.12-1.89-.35-2.71c-.24-.82-.58-1.52-1.03-2.11-.45-.59-1.01-1.05-1.68-1.37s-1.43-.49-2.29-.49c-.9,0-1.69.16-2.36.49-.67.33-1.23.78-1.68,1.37s-.78,1.3-1.01,2.11c-.23.82-.34,1.72-.34,2.71s.11,1.89.33,2.71c.22.82.56,1.52,1.01,2.11.45.59,1.01,1.05,1.69,1.37.67.33,1.46.49,2.36.49Z"/>
          <path class="cls-4" d="m251.47,90.72h1.21v1.6c.49-.61,1.02-1.09,1.6-1.43.58-.34,1.29-.51,2.12-.51s1.48.14,2.05.43c.58.28,1.06.68,1.44,1.18.38.5.67,1.09.85,1.77.19.68.28,1.42.28,2.21,0,.92-.12,1.73-.34,2.45-.23.72-.55,1.32-.97,1.82-.42.5-.92.88-1.51,1.15-.59.26-1.25.4-1.99.4-.65,0-1.28-.13-1.89-.4-.6-.26-1.16-.73-1.66-1.4v5.5h-1.21v-14.77Zm1.17,5.79c0,.47.02.89.07,1.24.05.35.13.67.25.95.12.28.27.53.45.74s.4.41.67.59c.32.25.65.43.98.54.33.11.71.17,1.15.17.51,0,.99-.09,1.42-.26.43-.17.8-.45,1.11-.82s.56-.86.74-1.47c.18-.6.27-1.34.27-2.2s-.1-1.6-.3-2.19c-.2-.58-.46-1.05-.78-1.41-.32-.35-.68-.6-1.08-.75-.4-.15-.8-.22-1.19-.22-.43,0-.82.05-1.17.14-.35.1-.69.28-1.04.54-.49.36-.86.82-1.14,1.36s-.41,1.25-.41,2.09v.94Z"/>
          <path class="cls-4" d="m272.58,98.64c-.17.93-.61,1.69-1.33,2.27-.72.58-1.75.88-3.08.88-1.54,0-2.74-.5-3.59-1.49-.85-.99-1.28-2.36-1.28-4.09,0-.94.12-1.78.36-2.5.24-.72.58-1.33,1.02-1.82.44-.49.95-.86,1.54-1.11s1.24-.38,1.95-.38c.83,0,1.54.14,2.13.41.58.27,1.06.64,1.43,1.1.37.46.64,1.02.8,1.66.17.64.25,1.33.25,2.06v.77h-8.25c0,.61.08,1.18.23,1.72.15.53.38,1,.69,1.4.31.4.69.71,1.15.94s.99.34,1.58.34c.54,0,1-.05,1.38-.16.38-.1.69-.25.94-.45.25-.19.45-.42.59-.68.15-.26.26-.54.34-.86h1.17Zm-1.06-3.29c0-.58-.06-1.12-.19-1.6-.13-.49-.32-.91-.58-1.26-.26-.35-.61-.63-1.04-.82-.43-.19-.94-.29-1.54-.29-1.04,0-1.88.33-2.5.98-.62.65-1,1.65-1.12,3h6.98Z"/>
          <path class="cls-4" d="m275.29,90.72h1.21v1.75c.43-.61.92-1.08,1.48-1.42.56-.33,1.15-.5,1.77-.5.15,0,.3,0,.43,0,.13,0,.27.02.43.05l-.15,1.15c-.25-.04-.48-.06-.69-.06-.36,0-.73.07-1.1.2-.38.13-.73.36-1.06.68-.32.28-.58.61-.79,1.01-.21.4-.31.86-.31,1.41v6.46h-1.21v-10.73Z"/>
          <path class="cls-4" d="m288.93,99.93c-.18.22-.4.44-.65.66-.25.22-.53.41-.85.57-.32.17-.67.3-1.05.4-.38.1-.8.14-1.26.14-1.12,0-2.03-.27-2.71-.81-.68-.54-1.02-1.35-1.02-2.42,0-.72.15-1.31.46-1.77.31-.46.71-.82,1.22-1.08.51-.26,1.08-.45,1.73-.55.65-.1,1.32-.17,2.01-.2l2.08-.08v-.33c0-1.06-.21-1.83-.61-2.31-.41-.49-1.14-.73-2.2-.73-.51,0-.95.04-1.3.13-.35.08-.65.21-.89.37-.24.16-.42.35-.56.56-.14.22-.24.45-.31.72l-1.1-.17c.39-1.75,1.79-2.62,4.21-2.62.75,0,1.38.09,1.9.27.51.18.93.44,1.24.78s.54.76.68,1.25c.14.49.21,1.06.21,1.7v7.06h-1.21v-1.52Zm-.02-4.19l-1.98.08c-.81.03-1.48.1-2.02.22-.54.12-.98.28-1.31.5-.33.22-.57.48-.72.79-.15.31-.22.68-.22,1.11,0,.65.18,1.18.55,1.57s1.01.59,1.93.59c.46,0,.91-.05,1.36-.16.45-.1.82-.27,1.11-.51.25-.18.45-.35.61-.52.16-.17.29-.35.4-.55s.18-.43.22-.68c.04-.25.06-.54.06-.88v-1.58Z"/>
          <path class="cls-4" d="m293.64,91.72h-1.67v-1h1.67v-2.96h1.21v2.96h3.04v1h-3.04v7.02c0,.53.11.97.33,1.34s.61.55,1.17.55c.36,0,.67-.03.92-.08.25-.06.47-.12.67-.19l.25.98c-.21.08-.46.16-.76.23-.3.07-.69.1-1.18.1-.61,0-1.09-.1-1.44-.31-.35-.21-.61-.48-.78-.82s-.28-.73-.32-1.18c-.04-.44-.06-.91-.06-1.4v-6.25Z"/>
          <path class="cls-4" d="m299.89,86.57h1.38v1.81h-1.38v-1.81Zm.08,4.15h1.21v10.73h-1.21v-10.73Z"/>
          <path class="cls-4" d="m308.83,101.78c-.79,0-1.5-.13-2.11-.4-.62-.26-1.14-.64-1.56-1.14-.42-.49-.75-1.09-.98-1.78-.23-.69-.34-1.47-.34-2.33s.12-1.67.36-2.38c.24-.71.58-1.31,1.02-1.81.44-.5.97-.89,1.59-1.16.62-.27,1.33-.41,2.1-.41s1.48.13,2.1.4c.62.26,1.15.64,1.58,1.14.43.49.76,1.09.99,1.78.23.69.34,1.47.34,2.31s-.12,1.67-.35,2.38c-.24.71-.57,1.32-1.01,1.82-.44.51-.97.9-1.6,1.17-.63.27-1.34.41-2.14.41Zm.04-1.04c.68,0,1.26-.12,1.73-.36s.86-.57,1.17-.99c.31-.42.53-.91.67-1.48.14-.57.21-1.19.21-1.85s-.07-1.24-.21-1.8c-.14-.56-.36-1.05-.67-1.47-.31-.42-.69-.75-1.17-.99s-1.05-.36-1.73-.36-1.24.12-1.72.36c-.48.24-.87.57-1.17.99-.3.42-.52.91-.66,1.47-.14.56-.21,1.17-.21,1.82s.07,1.26.21,1.83c.14.57.36,1.06.66,1.48.3.42.69.75,1.17.99.48.24,1.05.36,1.72.36Z"/>
          <path class="cls-4" d="m316.52,90.72h1.21v1.75c.58-.74,1.2-1.27,1.86-1.59.66-.33,1.36-.49,2.11-.49,1.22,0,2.13.34,2.71,1.02.58.68.87,1.65.87,2.9v7.15h-1.21v-6.81c0-1.12-.2-1.93-.6-2.43-.4-.49-1.04-.74-1.92-.74-.42,0-.86.08-1.32.24s-.89.41-1.26.76c-.42.36-.73.73-.94,1.12s-.31.91-.31,1.57v6.29h-1.21v-10.73Z"/>
          <path class="cls-4" d="m328.79,98.47c.15.83.51,1.42,1.06,1.77.55.35,1.35.52,2.37.52s1.78-.19,2.21-.58c.43-.39.65-.87.65-1.46,0-.25-.03-.48-.08-.7-.06-.22-.16-.41-.32-.59s-.39-.33-.69-.46c-.3-.13-.68-.23-1.16-.31l-1.31-.21c-.57-.1-1.08-.22-1.53-.35-.45-.14-.83-.32-1.15-.55s-.55-.51-.71-.85c-.16-.34-.24-.76-.24-1.26,0-.47.1-.9.31-1.28s.49-.7.85-.96.79-.45,1.28-.59c.49-.14,1.02-.21,1.59-.21.74,0,1.35.07,1.84.22.49.14.9.34,1.21.59.31.25.55.54.73.88s.31.69.41,1.06l-1.1.23c-.11-.32-.24-.6-.39-.84-.15-.24-.33-.44-.55-.6-.22-.16-.5-.28-.83-.37-.33-.08-.75-.12-1.25-.12-.56,0-1.02.05-1.4.16-.38.1-.68.25-.91.43-.23.18-.39.39-.49.62s-.15.48-.15.73.03.48.08.68c.06.2.17.38.33.53.17.15.4.29.7.4.3.11.69.21,1.18.29l1.65.27c1.12.2,1.97.53,2.52,1.01.56.48.83,1.21.83,2.2,0,.42-.09.81-.26,1.19s-.43.7-.77.97c-.34.27-.77.49-1.28.65-.51.16-1.1.24-1.77.24s-1.25-.06-1.8-.19c-.55-.13-1.02-.32-1.43-.58-.4-.26-.73-.61-.98-1.02-.25-.42-.4-.92-.46-1.52h1.19Z"/>
          <path class="cls-4" d="m350.33,99.93c-.18.22-.4.44-.65.66-.25.22-.53.41-.85.57-.32.17-.67.3-1.05.4-.38.1-.8.14-1.26.14-1.12,0-2.03-.27-2.71-.81-.68-.54-1.02-1.35-1.02-2.42,0-.72.15-1.31.46-1.77.31-.46.71-.82,1.22-1.08.51-.26,1.08-.45,1.73-.55.65-.1,1.32-.17,2.01-.2l2.08-.08v-.33c0-1.06-.21-1.83-.61-2.31-.41-.49-1.14-.73-2.2-.73-.51,0-.95.04-1.3.13-.35.08-.65.21-.89.37-.24.16-.42.35-.56.56-.14.22-.24.45-.31.72l-1.1-.17c.39-1.75,1.79-2.62,4.21-2.62.75,0,1.38.09,1.9.27.51.18.93.44,1.24.78s.54.76.68,1.25c.14.49.21,1.06.21,1.7v7.06h-1.21v-1.52Zm-.02-4.19l-1.98.08c-.81.03-1.48.1-2.02.22-.54.12-.98.28-1.31.5-.33.22-.57.48-.72.79-.15.31-.22.68-.22,1.11,0,.65.18,1.18.55,1.57s1.01.59,1.93.59c.46,0,.91-.05,1.36-.16.45-.1.82-.27,1.11-.51.25-.18.45-.35.61-.52.16-.17.29-.35.4-.55s.18-.43.22-.68c.04-.25.06-.54.06-.88v-1.58Z"/>
          <path class="cls-4" d="m354.43,90.72h1.21v1.75c.58-.74,1.2-1.27,1.86-1.59.66-.33,1.36-.49,2.11-.49,1.22,0,2.13.34,2.71,1.02.58.68.87,1.65.87,2.9v7.15h-1.21v-6.81c0-1.12-.2-1.93-.6-2.43-.4-.49-1.04-.74-1.92-.74-.42,0-.86.08-1.32.24s-.89.41-1.26.76c-.42.36-.73.73-.94,1.12s-.31.91-.31,1.57v6.29h-1.21v-10.73Z"/>
          <path class="cls-4" d="m374.04,99.84c-.46.6-.98,1.07-1.57,1.42-.59.35-1.31.52-2.16.52-.79,0-1.48-.15-2.05-.46-.58-.3-1.05-.71-1.43-1.23s-.65-1.11-.83-1.78c-.18-.67-.27-1.38-.27-2.11,0-1.83.43-3.26,1.28-4.28.85-1.02,2.03-1.53,3.53-1.53.58,0,1.18.13,1.79.38.61.25,1.18.72,1.71,1.42v-5.6h1.21v14.87h-1.21v-1.6Zm.06-4.19c0-.49-.03-.91-.08-1.26-.06-.35-.14-.67-.25-.94-.11-.27-.26-.51-.45-.72-.19-.21-.41-.41-.66-.61-.33-.25-.66-.43-.99-.54-.33-.11-.7-.17-1.11-.17-.51,0-.99.09-1.42.26-.43.18-.8.45-1.11.82-.31.38-.56.86-.74,1.46-.18.6-.27,1.33-.27,2.19s.1,1.61.3,2.2.46,1.06.78,1.42c.32.35.68.6,1.07.75.4.14.79.22,1.2.22.43,0,.82-.05,1.16-.15.34-.1.69-.28,1.05-.54.49-.36.86-.82,1.12-1.38s.4-1.25.4-2.08v-.94Z"/>
          <path class="cls-4" d="m172.77,111.57h1.27v14.87h-1.27v-14.87Z"/>
          <path class="cls-4" d="m177.21,115.72h1.21v1.77c.53-.71,1.09-1.24,1.7-1.58.6-.35,1.22-.52,1.84-.52.82,0,1.48.18,1.97.55.49.37.86.89,1.09,1.55.49-.67,1.06-1.18,1.71-1.55.65-.37,1.35-.55,2.1-.55,1.03,0,1.83.28,2.42.83.58.56.88,1.44.88,2.67v7.56h-1.21v-7.12c0-.56-.05-1.01-.14-1.37s-.23-.65-.42-.88-.42-.38-.7-.47c-.28-.09-.6-.14-.98-.14-.32,0-.68.06-1.09.18-.41.12-.8.34-1.18.66-.33.26-.61.58-.82.96-.22.38-.32.81-.32,1.31v6.88h-1.21v-7.1c0-1.04-.18-1.78-.54-2.22-.36-.44-.91-.66-1.65-.66-.42,0-.81.09-1.18.26-.37.17-.73.42-1.09.74-.12.11-.26.24-.41.4-.15.15-.27.33-.39.54-.11.21-.21.45-.28.73-.08.28-.12.6-.12.96v6.35h-1.21v-10.73Z"/>
          <path class="cls-4" d="m194.98,115.72h1.21v1.6c.49-.61,1.02-1.09,1.6-1.43.58-.34,1.29-.51,2.12-.51s1.48.14,2.05.43c.58.28,1.06.68,1.44,1.18.38.5.67,1.09.85,1.77.19.68.28,1.42.28,2.21,0,.92-.12,1.73-.34,2.45-.23.72-.55,1.32-.97,1.82-.42.5-.92.88-1.51,1.15-.59.26-1.25.4-1.99.4-.65,0-1.28-.13-1.89-.4-.6-.26-1.16-.73-1.66-1.4v5.5h-1.21v-14.77Zm1.17,5.79c0,.47.02.89.07,1.24.05.35.13.67.25.95.12.28.27.53.45.74s.4.41.67.59c.32.25.65.43.98.54.33.11.71.17,1.15.17.51,0,.99-.09,1.42-.26.43-.17.8-.45,1.11-.82s.56-.86.74-1.47c.18-.6.27-1.34.27-2.2s-.1-1.6-.3-2.19c-.2-.58-.46-1.05-.78-1.41-.32-.35-.68-.6-1.08-.75-.4-.15-.8-.22-1.19-.22-.43,0-.82.05-1.17.14-.35.1-.69.28-1.04.54-.49.36-.86.82-1.14,1.36s-.41,1.25-.41,2.09v.94Z"/>
          <path class="cls-4" d="m213.95,124.93c-.18.22-.4.44-.65.66-.25.22-.53.41-.85.57-.32.17-.67.3-1.05.4-.38.1-.8.14-1.26.14-1.12,0-2.03-.27-2.71-.81-.68-.54-1.02-1.35-1.02-2.42,0-.72.15-1.31.46-1.77.31-.46.71-.82,1.22-1.08.51-.26,1.08-.45,1.73-.55.65-.1,1.32-.17,2.01-.2l2.08-.08v-.33c0-1.06-.21-1.83-.61-2.31-.41-.49-1.14-.73-2.2-.73-.51,0-.95.04-1.3.13-.35.08-.65.21-.89.37-.24.16-.42.35-.56.56-.14.22-.24.45-.31.72l-1.1-.17c.39-1.75,1.79-2.62,4.21-2.62.75,0,1.38.09,1.9.27.51.18.93.44,1.24.78s.54.76.68,1.25c.14.49.21,1.06.21,1.7v7.06h-1.21v-1.52Zm-.02-4.19l-1.98.08c-.81.03-1.48.1-2.02.22-.54.12-.98.28-1.31.5-.33.22-.57.48-.72.79-.15.31-.22.68-.22,1.11,0,.65.18,1.18.55,1.57s1.01.59,1.93.59c.46,0,.91-.05,1.36-.16.45-.1.82-.27,1.11-.51.25-.18.45-.35.61-.52.16-.17.29-.35.4-.55s.18-.43.22-.68c.04-.25.06-.54.06-.88v-1.58Z"/>
          <path class="cls-4" d="m227.14,122.95c-.21,1.21-.69,2.15-1.44,2.82s-1.77,1.01-3.06,1.01c-.78,0-1.47-.13-2.08-.39-.61-.26-1.12-.63-1.54-1.12-.42-.49-.74-1.09-.96-1.78-.22-.69-.33-1.48-.33-2.35s.12-1.67.35-2.38c.24-.71.57-1.31,1-1.81.43-.5.95-.89,1.57-1.16.62-.27,1.32-.41,2.09-.41,1.18,0,2.12.3,2.82.91.7.61,1.16,1.46,1.38,2.55l-1.17.29c-.08-.39-.2-.75-.35-1.08s-.35-.62-.58-.85c-.24-.24-.53-.42-.89-.56-.35-.14-.77-.21-1.26-.21-.65,0-1.21.12-1.67.35-.46.24-.84.56-1.15.97s-.53.9-.67,1.47c-.14.57-.21,1.19-.21,1.85s.07,1.28.21,1.85c.14.57.35,1.06.65,1.48s.67.74,1.14.98c.47.24,1.02.35,1.68.35,1.04,0,1.8-.25,2.28-.76s.8-1.18.97-2.03h1.21Z"/>
          <path class="cls-4" d="m230.2,116.72h-1.67v-1h1.67v-2.96h1.21v2.96h3.04v1h-3.04v7.02c0,.53.11.97.33,1.34s.61.55,1.17.55c.36,0,.67-.03.92-.08.25-.06.47-.12.67-.19l.25.98c-.21.08-.46.16-.76.23-.3.07-.69.1-1.18.1-.61,0-1.09-.1-1.44-.31-.35-.21-.61-.48-.78-.82s-.28-.73-.32-1.18c-.04-.44-.06-.91-.06-1.4v-6.25Z"/>
          <path class="cls-4" d="m253.29,121.68c-.1.74-.29,1.42-.57,2.04-.28.63-.67,1.17-1.16,1.63-.49.46-1.08.82-1.77,1.08-.69.26-1.5.4-2.42.4-.97,0-1.86-.17-2.66-.5-.8-.33-1.49-.83-2.06-1.49s-1.02-1.47-1.34-2.44c-.32-.97-.48-2.08-.48-3.34s.17-2.41.52-3.39c.35-.98.82-1.8,1.41-2.46.59-.66,1.28-1.16,2.06-1.5.78-.34,1.62-.51,2.51-.51s1.68.12,2.33.35c.65.24,1.2.57,1.66.99.45.42.82.93,1.09,1.51s.5,1.22.67,1.9l-1.21.27c-.15-.61-.34-1.16-.57-1.64-.23-.49-.52-.9-.87-1.23s-.78-.59-1.28-.77-1.1-.27-1.81-.27c-.82,0-1.55.17-2.19.5s-1.18.8-1.62,1.4-.78,1.31-1.02,2.12c-.24.82-.35,1.72-.35,2.69s.12,1.89.34,2.7c.23.81.56,1.52,1,2.11.44.6.98,1.06,1.64,1.39s1.4.49,2.25.49,1.48-.1,2.03-.3,1-.48,1.35-.84c.35-.36.63-.79.83-1.28.2-.49.35-1.02.45-1.59h1.25Z"/>
          <path class="cls-4" d="m264.64,123.64c-.17.93-.61,1.69-1.33,2.27-.72.58-1.75.88-3.08.88-1.54,0-2.74-.5-3.59-1.49-.85-.99-1.28-2.36-1.28-4.09,0-.94.12-1.78.36-2.5.24-.72.58-1.33,1.02-1.82.44-.49.95-.86,1.54-1.11s1.24-.37,1.95-.37c.83,0,1.54.14,2.13.41.58.27,1.06.64,1.43,1.1.37.46.64,1.02.8,1.66.17.64.25,1.33.25,2.06v.77h-8.25c0,.61.08,1.18.23,1.72.15.53.38,1,.69,1.4.31.4.69.71,1.15.94s.99.34,1.58.34c.54,0,1-.05,1.38-.16.37-.1.69-.25.94-.45.25-.19.45-.42.59-.68.15-.26.26-.54.34-.86h1.17Zm-1.06-3.29c0-.58-.06-1.12-.19-1.6-.13-.49-.32-.91-.58-1.26-.26-.35-.61-.63-1.04-.82-.43-.19-.94-.29-1.54-.29-1.04,0-1.88.33-2.5.98-.62.65-1,1.65-1.12,3h6.98Z"/>
          <path class="cls-4" d="m267.35,115.72h1.21v1.75c.58-.74,1.2-1.27,1.86-1.59.66-.33,1.36-.49,2.11-.49,1.22,0,2.13.34,2.71,1.02.58.68.87,1.65.87,2.9v7.15h-1.21v-6.81c0-1.12-.2-1.93-.6-2.43-.4-.49-1.04-.74-1.92-.74-.42,0-.86.08-1.32.24s-.89.41-1.26.76c-.42.36-.73.73-.94,1.12s-.31.91-.31,1.57v6.29h-1.21v-10.73Z"/>
          <path class="cls-4" d="m279.58,116.72h-1.67v-1h1.67v-2.96h1.21v2.96h3.04v1h-3.04v7.02c0,.53.11.97.33,1.34s.61.55,1.17.55c.36,0,.67-.03.92-.08.25-.06.47-.12.67-.19l.25.98c-.21.08-.46.16-.76.23-.3.07-.69.1-1.18.1-.61,0-1.09-.1-1.44-.31-.35-.21-.61-.48-.78-.82s-.28-.73-.32-1.18c-.04-.44-.06-.91-.06-1.4v-6.25Z"/>
          <path class="cls-4" d="m294.39,123.64c-.17.93-.61,1.69-1.33,2.27-.72.58-1.75.88-3.08.88-1.54,0-2.74-.5-3.59-1.49-.85-.99-1.28-2.36-1.28-4.09,0-.94.12-1.78.36-2.5.24-.72.58-1.33,1.02-1.82.44-.49.95-.86,1.54-1.11s1.24-.37,1.95-.37c.83,0,1.54.14,2.13.41.58.27,1.06.64,1.43,1.1.37.46.64,1.02.8,1.66.17.64.25,1.33.25,2.06v.77h-8.25c0,.61.08,1.18.23,1.72.15.53.38,1,.69,1.4.31.4.69.71,1.15.94s.99.34,1.58.34c.54,0,1-.05,1.38-.16.38-.1.69-.25.94-.45.25-.19.45-.42.59-.68.15-.26.26-.54.34-.86h1.17Zm-1.06-3.29c0-.58-.06-1.12-.19-1.6-.13-.49-.32-.91-.58-1.26-.26-.35-.61-.63-1.04-.82-.43-.19-.94-.29-1.54-.29-1.04,0-1.88.33-2.5.98-.62.65-1,1.65-1.12,3h6.98Z"/>
          <path class="cls-4" d="m297.1,115.72h1.21v1.75c.43-.61.92-1.08,1.48-1.42.56-.33,1.15-.5,1.77-.5.15,0,.3,0,.43,0,.13,0,.27.02.43.05l-.15,1.15c-.25-.04-.48-.06-.69-.06-.36,0-.73.07-1.1.2-.37.13-.73.36-1.06.68-.32.28-.58.61-.79,1.01-.21.4-.31.86-.31,1.41v6.46h-1.21v-10.73Z"/>
          <path class="cls-4" d="m313.43,126.78c-.79,0-1.5-.13-2.11-.4-.62-.26-1.14-.64-1.56-1.14-.42-.49-.75-1.09-.98-1.78-.23-.69-.34-1.47-.34-2.33s.12-1.67.36-2.38c.24-.71.58-1.31,1.02-1.81.44-.5.97-.89,1.59-1.16.62-.27,1.33-.41,2.1-.41s1.48.13,2.1.4c.62.26,1.15.64,1.58,1.14.43.49.76,1.09.99,1.78.23.69.34,1.47.34,2.31s-.12,1.67-.35,2.38c-.24.71-.57,1.32-1.01,1.82-.44.51-.97.9-1.6,1.17-.63.27-1.34.41-2.14.41Zm.04-1.04c.68,0,1.26-.12,1.73-.36s.86-.57,1.17-.99c.31-.42.53-.91.67-1.48.14-.57.21-1.19.21-1.85s-.07-1.24-.21-1.8c-.14-.56-.36-1.05-.67-1.47-.31-.42-.69-.75-1.17-.99s-1.05-.36-1.73-.36-1.24.12-1.72.36c-.48.24-.87.57-1.17.99-.3.42-.52.91-.66,1.47-.14.56-.21,1.17-.21,1.82s.07,1.26.21,1.83c.14.57.36,1.06.66,1.48.3.42.69.75,1.17.99.48.24,1.05.36,1.72.36Z"/>
          <path class="cls-4" d="m321.52,116.72h-1.67v-1h1.67v-1.23c0-.53.08-.99.25-1.37.17-.39.39-.71.66-.96.27-.25.59-.44.95-.56.36-.13.74-.19,1.15-.19.29,0,.56.02.8.05.24.03.5.09.78.18l-.25,1.02c-.22-.07-.43-.12-.61-.14s-.39-.04-.59-.04c-.54,0-1,.14-1.36.43-.37.29-.55.8-.55,1.55v1.27h2.85v1h-2.85v9.73h-1.21v-9.73Z"/>
          <path class="cls-4" d="m332.24,111.57h9.35v1.15h-8.08v5.46h7.67v1.19h-7.67v5.92h8.44l-.29,1.17h-9.42v-14.87Z"/>
          <path class="cls-4" d="m347.24,120.73l-3.62-5.01h1.42l2.96,4.2,2.98-4.2h1.31l-3.54,5.05,4,5.68h-1.42l-3.38-4.82-3.33,4.82h-1.35l3.98-5.72Z"/>
          <path class="cls-4" d="m362.76,122.95c-.21,1.21-.69,2.15-1.44,2.82s-1.77,1.01-3.06,1.01c-.78,0-1.47-.13-2.08-.39-.61-.26-1.12-.63-1.54-1.12-.42-.49-.74-1.09-.96-1.78-.22-.69-.33-1.48-.33-2.35s.12-1.67.35-2.38c.24-.71.57-1.31,1-1.81.43-.5.95-.89,1.57-1.16.62-.27,1.32-.41,2.09-.41,1.18,0,2.12.3,2.82.91.7.61,1.16,1.46,1.38,2.55l-1.17.29c-.08-.39-.2-.75-.35-1.08s-.35-.62-.58-.85c-.24-.24-.53-.42-.89-.56-.35-.14-.77-.21-1.26-.21-.65,0-1.21.12-1.67.35-.46.24-.84.56-1.15.97s-.53.9-.67,1.47c-.14.57-.21,1.19-.21,1.85s.07,1.28.21,1.85c.14.57.35,1.06.65,1.48s.67.74,1.14.98c.47.24,1.02.35,1.68.35,1.04,0,1.8-.25,2.28-.76s.8-1.18.97-2.03h1.21Z"/>
          <path class="cls-4" d="m374.18,123.64c-.17.93-.61,1.69-1.33,2.27-.72.58-1.75.88-3.08.88-1.54,0-2.74-.5-3.59-1.49-.85-.99-1.28-2.36-1.28-4.09,0-.94.12-1.78.36-2.5.24-.72.58-1.33,1.02-1.82.44-.49.95-.86,1.54-1.11s1.24-.37,1.95-.37c.83,0,1.54.14,2.13.41.58.27,1.06.64,1.43,1.1.37.46.64,1.02.8,1.66.17.64.25,1.33.25,2.06v.77h-8.25c0,.61.08,1.18.23,1.72.15.53.38,1,.69,1.4.31.4.69.71,1.15.94s.99.34,1.58.34c.54,0,1-.05,1.38-.16.38-.1.69-.25.94-.45.25-.19.45-.42.59-.68.15-.26.26-.54.34-.86h1.17Zm-1.06-3.29c0-.58-.06-1.12-.19-1.6-.13-.49-.32-.91-.58-1.26-.26-.35-.61-.63-1.04-.82-.43-.19-.94-.29-1.54-.29-1.04,0-1.88.33-2.5.98-.62.65-1,1.65-1.12,3h6.98Z"/>
          <path class="cls-4" d="m376.95,111.57h1.21v14.87h-1.21v-14.87Z"/>
          <path class="cls-4" d="m381.2,111.57h1.21v14.87h-1.21v-14.87Z"/>
          <path class="cls-4" d="m394.35,123.64c-.17.93-.61,1.69-1.33,2.27-.72.58-1.75.88-3.08.88-1.54,0-2.74-.5-3.59-1.49-.85-.99-1.28-2.36-1.28-4.09,0-.94.12-1.78.36-2.5.24-.72.58-1.33,1.02-1.82.44-.49.95-.86,1.54-1.11s1.24-.37,1.95-.37c.83,0,1.54.14,2.13.41.58.27,1.06.64,1.43,1.1.37.46.64,1.02.8,1.66.17.64.25,1.33.25,2.06v.77h-8.25c0,.61.08,1.18.23,1.72.15.53.38,1,.69,1.4.31.4.69.71,1.15.94s.99.34,1.58.34c.54,0,1-.05,1.38-.16.38-.1.69-.25.94-.45.25-.19.45-.42.59-.68.15-.26.26-.54.34-.86h1.17Zm-1.06-3.29c0-.58-.06-1.12-.19-1.6-.13-.49-.32-.91-.58-1.26-.26-.35-.61-.63-1.04-.82-.43-.19-.94-.29-1.54-.29-1.04,0-1.87.33-2.5.98-.62.65-1,1.65-1.12,3h6.98Z"/>
          <path class="cls-4" d="m397.06,115.72h1.21v1.75c.58-.74,1.2-1.27,1.86-1.59.66-.33,1.36-.49,2.11-.49,1.22,0,2.13.34,2.71,1.02.58.68.87,1.65.87,2.9v7.15h-1.21v-6.81c0-1.12-.2-1.93-.6-2.43-.4-.49-1.04-.74-1.92-.74-.42,0-.86.08-1.32.24s-.89.41-1.26.76c-.42.36-.73.73-.94,1.12s-.31.91-.31,1.57v6.29h-1.21v-10.73Z"/>
          <path class="cls-4" d="m417.76,122.95c-.21,1.21-.69,2.15-1.44,2.82s-1.77,1.01-3.06,1.01c-.78,0-1.47-.13-2.08-.39-.61-.26-1.12-.63-1.54-1.12-.42-.49-.74-1.09-.96-1.78-.22-.69-.33-1.48-.33-2.35s.12-1.67.35-2.38c.24-.71.57-1.31,1-1.81.43-.5.95-.89,1.57-1.16.62-.27,1.32-.41,2.09-.41,1.18,0,2.12.3,2.82.91.7.61,1.16,1.46,1.38,2.55l-1.17.29c-.08-.39-.2-.75-.35-1.08s-.35-.62-.58-.85c-.24-.24-.53-.42-.89-.56-.35-.14-.77-.21-1.26-.21-.65,0-1.21.12-1.67.35-.46.24-.84.56-1.15.97s-.53.9-.67,1.47c-.14.57-.21,1.19-.21,1.85s.07,1.28.21,1.85c.14.57.35,1.06.65,1.48s.67.74,1.14.98c.47.24,1.02.35,1.68.35,1.04,0,1.8-.25,2.28-.76s.8-1.18.97-2.03h1.21Z"/>
          <path class="cls-4" d="m429.18,123.64c-.17.93-.61,1.69-1.33,2.27-.72.58-1.75.88-3.08.88-1.54,0-2.74-.5-3.59-1.49-.85-.99-1.28-2.36-1.28-4.09,0-.94.12-1.78.36-2.5.24-.72.58-1.33,1.02-1.82.44-.49.95-.86,1.54-1.11s1.24-.37,1.95-.37c.83,0,1.54.14,2.13.41.58.27,1.06.64,1.43,1.1.37.46.64,1.02.8,1.66.17.64.25,1.33.25,2.06v.77h-8.25c0,.61.08,1.18.23,1.72.15.53.38,1,.69,1.4.31.4.69.71,1.15.94s.99.34,1.58.34c.54,0,1-.05,1.38-.16.38-.1.69-.25.94-.45.25-.19.45-.42.59-.68.15-.26.26-.54.34-.86h1.17Zm-1.06-3.29c0-.58-.06-1.12-.19-1.6-.13-.49-.32-.91-.58-1.26-.26-.35-.61-.63-1.04-.82-.43-.19-.94-.29-1.54-.29-1.04,0-1.88.33-2.5.98-.62.65-1,1.65-1.12,3h6.98Z"/>
        </g>
        <g>
          <path class="cls-2" d="m441.67,8.09c.06.57.27.98.61,1.24.35.26.86.39,1.54.39.33,0,.61-.04.84-.11s.41-.17.55-.29c.14-.12.23-.27.29-.43s.09-.34.09-.53c0-.14-.02-.27-.06-.41-.04-.13-.11-.26-.22-.37-.11-.11-.25-.21-.43-.3-.18-.08-.4-.15-.68-.2l-1.11-.21c-.44-.08-.83-.18-1.17-.3-.34-.12-.63-.28-.86-.48-.23-.2-.41-.44-.52-.73s-.18-.64-.18-1.05.08-.77.25-1.08c.17-.31.39-.56.69-.77s.64-.36,1.04-.46c.4-.1.84-.15,1.31-.15.6,0,1.1.07,1.51.21s.73.32.98.54c.25.22.44.48.57.77.13.29.22.6.27.91l-1.38.22c-.11-.48-.31-.85-.59-1.08-.28-.23-.72-.35-1.33-.35-.35,0-.64.03-.87.09-.23.06-.42.15-.56.25-.14.11-.24.24-.3.38-.06.14-.09.29-.09.44,0,.38.1.66.31.85.21.19.57.33,1.09.44l1.2.23c.91.17,1.59.46,2.02.87.43.41.64,1,.64,1.77,0,.36-.07.7-.2,1.01-.13.31-.34.58-.61.81-.28.23-.62.41-1.03.55-.41.13-.89.2-1.43.2-1.11,0-1.98-.23-2.61-.7-.63-.47-.98-1.19-1.04-2.17h1.48Z"/>
          <path class="cls-2" d="m448.53,2.06h1.78l2.47,6.9,2.54-6.9h1.72v8.67h-1.35v-6.3l-2.38,6.3h-1.17l-2.29-6.29v6.29h-1.32V2.06Z"/>
        </g>
      </g>
    </g>
  </g>
</svg>