<svg xmlns="http://www.w3.org/2000/svg" width="1280" height="1349" viewBox="0 0 1280 1349">
  <g id="Group_2936" data-name="Group 2936" transform="translate(0 -1180)" opacity="0.7">
    <g id="Group_2898" data-name="Group 2898" transform="translate(0.22 1205.047)">
      <g id="Group_2896" data-name="Group 2896" transform="translate(479.78)" opacity="0.25">
        <path id="Path_23893" data-name="Path 23893" d="M285.135,245.619l72.638,41.7v.077l-72.638,41.726h-.025v-83.5Z" transform="translate(-284.944 380.83)" fill="#b6b6b6"/>
        <path id="Path_23895" data-name="Path 23895" d="M329.3,329.1,256.636,287.37v-.026L329.3,245.618Z" transform="translate(-183.848 380.829)" fill="#c4c4c4"/>
        <path id="Path_23897" data-name="Path 23897" d="M171.19,270.973V271l72.664,41.726V229.247Z" transform="translate(119.527 355.447)" fill="gray"/>
        <path id="Path_23901" data-name="Path 23901" d="M243.853,287.294v.151l-72.536,41.678-.128-.077V245.7l.128-.077Z" transform="translate(119.528 380.831)" fill="#c4c4c4"/>
        <path id="Path_23902" data-name="Path 23902" d="M171.175,212.9v83.35l.128.076,72.536-41.675v-.153L171.3,212.82Z" transform="translate(119.58 329.976)" fill="#919191"/>
        <path id="Path_23904" data-name="Path 23904" d="M256.645,229.19v83.5l72.664-41.726v-.026Z" transform="translate(-183.88 355.357)" fill="#fefefe"/>
        <path id="Path_23905" data-name="Path 23905" d="M357.823,312.6l-72.638-41.7,72.638-41.729Z" transform="translate(-285.185 355.334)" fill="#d9d9d9"/>
        <path id="Path_23906" data-name="Path 23906" d="M228.155,270.936l72.638,41.7V229.21Z" transform="translate(-82.701 355.388)" fill="#919191"/>
        <path id="Path_23907" data-name="Path 23907" d="M228.155,212.82v83.529h.026l72.638-41.726v-.1l-72.612-41.7Z" transform="translate(-82.727 329.976)" fill="#707070"/>
        <path id="Path_23908" data-name="Path 23908" d="M199.665,196.475V279.9l.077.051,72.587-41.675v-.153L199.742,196.45Z" transform="translate(18.427 304.594)" fill="#646464"/>
        <path id="Path_23910" data-name="Path 23910" d="M57.129,74.48l72.638,41.726V32.754Z" transform="translate(524.525 50.785)" fill="#8a8a8a"/>
        <path id="Path_23911" data-name="Path 23911" d="M.236,32.792l-.15-.077Z" transform="translate(799.544 50.725)" fill="#838383"/>
        <path id="Path_23912" data-name="Path 23912" d="M28.7,16.421l-.1-.077Z" transform="translate(698.371 25.342)" fill="#838383"/>
        <path id="Path_23915" data-name="Path 23915" d="M72.706,0V83.375L.145,41.675Z" transform="translate(726.924 0)" fill="#636363"/>
        <path id="Path_23916" data-name="Path 23916" d="M72.706,148.891.145,107.19,72.706,65.515Z" transform="translate(726.924 101.581)" fill="#8a8a8a"/>
        <path id="Path_23917" data-name="Path 23917" d="M57.125,49.14v83.5h.051l72.612-41.726v-.077L57.151,49.115Z" transform="translate(524.514 76.153)" fill="#a4a4a4"/>
        <path id="Path_23918" data-name="Path 23918" d="M57.125,107.231l72.613,41.7V65.5Z" transform="translate(524.565 101.565)" fill="#959595"/>
        <path id="Path_23919" data-name="Path 23919" d="M72.808,189.005v.15L.247,230.833l-.1-.051V147.4l.128-.074Z" transform="translate(726.822 228.435)" fill="#646464"/>
        <path id="Path_23920" data-name="Path 23920" d="M85.619,156.34l72.664,41.726V114.588Z" transform="translate(423.346 177.669)" fill="#e7e7e7"/>
        <path id="Path_23921" data-name="Path 23921" d="M114.105,147.34v83.478l72.664-41.752Z" transform="translate(322.207 228.45)" fill="#dfdfdf"/>
        <path id="Path_24526" data-name="Path 24526" d="M114.105,147.34v83.478l72.664-41.752Z" transform="translate(-114.004 228.45)" fill="#dfdfdf"/>
        <path id="Path_23923" data-name="Path 23923" d="M114.105,238.176v.051l72.664,41.726v-83.5Z" transform="translate(322.207 304.594)" fill="#6c6c6c"/>
        <path id="Path_23924" data-name="Path 23924" d="M114.105,180.08v83.478l72.664-41.726v-.025Z" transform="translate(322.207 279.213)" fill="#626262"/>
        <path id="Path_23926" data-name="Path 23926" d="M57.1,261.967l.051-.028Z" transform="translate(597.198 406.135)" fill="#888"/>
        <path id="Path_23927" data-name="Path 23927" d="M.086,229.267l.15-.076Z" transform="translate(799.544 355.358)" fill="#838383"/>
        <path id="Path_23928" data-name="Path 23928" d="M28.585,245.638l.128-.079Z" transform="translate(698.381 380.738)" fill="#838383"/>
        <path id="Path_23929" data-name="Path 23929" d="M.236,131.007l-.15-.077Z" transform="translate(799.544 203.006)" fill="#838383"/>
        <path id="Path_23930" data-name="Path 23930" d="M.079,16.42,72.666,58.093v.13L.079,99.921,0,99.87V16.446l.054-.026Z" transform="translate(727.334 25.46)" fill="#838383"/>
        <path id="Path_23932" data-name="Path 23932" d="M28.7,114.636l-.1-.077Z" transform="translate(698.371 177.625)" fill="#838383"/>
        <path id="Path_23933" data-name="Path 23933" d="M72.681,214.342.145,172.667l72.536-41.678Z" transform="translate(726.949 203.098)" fill="#9d9d9d"/>
        <path id="Path_23937" data-name="Path 23937" d="M72.706,247.1.145,205.407l72.561-41.678Z" transform="translate(726.924 253.862)" fill="#8a8a8a"/>
        <path id="Path_23938" data-name="Path 23938" d="M72.681,279.83.145,238.157,72.681,196.48Z" transform="translate(726.949 304.641)" fill="#868686"/>
        <path id="Path_23941" data-name="Path 23941" d="M57.125,147.355v83.5h.051l72.612-41.726v-.077L57.151,147.33Z" transform="translate(524.514 228.434)" fill="#6c6c6c"/>
        <path id="Path_23942" data-name="Path 23942" d="M114.105,205.451v.025L186.769,247.2V163.7Z" transform="translate(322.207 253.816)" fill="#969696"/>
        <path id="Path_23943" data-name="Path 23943" d="M85.615,163.7v83.5l72.664-41.726v-.025Z" transform="translate(423.36 253.816)" fill="#e2e2e2"/>
        <path id="Path_24528" data-name="Path 24528" d="M85.615,163.7v83.5l72.664-41.726v-.025Z" transform="translate(-12.851 253.816)" fill="#e2e2e2"/>
        <path id="Path_23944" data-name="Path 23944" d="M72.808,254.493v.153L.272,296.321l-.128-.076v-83.35l.128-.074Z" transform="translate(726.822 329.977)" fill="#eaeaea"/>
        <path id="Path_23945" data-name="Path 23945" d="M57.125,205.446l72.613,41.7V163.72Z" transform="translate(524.565 253.847)" fill="#9f9f9f"/>
        <path id="Path_23946" data-name="Path 23946" d="M85.615,130.96v83.5l72.664-41.726v-.051Z" transform="translate(423.36 203.053)" fill="#e2e2e2"/>
        <path id="Path_24529" data-name="Path 24529" d="M85.615,130.96v83.5l72.664-41.726v-.051Z" transform="translate(-12.851 203.053)" fill="#e2e2e2"/>
        <path id="Path_23951" data-name="Path 23951" d="M85.615,221.806v.025l72.664,41.726V180.08Z" transform="translate(423.36 279.213)" fill="#e1e1e1"/>
        <path id="Path_23952" data-name="Path 23952" d="M57.125,238.186l72.613,41.7V196.46Z" transform="translate(524.565 304.61)" fill="#858585"/>
        <path id="Path_23954" data-name="Path 23954" d="M114.105,212.83v83.452l72.664-41.726Z" transform="translate(322.207 329.991)" fill="#bcbcbc"/>
        <path id="Path_23955" data-name="Path 23955" d="M85.615,229.19v83.5l72.664-41.726v-.026Z" transform="translate(423.36 355.357)" fill="#606060"/>
        <path id="Path_23956" data-name="Path 23956" d="M57.125,270.936l72.638,41.7V229.21Z" transform="translate(524.539 355.388)" fill="#707070"/>
        <path id="Path_23957" data-name="Path 23957" d="M85.615,196.45v83.5L158.279,238.2v-.025Z" transform="translate(423.36 304.594)" fill="gray"/>
        <path id="Path_23958" data-name="Path 23958" d="M57.125,212.82v83.529h.026l72.638-41.726v-.1l-72.612-41.7Z" transform="translate(524.514 329.976)" fill="#949494"/>
        <path id="Path_23959" data-name="Path 23959" d="M28.635,254.525,101.222,296.2V212.85Z" transform="translate(625.744 330.022)" fill="#868686"/>
        <path id="Path_23960" data-name="Path 23960" d="M28.635,229.241v83.427l.051.051h.026l72.587-41.7v-.153L28.712,229.19Z" transform="translate(625.667 355.357)" fill="#616161"/>
      </g>
      <g id="Group_2897" data-name="Group 2897" transform="translate(799.78 668.268) rotate(180)" opacity="0.25">
        <path id="Path_23893-2" data-name="Path 23893" d="M.025,0,72.663,41.7v.077L.025,83.5H0V0Z" transform="translate(0.166 584.763)" fill="#b6b6b6"/>
        <path id="Path_23895-2" data-name="Path 23895" d="M72.664,83.478,0,41.752v-.026L72.664,0Z" transform="translate(72.788 584.762)" fill="#c4c4c4"/>
        <path id="Path_23896" data-name="Path 23896" d="M0,0V83.5H.026L72.664,41.777V41.7L.026,0Z" transform="translate(363.383 543.011)" fill="#818181"/>
        <path id="Path_23897-2" data-name="Path 23897" d="M0,41.726v.026L72.664,83.478V0Z" transform="translate(290.717 543.008)" fill="gray"/>
        <path id="Path_23898" data-name="Path 23898" d="M0,41.675l72.562,41.7V0Z" transform="translate(290.857 375.906)" fill="#6c6c6c"/>
        <path id="Path_23899" data-name="Path 23899" d="M0,.077V83.452l.128.076L72.664,41.854V41.7L.1,0Z" transform="translate(290.755 417.581)" fill="#646464"/>
        <path id="Path_23900" data-name="Path 23900" d="M0,41.675,72.536,83.35V0Z" transform="translate(290.883 459.435)" fill="#747474"/>
        <path id="Path_23901-2" data-name="Path 23901" d="M72.663,41.675v.151L.128,83.5,0,83.427V.077L.128,0Z" transform="translate(290.718 584.765)" fill="#c4c4c4"/>
        <path id="Path_23902-2" data-name="Path 23902" d="M0,.077v83.35l.128.076L72.664,41.828v-.153L.128,0Z" transform="translate(290.755 501.11)" fill="#919191"/>
        <path id="Path_23903" data-name="Path 23903" d="M0,41.7,72.587,83.376V0Z" transform="translate(218.168 417.658)" fill="#6a6a6a"/>
        <path id="Path_23905-2" data-name="Path 23905" d="M72.638,83.427,0,41.729,72.638,0Z" transform="translate(0 542.822)" fill="#d9d9d9"/>
        <path id="Path_23906-2" data-name="Path 23906" d="M0,41.726l72.638,41.7V0Z" transform="translate(145.454 542.912)" fill="#919191"/>
        <path id="Path_23907-2" data-name="Path 23907" d="M0,0V83.529H.026L72.663,41.8v-.1L.051,0Z" transform="translate(145.428 501.11)" fill="#707070"/>
        <path id="Path_23908-2" data-name="Path 23908" d="M0,.025V83.452l.077.051L72.664,41.828v-.153L.077,0Z" transform="translate(218.092 459.358)" fill="#646464"/>
        <path id="Path_23911-2" data-name="Path 23911" d="M.15.077,0,0Z" transform="translate(799.63 41.754)" fill="#838383"/>
        <path id="Path_23912-2" data-name="Path 23912" d="M.1.077,0,0Z" transform="translate(726.966 0)" fill="#838383"/>
        <path id="Path_23914" data-name="Path 23914" d="M0,41.7,72.587,83.376V0Z" transform="translate(654.379 0.13)" fill="#828282"/>
        <path id="Path_23916-2" data-name="Path 23916" d="M72.561,83.376,0,41.675,72.561,0Z" transform="translate(727.068 125.411)" fill="#8a8a8a"/>
        <path id="Path_23919-2" data-name="Path 23919" d="M72.664,41.675v.15L.1,83.5,0,83.452V.074L.128,0Z" transform="translate(726.966 334.079)" fill="#646464"/>
        <path id="Path_23920-2" data-name="Path 23920" d="M0,41.752,72.664,83.478V0Z" transform="translate(508.965 250.572)" fill="#e7e7e7"/>
        <path id="Path_23921-2" data-name="Path 23921" d="M0,0V83.478L72.664,41.726Z" transform="translate(436.312 334.104)" fill="#dfdfdf"/>
        <path id="Path_23922" data-name="Path 23922" d="M0,0V83.452L72.638,41.726Z" transform="translate(363.648 375.855)" fill="#7b7b7b"/>
        <path id="Path_23923-2" data-name="Path 23923" d="M0,41.726v.051L72.664,83.5V0Z" transform="translate(436.312 459.358)" fill="#6c6c6c"/>
        <path id="Path_23924-2" data-name="Path 23924" d="M0,0V83.478L72.664,41.752v-.025Z" transform="translate(436.312 417.607)" fill="#626262"/>
        <path id="Path_23926-2" data-name="Path 23926" d="M0,.028.051,0Z" transform="translate(654.303 626.388)" fill="#888"/>
        <path id="Path_23927-2" data-name="Path 23927" d="M0,.076.15,0Z" transform="translate(799.63 542.862)" fill="#838383"/>
        <path id="Path_23928-2" data-name="Path 23928" d="M0,.079.128,0Z" transform="translate(726.966 584.611)" fill="#838383"/>
        <path id="Path_23929-2" data-name="Path 23929" d="M.15.077,0,0Z" transform="translate(799.63 292.251)" fill="#838383"/>
        <path id="Path_23931" data-name="Path 23931" d="M0,.025V83.452l.077.051L72.664,41.8v-.128L.077,0H.051Z" transform="translate(654.302 208.824)" fill="#828282"/>
        <path id="Path_23932-2" data-name="Path 23932" d="M.1.077,0,0Z" transform="translate(726.966 250.499)" fill="#838383"/>
        <path id="Path_23933-2" data-name="Path 23933" d="M72.536,83.353,0,41.678,72.536,0Z" transform="translate(727.094 292.402)" fill="#9d9d9d"/>
        <path id="Path_23934" data-name="Path 23934" d="M0,41.7,72.587,83.376V0Z" transform="translate(654.379 250.626)" fill="#959595"/>
        <path id="Path_23935" data-name="Path 23935" d="M0,0V83.5H.026L72.663,41.777V41.7L.026,0Z" transform="translate(581.629 167.068)" fill="#f4f4f4"/>
        <path id="Path_23937-2" data-name="Path 23937" d="M72.561,83.376,0,41.678,72.561,0Z" transform="translate(727.068 375.905)" fill="#8a8a8a"/>
        <path id="Path_23938-2" data-name="Path 23938" d="M72.536,83.35,0,41.678,72.536,0Z" transform="translate(727.094 459.434)" fill="#868686"/>
        <path id="Path_23939" data-name="Path 23939" d="M0,0V83.5L72.664,41.752v-.026Z" transform="translate(508.975 208.824)" fill="#aeaeae"/>
        <path id="Path_23942-2" data-name="Path 23942" d="M0,41.752v.025L72.664,83.5V0Z" transform="translate(436.312 375.83)" fill="#969696"/>
        <path id="Path_23943-2" data-name="Path 23943" d="M0,0V83.5L72.664,41.777v-.025Z" transform="translate(508.975 375.83)" fill="#e2e2e2"/>
        <path id="Path_23944-2" data-name="Path 23944" d="M72.664,41.672v.153L.128,83.5,0,83.424V.074L.128,0Z" transform="translate(726.966 501.112)" fill="#eaeaea"/>
        <path id="Path_23945-2" data-name="Path 23945" d="M0,41.726l72.613,41.7V0Z" transform="translate(581.69 375.881)" fill="#9f9f9f"/>
        <path id="Path_23946-2" data-name="Path 23946" d="M0,0V83.5L72.664,41.777v-.051Z" transform="translate(508.975 292.327)" fill="#e2e2e2"/>
        <path id="Path_23947" data-name="Path 23947" d="M0,41.726v.051L72.612,83.5l.051-.025V0h-.026Z" transform="translate(435.375 208.875)" fill="#979797"/>
        <path id="Path_23950" data-name="Path 23950" d="M0,41.726v.051L72.638,83.5h.025V.026L72.612,0Z" transform="translate(363.648 334.078)" fill="#bcbcbc"/>
        <path id="Path_23951-2" data-name="Path 23951" d="M0,41.726v.025L72.664,83.478V0Z" transform="translate(508.975 417.607)" fill="#e1e1e1"/>
        <path id="Path_23952-2" data-name="Path 23952" d="M0,41.726l72.613,41.7V0Z" transform="translate(581.69 459.384)" fill="#858585"/>
        <path id="Path_23953" data-name="Path 23953" d="M0,41.726v.051L72.612,83.5l.051-.026V.026L72.612,0Z" transform="translate(363.648 501.11)" fill="#959595"/>
        <path id="Path_23954-2" data-name="Path 23954" d="M0,0V83.452L72.664,41.726Z" transform="translate(436.312 501.135)" fill="#bcbcbc"/>
        <path id="Path_23955-2" data-name="Path 23955" d="M0,0V83.5L72.664,41.777v-.026Z" transform="translate(508.975 542.861)" fill="#606060"/>
        <path id="Path_23956-2" data-name="Path 23956" d="M0,41.726l72.638,41.7V0Z" transform="translate(581.664 542.912)" fill="#707070"/>
        <path id="Path_23957-2" data-name="Path 23957" d="M0,0V83.5L72.664,41.752v-.025Z" transform="translate(508.975 459.358)" fill="gray"/>
        <path id="Path_23959-2" data-name="Path 23959" d="M0,41.675,72.587,83.35V0Z" transform="translate(654.379 501.186)" fill="#868686"/>
      </g>
    </g>
    <g id="Group_2935" data-name="Group 2935" transform="translate(0.22 1791.047)">
      <g id="Group_2896-2" data-name="Group 2896" transform="translate(479.78)" opacity="0.25">
        <path id="Path_23898-2" data-name="Path 23898" d="M171.175,205.4l72.562,41.7V163.73Z" transform="translate(119.682 253.862)" fill="#6c6c6c"/>
        <path id="Path_23899-2" data-name="Path 23899" d="M171.175,180.146v83.376l.128.076,72.536-41.675v-.153l-72.561-41.7Z" transform="translate(119.58 279.197)" fill="#646464"/>
        <path id="Path_23903-2" data-name="Path 23903" d="M199.665,221.8l72.587,41.675V180.1Z" transform="translate(18.503 279.244)" fill="#6a6a6a"/>
        <path id="Path_23904-2" data-name="Path 23904" d="M256.645,229.19v83.5l72.664-41.726v-.026Z" transform="translate(-183.88 355.357)" fill="#fefefe"/>
        <path id="Path_23905-3" data-name="Path 23905" d="M357.823,312.6l-72.638-41.7,72.638-41.729Z" transform="translate(-285.185 355.334)" fill="#d9d9d9"/>
        <path id="Path_23911-3" data-name="Path 23911" d="M.236,32.792l-.15-.077Z" transform="translate(799.544 50.725)" fill="#838383"/>
        <path id="Path_23912-3" data-name="Path 23912" d="M28.7,16.421l-.1-.077Z" transform="translate(698.371 25.342)" fill="#838383"/>
        <path id="Path_23915-2" data-name="Path 23915" d="M72.706,0V83.375L.145,41.675Z" transform="translate(726.924 0)" fill="#636363"/>
        <path id="Path_23919-3" data-name="Path 23919" d="M72.808,189.005v.15L.247,230.833l-.1-.051V147.4l.128-.074Z" transform="translate(726.822 228.435)" fill="#646464"/>
        <path id="Path_23920-3" data-name="Path 23920" d="M85.619,156.34l72.664,41.726V114.588Z" transform="translate(423.346 177.669)" fill="#e7e7e7"/>
        <path id="Path_23921-3" data-name="Path 23921" d="M114.105,147.34v83.478l72.664-41.752Z" transform="translate(322.207 228.45)" fill="#dfdfdf"/>
        <path id="Path_24526-2" data-name="Path 24526" d="M114.105,147.34v83.478l72.664-41.752Z" transform="translate(-114.004 228.45)" fill="#dfdfdf"/>
        <path id="Path_23922-2" data-name="Path 23922" d="M142.605,163.71v83.452l72.638-41.726Z" transform="translate(221.043 253.831)" fill="#7b7b7b"/>
        <path id="Path_23926-3" data-name="Path 23926" d="M57.1,261.967l.051-.028Z" transform="translate(597.198 406.135)" fill="#888"/>
        <path id="Path_23927-3" data-name="Path 23927" d="M.086,229.267l.15-.076Z" transform="translate(799.544 355.358)" fill="#838383"/>
        <path id="Path_23928-3" data-name="Path 23928" d="M28.585,245.638l.128-.079Z" transform="translate(698.381 380.738)" fill="#838383"/>
        <path id="Path_23929-3" data-name="Path 23929" d="M.236,131.007l-.15-.077Z" transform="translate(799.544 203.006)" fill="#838383"/>
        <path id="Path_23930-2" data-name="Path 23930" d="M.079,16.42,72.666,58.093v.13L.079,99.921,0,99.87V16.446l.054-.026Z" transform="translate(727.334 25.46)" fill="#838383"/>
        <path id="Path_23932-3" data-name="Path 23932" d="M28.7,114.636l-.1-.077Z" transform="translate(698.371 177.625)" fill="#838383"/>
        <path id="Path_23933-3" data-name="Path 23933" d="M72.681,214.342.145,172.667l72.536-41.678Z" transform="translate(726.949 203.098)" fill="#9d9d9d"/>
        <path id="Path_23937-3" data-name="Path 23937" d="M72.706,247.1.145,205.407l72.561-41.678Z" transform="translate(726.924 253.862)" fill="#8a8a8a"/>
        <path id="Path_23938-3" data-name="Path 23938" d="M72.681,279.83.145,238.157,72.681,196.48Z" transform="translate(726.949 304.641)" fill="#868686"/>
        <path id="Path_23941-2" data-name="Path 23941" d="M57.125,147.355v83.5h.051l72.612-41.726v-.077L57.151,147.33Z" transform="translate(524.514 228.434)" fill="#6c6c6c"/>
        <path id="Path_24533" data-name="Path 24533" d="M57.125,147.355v83.5h.051l72.612-41.726v-.077L57.151,147.33Z" transform="translate(88.303 228.434)" fill="#6c6c6c"/>
        <path id="Path_23942-3" data-name="Path 23942" d="M114.105,205.451v.025L186.769,247.2V163.7Z" transform="translate(322.207 253.816)" fill="#969696"/>
        <path id="Path_24527" data-name="Path 24527" d="M114.105,205.451v.025L186.769,247.2V163.7Z" transform="translate(-114.004 253.816)" fill="#969696"/>
        <path id="Path_23943-3" data-name="Path 23943" d="M85.615,163.7v83.5l72.664-41.726v-.025Z" transform="translate(423.36 253.816)" fill="#e2e2e2"/>
        <path id="Path_24528-2" data-name="Path 24528" d="M85.615,163.7v83.5l72.664-41.726v-.025Z" transform="translate(-12.851 253.816)" fill="#e2e2e2"/>
        <path id="Path_23944-3" data-name="Path 23944" d="M72.808,254.493v.153L.272,296.321l-.128-.076v-83.35l.128-.074Z" transform="translate(726.822 329.977)" fill="#eaeaea"/>
        <path id="Path_23945-3" data-name="Path 23945" d="M57.125,205.446l72.613,41.7V163.72Z" transform="translate(524.565 253.847)" fill="#9f9f9f"/>
        <path id="Path_24534" data-name="Path 24534" d="M57.125,205.446l72.613,41.7V163.72Z" transform="translate(88.354 253.847)" fill="#9f9f9f"/>
        <path id="Path_23946-3" data-name="Path 23946" d="M85.615,130.96v83.5l72.664-41.726v-.051Z" transform="translate(423.36 203.053)" fill="#e2e2e2"/>
        <path id="Path_24529-2" data-name="Path 24529" d="M85.615,130.96v83.5l72.664-41.726v-.051Z" transform="translate(-12.851 203.053)" fill="#e2e2e2"/>
        <path id="Path_23951-3" data-name="Path 23951" d="M85.615,221.806v.025l72.664,41.726V180.08Z" transform="translate(423.36 279.213)" fill="#e1e1e1"/>
        <path id="Path_23952-3" data-name="Path 23952" d="M57.125,238.186l72.613,41.7V196.46Z" transform="translate(524.565 304.61)" fill="#858585"/>
        <path id="Path_23955-3" data-name="Path 23955" d="M85.615,229.19v83.5l72.664-41.726v-.026Z" transform="translate(423.36 355.357)" fill="#606060"/>
        <path id="Path_23956-3" data-name="Path 23956" d="M57.125,270.936l72.638,41.7V229.21Z" transform="translate(524.539 355.388)" fill="#707070"/>
        <path id="Path_23957-3" data-name="Path 23957" d="M85.615,196.45v83.5L158.279,238.2v-.025Z" transform="translate(423.36 304.594)" fill="gray"/>
        <path id="Path_23958-2" data-name="Path 23958" d="M57.125,212.82v83.529h.026l72.638-41.726v-.1l-72.612-41.7Z" transform="translate(524.514 329.976)" fill="#949494"/>
        <path id="Path_23959-3" data-name="Path 23959" d="M28.635,254.525,101.222,296.2V212.85Z" transform="translate(625.744 330.022)" fill="#868686"/>
        <path id="Path_23960-2" data-name="Path 23960" d="M28.635,229.241v83.427l.051.051h.026l72.587-41.7v-.153L28.712,229.19Z" transform="translate(625.667 355.357)" fill="#616161"/>
      </g>
      <g id="Group_2897-2" data-name="Group 2897" transform="translate(799.78 668.268) rotate(180)" opacity="0.25">
        <path id="Path_23893-3" data-name="Path 23893" d="M.025,0,72.663,41.7v.077L.025,83.5H0V0Z" transform="translate(0.166 584.763)" fill="#b6b6b6"/>
        <path id="Path_23895-3" data-name="Path 23895" d="M72.664,83.478,0,41.752v-.026L72.664,0Z" transform="translate(72.788 584.762)" fill="#c4c4c4"/>
        <path id="Path_23896-2" data-name="Path 23896" d="M0,0V83.5H.026L72.664,41.777V41.7L.026,0Z" transform="translate(363.383 543.011)" fill="#818181"/>
        <path id="Path_23897-3" data-name="Path 23897" d="M0,41.726v.026L72.664,83.478V0Z" transform="translate(290.717 543.008)" fill="gray"/>
        <path id="Path_23901-3" data-name="Path 23901" d="M72.663,41.675v.151L.128,83.5,0,83.427V.077L.128,0Z" transform="translate(290.718 584.765)" fill="#c4c4c4"/>
        <path id="Path_23905-4" data-name="Path 23905" d="M72.638,83.427,0,41.729,72.638,0Z" transform="translate(0 542.822)" fill="#d9d9d9"/>
        <path id="Path_23906-3" data-name="Path 23906" d="M0,41.726l72.638,41.7V0Z" transform="translate(145.454 542.912)" fill="#919191"/>
        <path id="Path_23907-3" data-name="Path 23907" d="M0,0V83.529H.026L72.663,41.8v-.1L.051,0Z" transform="translate(145.428 501.11)" fill="#707070"/>
        <path id="Path_23911-4" data-name="Path 23911" d="M.15.077,0,0Z" transform="translate(799.63 41.754)" fill="#838383"/>
        <path id="Path_23912-4" data-name="Path 23912" d="M.1.077,0,0Z" transform="translate(726.966 0)" fill="#838383"/>
        <path id="Path_23914-2" data-name="Path 23914" d="M0,41.7,72.587,83.376V0Z" transform="translate(654.379 0.13)" fill="#828282"/>
        <path id="Path_23916-3" data-name="Path 23916" d="M72.561,83.376,0,41.675,72.561,0Z" transform="translate(727.068 125.411)" fill="#8a8a8a"/>
        <path id="Path_23917-2" data-name="Path 23917" d="M0,.025v83.5H.051L72.664,41.8v-.077L.026,0Z" transform="translate(581.639 83.582)" fill="#a4a4a4"/>
        <path id="Path_23919-4" data-name="Path 23919" d="M72.664,41.675v.15L.1,83.5,0,83.452V.074L.128,0Z" transform="translate(726.966 334.079)" fill="#646464"/>
        <path id="Path_23920-4" data-name="Path 23920" d="M0,41.752,72.664,83.478V0Z" transform="translate(508.965 250.572)" fill="#e7e7e7"/>
        <path id="Path_23926-4" data-name="Path 23926" d="M0,.028.051,0Z" transform="translate(654.303 626.388)" fill="#888"/>
        <path id="Path_23927-4" data-name="Path 23927" d="M0,.076.15,0Z" transform="translate(799.63 542.862)" fill="#838383"/>
        <path id="Path_23928-4" data-name="Path 23928" d="M0,.079.128,0Z" transform="translate(726.966 584.611)" fill="#838383"/>
        <path id="Path_23929-4" data-name="Path 23929" d="M.15.077,0,0Z" transform="translate(799.63 292.251)" fill="#838383"/>
        <path id="Path_23931-2" data-name="Path 23931" d="M0,.025V83.452l.077.051L72.664,41.8v-.128L.077,0H.051Z" transform="translate(654.302 208.824)" fill="#828282"/>
        <path id="Path_23932-4" data-name="Path 23932" d="M.1.077,0,0Z" transform="translate(726.966 250.499)" fill="#838383"/>
        <path id="Path_23933-4" data-name="Path 23933" d="M72.536,83.353,0,41.678,72.536,0Z" transform="translate(727.094 292.402)" fill="#9d9d9d"/>
        <path id="Path_23934-2" data-name="Path 23934" d="M0,41.7,72.587,83.376V0Z" transform="translate(654.379 250.626)" fill="#959595"/>
        <path id="Path_23935-2" data-name="Path 23935" d="M0,0V83.5H.026L72.663,41.777V41.7L.026,0Z" transform="translate(581.629 167.068)" fill="#f4f4f4"/>
        <path id="Path_23937-4" data-name="Path 23937" d="M72.561,83.376,0,41.678,72.561,0Z" transform="translate(727.068 375.905)" fill="#8a8a8a"/>
        <path id="Path_23938-4" data-name="Path 23938" d="M72.536,83.35,0,41.678,72.536,0Z" transform="translate(727.094 459.434)" fill="#868686"/>
        <path id="Path_23939-2" data-name="Path 23939" d="M0,0V83.5L72.664,41.752v-.026Z" transform="translate(508.975 208.824)" fill="#aeaeae"/>
        <path id="Path_23944-4" data-name="Path 23944" d="M72.664,41.672v.153L.128,83.5,0,83.424V.074L.128,0Z" transform="translate(726.966 501.112)" fill="#eaeaea"/>
        <path id="Path_23946-4" data-name="Path 23946" d="M0,0V83.5L72.664,41.777v-.051Z" transform="translate(508.975 292.327)" fill="#e2e2e2"/>
        <path id="Path_23947-2" data-name="Path 23947" d="M0,41.726v.051L72.612,83.5l.051-.025V0h-.026Z" transform="translate(435.375 208.875)" fill="#979797"/>
        <path id="Path_23950-2" data-name="Path 23950" d="M0,41.726v.051L72.638,83.5h.025V.026L72.612,0Z" transform="translate(363.648 334.078)" fill="#bcbcbc"/>
        <path id="Path_23953-2" data-name="Path 23953" d="M0,41.726v.051L72.612,83.5l.051-.026V.026L72.612,0Z" transform="translate(363.648 501.11)" fill="#959595"/>
        <path id="Path_23954-3" data-name="Path 23954" d="M0,0V83.452L72.664,41.726Z" transform="translate(436.312 501.135)" fill="#bcbcbc"/>
        <path id="Path_23955-4" data-name="Path 23955" d="M0,0V83.5L72.664,41.777v-.026Z" transform="translate(508.975 542.861)" fill="#606060"/>
        <path id="Path_23959-4" data-name="Path 23959" d="M0,41.675,72.587,83.35V0Z" transform="translate(654.379 501.186)" fill="#868686"/>
      </g>
    </g>
    <rect id="Rectangle_1489" data-name="Rectangle 1489" width="1276" height="1349" transform="translate(0 1180)" fill="#fff" opacity="0.47"/>
  </g>
</svg>
