<svg id="Group_2322" data-name="Group 2322" xmlns="http://www.w3.org/2000/svg" xmlns:xlink="http://www.w3.org/1999/xlink" width="58.872" height="67.224" viewBox="0 0 58.872 67.224">
  <defs>
    <clipPath id="clip-path">
      <rect id="Rectangle_1147" data-name="Rectangle 1147" width="58.872" height="67.224" fill="none"/>
    </clipPath>
  </defs>
  <g id="Group_2321" data-name="Group 2321" transform="translate(0 0)" clip-path="url(#clip-path)">
    <path id="Ellipse_8" data-name="Ellipse 8" d="M4.031-1A5.031,5.031,0,1,1-1,4.031,5.036,5.036,0,0,1,4.031-1Zm0,8.061A3.031,3.031,0,1,0,1,4.031,3.034,3.034,0,0,0,4.031,7.061Z" transform="translate(25.362 0.927)" fill="#92be28"/>
    <path id="Ellipse_9" data-name="Ellipse 9" d="M4.031-1A5.031,5.031,0,1,1-1,4.031,5.036,5.036,0,0,1,4.031-1Zm0,8.061A3.031,3.031,0,1,0,1,4.031,3.034,3.034,0,0,0,4.031,7.061Z" transform="translate(25.362 58.435)" fill="#92be28"/>
    <path id="Line_1" data-name="Line 1" d="M1,50.048H-1V0H1Z" transform="translate(29.392 8.748)" fill="#92be28"/>
    <path id="Path_19220" data-name="Path 19220" d="M5.03,19.279A5.031,5.031,0,1,1,0,24.31,5.036,5.036,0,0,1,5.03,19.279Zm0,8.061a3.011,3.011,0,0,0,2.6-1.462,3.031,3.031,0,1,0-2.6,1.462Z" transform="translate(-0.272 -5.518)" fill="#92be28"/>
    <path id="Path_19221" data-name="Path 19221" d="M72.711,60.271a5.031,5.031,0,1,1-5.03,5.031A5.036,5.036,0,0,1,72.711,60.271Zm0,8.061a3.031,3.031,0,1,0-3.03-3.031A3.034,3.034,0,0,0,72.711,68.332Z" transform="translate(-18.686 -16.671)" fill="#92be28"/>
    <path id="Line_2" data-name="Line 2" d="M42.065,26.025-.509.861.509-.861,43.082,24.3Z" transform="translate(8.182 20.863)" fill="#92be28"/>
    <path id="Path_19222" data-name="Path 19222" d="M72.711,19.279a5.034,5.034,0,1,1-5.03,5.031A5.036,5.036,0,0,1,72.711,19.279Zm0,8.061a3.024,3.024,0,1,0-2.593-1.458A3.034,3.034,0,0,0,72.711,27.34Z" transform="translate(-18.686 -5.518)" fill="#92be28"/>
    <path id="Path_19223" data-name="Path 19223" d="M5.03,60.271A5.031,5.031,0,1,1,0,65.3,5.036,5.036,0,0,1,5.03,60.271Zm0,8.061A3.031,3.031,0,1,0,2,65.3,3.034,3.034,0,0,0,5.03,68.332Z" transform="translate(-0.272 -16.671)" fill="#92be28"/>
    <path id="Line_3" data-name="Line 3" d="M.509,26.025-.509,24.3,42.065-.861,43.082.861Z" transform="translate(8.029 20.863)" fill="#92be28"/>
    <path id="Path_19224" data-name="Path 19224" d="M33.15,59.423a20.318,20.318,0,1,1,4.729-.554A20.314,20.314,0,0,1,33.15,59.423Zm0-38.68a18.3,18.3,0,0,0-15.661,8.789A18.374,18.374,0,1,0,33.15,20.743Z" transform="translate(-3.757 -5.372)" fill="#92be28"/>
    <path id="Ellipse_10" data-name="Ellipse 10" d="M14.249-1A15.249,15.249,0,0,1,25.032,25.032,15.249,15.249,0,1,1,3.466,3.466,15.149,15.149,0,0,1,14.249-1Zm0,28.5A13.249,13.249,0,1,0,1,14.249,13.264,13.264,0,0,0,14.249,27.5Z" transform="translate(15.143 19.463)" fill="#92be28"/>
    <path id="Path_19225" data-name="Path 19225" d="M46.705,59.045,46.242,57.1a18.345,18.345,0,0,0-.212-35.731l.44-1.951A20.352,20.352,0,0,1,59.628,49.369,20.417,20.417,0,0,1,46.705,59.045Z" transform="translate(-12.584 -5.549)" fill="#92be28"/>
    <path id="Path_19226" data-name="Path 19226" d="M72.711,60.271a5.031,5.031,0,1,1-5.03,5.031A5.036,5.036,0,0,1,72.711,60.271Zm0,8.061a3.031,3.031,0,1,0-3.03-3.031A3.034,3.034,0,0,0,72.711,68.332Z" transform="translate(-18.686 -16.671)" fill="#92be28"/>
    <path id="Path_19227" data-name="Path 19227" d="M72.712,29.34a5,5,0,0,1-4.306-2.425,5.032,5.032,0,1,1,4.306,2.425Zm0-8.06a3.03,3.03,0,1,0,3.031,3.03A3.034,3.034,0,0,0,72.712,21.28Z" transform="translate(-18.686 -5.518)" fill="#92be28"/>
    <path id="Path_19228" data-name="Path 19228" d="M5.03,60.271A5.031,5.031,0,1,1,0,65.3,5.036,5.036,0,0,1,5.03,60.271Zm0,8.061A3.031,3.031,0,1,0,2,65.3,3.034,3.034,0,0,0,5.03,68.332Z" transform="translate(-0.272 -16.671)" fill="#92be28"/>
    <path id="Path_19229" data-name="Path 19229" d="M5.03,19.279A5.031,5.031,0,1,1,0,24.31,5.036,5.036,0,0,1,5.03,19.279Zm0,8.061a3.011,3.011,0,0,0,2.6-1.462,3.031,3.031,0,1,0-2.6,1.462Z" transform="translate(-0.272 -5.518)" fill="#92be28"/>
    <path id="Path_19230" data-name="Path 19230" d="M28.3,59.028A20.381,20.381,0,0,1,15.5,49.381,20.352,20.352,0,0,1,28.533,19.457l.453,1.948a18.344,18.344,0,0,0-.209,35.68Z" transform="translate(-3.757 -5.559)" fill="#92be28"/>
    <path id="Path_19231" data-name="Path 19231" d="M37.478,34.653a8.759,8.759,0,1,1-8.758,8.759A8.769,8.769,0,0,1,37.478,34.653Zm0,15.518a6.759,6.759,0,1,0-6.758-6.759A6.767,6.767,0,0,0,37.478,50.171Z" transform="translate(-8.086 -9.701)" fill="#92be28"/>
    <path id="Ellipse_11" data-name="Ellipse 11" d="M14.249-1A15.249,15.249,0,0,1,25.032,25.032,15.249,15.249,0,1,1,3.466,3.466,15.149,15.149,0,0,1,14.249-1Zm0,28.5A13.249,13.249,0,1,0,1,14.249,13.264,13.264,0,0,0,14.249,27.5Z" transform="translate(15.143 19.463)" fill="#92be28"/>
  </g>
</svg>
