<svg xmlns="http://www.w3.org/2000/svg" xmlns:xlink="http://www.w3.org/1999/xlink" width="79.356" height="90.393" viewBox="0 0 79.356 90.393">
  <defs>
    <clipPath id="clip-path">
      <rect id="Rectangle_1684" data-name="Rectangle 1684" width="49" height="43.159" fill="none"/>
    </clipPath>
  </defs>
  <g id="Group_3635" data-name="Group 3635" transform="translate(-207.822 -731.106)">
    <path id="Path_26179" data-name="Path 26179" d="M79.356,66.024a3.538,3.538,0,0,1-1.76,3.069L41.586,90.03a3.536,3.536,0,0,1-3.54.013L1.905,69.329A3.537,3.537,0,0,1,.127,66.271L0,24.606a3.536,3.536,0,0,1,1.756-3.062L37.774.6a3.538,3.538,0,0,1,3.537-.01L77.452,21.3a3.541,3.541,0,0,1,1.777,3.062Z" transform="translate(207.822 730.988)" fill="#94cc00" opacity="0.3"/>
    <g id="Group_3474" data-name="Group 3474" transform="translate(223 754.695)">
      <g id="Group_3473" data-name="Group 3473" transform="translate(0 0)" clip-path="url(#clip-path)">
        <path id="Path_25787" data-name="Path 25787" d="M46.625,74.93H3.273A3.277,3.277,0,0,1,0,71.657V68.712H49.9v2.945A3.277,3.277,0,0,1,46.625,74.93ZM2,70.712v.945A1.275,1.275,0,0,0,3.273,72.93H46.625A1.275,1.275,0,0,0,47.9,71.657v-.945Z" transform="translate(-0.449 -31.322)" fill="#011e41"/>
        <path id="Path_25788" data-name="Path 25788" d="M49.2,49.375H3.881V22.925a1.7,1.7,0,0,1,1.7-1.7h5.223v2H5.881V47.375H47.2V23.223H42.675v-2H47.5a1.7,1.7,0,0,1,1.7,1.7Z" transform="translate(-2.193 -9.985)" fill="#011e41"/>
        <path id="Path_25789" data-name="Path 25789" d="M48.152,38.2h-2V2.072A.072.072,0,0,0,46.081,2H19.064a.072.072,0,0,0-.072.072V38.2h-2V2.072A2.075,2.075,0,0,1,19.064,0H46.081a2.074,2.074,0,0,1,2.072,2.072Z" transform="translate(-8.084 -0.449)" fill="#011e41"/>
        <path id="Path_25790" data-name="Path 25790" d="M28.767,19.574a1.464,1.464,0,0,1-1.091-.421l-3.306-3.306a3.613,3.613,0,0,1,0-5.1A3.564,3.564,0,0,1,26.983,9.69a3.875,3.875,0,0,1,1.785.457,4.142,4.142,0,0,1,1.906-.457,3.51,3.51,0,0,1,2.49,1.052,3.58,3.58,0,0,1,1,1.929,2.343,2.343,0,0,1-.027,1.335,6.675,6.675,0,0,1-2.059,2.886A29.886,29.886,0,0,0,29.9,19.1l-.037.04A1.446,1.446,0,0,1,28.767,19.574ZM26.983,11.69a1.59,1.59,0,0,0-1.2.467,1.611,1.611,0,0,0,0,2.276L28.746,17.4c.4-.433,1.1-1.173,1.987-1.979,1.253-1.145,1.518-1.9,1.52-2.146l-.025-.049-.024-.161a1.6,1.6,0,0,0-.455-.9,1.5,1.5,0,0,0-1.076-.467,2.113,2.113,0,0,0-1.3.433l-.6.454-.6-.452A2.051,2.051,0,0,0,26.983,11.69Z" transform="translate(-10.923 -4.803)" fill="#95c93d"/>
        <path id="Line_26" data-name="Line 26" d="M20.926,1H0A1,1,0,0,1-1,0,1,1,0,0,1,0-1H20.926a1,1,0,0,1,1,1A1,1,0,0,1,20.926,1Z" transform="translate(14.287 18.448)" fill="#95c93d"/>
        <path id="Line_27" data-name="Line 27" d="M20.926,1H0A1,1,0,0,1-1,0,1,1,0,0,1,0-1H20.926a1,1,0,0,1,1,1A1,1,0,0,1,20.926,1Z" transform="translate(14.287 21.201)" fill="#95c93d"/>
        <path id="Line_28" data-name="Line 28" d="M15.97,1H0A1,1,0,0,1-1,0,1,1,0,0,1,0-1H15.97a1,1,0,0,1,1,1A1,1,0,0,1,15.97,1Z" transform="translate(14.287 23.955)" fill="#95c93d"/>
      </g>
    </g>
  </g>
</svg>
