<svg id="Group_2920" data-name="Group 2920" xmlns="http://www.w3.org/2000/svg" xmlns:xlink="http://www.w3.org/1999/xlink" width="73.059" height="64.082" viewBox="0 0 73.059 64.082">
  <defs>
    <clipPath id="clip-path">
      <rect id="Rectangle_1489" data-name="Rectangle 1489" width="73.059" height="64.082" fill="#f6ad32"/>
    </clipPath>
  </defs>
  <g id="Group_2911" data-name="Group 2911" transform="translate(0 0)" clip-path="url(#clip-path)">
    <path id="Path_24582" data-name="Path 24582" d="M14.673,25.464a1.363,1.363,0,0,1-1.362-1.333c0-.143,0-.286,0-.43,0-.564.023-1.134.069-1.7A19.1,19.1,0,0,1,29.926,4.642a19.565,19.565,0,0,1,5.837.139,1.36,1.36,0,0,1,1.123,1.338,1.315,1.315,0,0,1-.02.24,1.354,1.354,0,0,1-1.578,1.1,16.8,16.8,0,0,0-5.023-.117A16.369,16.369,0,0,0,16.092,22.225c-.041.49-.06.987-.06,1.476,0,.124,0,.249,0,.373V24.1A1.361,1.361,0,0,1,14.7,25.464Z" transform="translate(4.813 1.623)" fill="#f6ad32"/>
    <path id="Path_24583" data-name="Path 24583" d="M21.814,41.165A1.361,1.361,0,0,1,20.453,39.8V36.273a10.525,10.525,0,0,0-1.295-5.016,1.362,1.362,0,0,1,2.392-1.3,13.269,13.269,0,0,1,1.626,6.319V39.8a1.361,1.361,0,0,1-1.362,1.362" transform="translate(6.868 10.575)" fill="#f6ad32"/>
    <path id="Path_24584" data-name="Path 24584" d="M33.973,45.378a1.361,1.361,0,0,1-1.362-1.362V40.943a14.551,14.551,0,0,1,4.455-10.4,16.108,16.108,0,0,0,4.775-11.589,1.362,1.362,0,0,1,2.723,0,18.813,18.813,0,0,1-5.587,13.529,11.845,11.845,0,0,0-3.644,8.46v3.073a1.361,1.361,0,0,1-1.362,1.362" transform="translate(11.793 6.363)" fill="#f6ad32"/>
    <path id="Path_24585" data-name="Path 24585" d="M32.3,51.064H27.645a1.359,1.359,0,0,1-1.183-.69L25.2,48.143,20.732,45.5a1.364,1.364,0,0,1-.667-1.171V37.362A1.36,1.36,0,0,1,21.427,36H38.509a1.36,1.36,0,0,1,1.362,1.362v6.965A1.366,1.366,0,0,1,39.2,45.5l-4.458,2.646-1.265,2.23a1.361,1.361,0,0,1-1.185.69M28.439,48.34H31.5l1.053-1.855a1.338,1.338,0,0,1,.49-.5l4.1-2.436V38.723H22.788V43.55L26.9,45.986a1.338,1.338,0,0,1,.49.5Z" transform="translate(7.256 13.019)" fill="#f6ad32"/>
    <path id="Path_24586" data-name="Path 24586" d="M40.045,22.25H39.9a1.362,1.362,0,0,1-1.362-1.362v-5.8h-4.57a1.361,1.361,0,0,1-1.362-1.362V1.362A1.361,1.361,0,0,1,33.973,0H58.6a1.36,1.36,0,0,1,1.362,1.362V13.722A1.36,1.36,0,0,1,58.6,15.084H45.74l-4.576,6.582a1.36,1.36,0,0,1-1.118.584m-4.711-9.889H39.9a1.361,1.361,0,0,1,1.362,1.362v3.027l2.646-3.8a1.358,1.358,0,0,1,1.118-.584h12.21V2.723h-21.9Z" transform="translate(11.793 0.001)" fill="#f6ad32"/>
    <path id="Path_24587" data-name="Path 24587" d="M48.446,7.008H38.621a1.362,1.362,0,0,1,0-2.723h9.825a1.362,1.362,0,0,1,0,2.723" transform="translate(13.474 1.55)" fill="#f6ad32"/>
    <path id="Path_24588" data-name="Path 24588" d="M45.452,41.9a6,6,0,1,1,6-6,6,6,0,0,1-6,6m0-9.271A3.274,3.274,0,1,0,48.725,35.9a3.276,3.276,0,0,0-3.273-3.273" transform="translate(14.268 10.816)" fill="#f6ad32"/>
    <path id="Path_24589" data-name="Path 24589" d="M10.918,9.435a4.452,4.452,0,1,1,4.452-4.451,4.457,4.457,0,0,1-4.452,4.451m0-6.18a1.729,1.729,0,1,0,1.729,1.729,1.731,1.731,0,0,0-1.729-1.729" transform="translate(2.338 0.193)" fill="#f6ad32"/>
    <path id="Path_24590" data-name="Path 24590" d="M8.362,16.488H2.882a1.362,1.362,0,1,1,0-2.723H8.362a1.362,1.362,0,1,1,0,2.723" transform="translate(0.55 4.978)" fill="#f6ad32"/>
    <path id="Path_24591" data-name="Path 24591" d="M23.274,2.723h-4.7A1.362,1.362,0,0,1,18.57,0h4.7a1.362,1.362,0,0,1,0,2.723" transform="translate(6.223 0.001)" fill="#f6ad32"/>
    <path id="Path_24592" data-name="Path 24592" d="M39.309,20.03H37.336a7.287,7.287,0,0,0-1.145-2.774l1.393-1.392a1.361,1.361,0,0,0-1.925-1.925l-1.393,1.392a7.278,7.278,0,0,0-2.774-1.145V12.213a1.362,1.362,0,1,0-2.723,0v1.973A7.269,7.269,0,0,0,26,15.331L24.6,13.939a1.361,1.361,0,1,0-1.925,1.925l1.393,1.392a7.287,7.287,0,0,0-1.145,2.774H20.952a1.362,1.362,0,0,0,0,2.723h1.973a7.284,7.284,0,0,0,1.145,2.775l-1.393,1.392A1.361,1.361,0,1,0,24.6,28.845L26,27.453A7.312,7.312,0,0,0,28.769,28.6v1.973a1.362,1.362,0,0,0,2.723,0V28.6a7.3,7.3,0,0,0,2.774-1.145l1.393,1.392a1.361,1.361,0,1,0,1.925-1.925l-1.393-1.392a7.284,7.284,0,0,0,1.145-2.775h1.973a1.362,1.362,0,1,0,0-2.723M30.13,26.013a4.621,4.621,0,1,1,4.621-4.621,4.626,4.626,0,0,1-4.621,4.621" transform="translate(7.084 3.925)" fill="#f6ad32"/>
    <path id="Path_24593" data-name="Path 24593" d="M22.992,21.52H1.362A1.361,1.361,0,0,0,0,22.882v15.45a1.361,1.361,0,0,0,1.362,1.362H22.992a1.361,1.361,0,0,0,1.362-1.362V22.882a1.361,1.361,0,0,0-1.362-1.362M3.254,36.97l5.558-4.5L13,36.97Zm13.461,0-1.846-1.987,1.859-1.611,4.57,3.6Zm4.915-3.2-4.1-3.23a1.362,1.362,0,0,0-1.735.042l-2.778,2.41L9.941,29.68a1.364,1.364,0,0,0-1.856-.132L2.723,33.894V24.243H21.631Z" transform="translate(0 7.783)" fill="#f6ad32"/>
    <path id="Path_24594" data-name="Path 24594" d="M55.842,19.992,47.75,15.357a1.362,1.362,0,0,0-2.038,1.182v9.271a1.362,1.362,0,0,0,2.038,1.182l8.092-4.636a1.362,1.362,0,0,0,0-2.364M48.435,23.46V18.889l3.992,2.285Z" transform="translate(16.53 5.49)" fill="#f6ad32"/>
  </g>
</svg>
