<svg xmlns="http://www.w3.org/2000/svg" xmlns:xlink="http://www.w3.org/1999/xlink" width="79.356" height="90.393" viewBox="0 0 79.356 90.393">
  <defs>
    <clipPath id="clip-path">
      <rect id="Rectangle_1682" data-name="Rectangle 1682" width="49.193" height="51.017" fill="none"/>
    </clipPath>
  </defs>
  <g id="Group_3638" data-name="Group 3638" transform="translate(-991.524 -1180.607)">
    <path id="Path_26184" data-name="Path 26184" d="M79.356,66.024a3.538,3.538,0,0,1-1.76,3.069L41.586,90.03a3.536,3.536,0,0,1-3.54.013L1.905,69.329A3.537,3.537,0,0,1,.127,66.271L0,24.606a3.536,3.536,0,0,1,1.756-3.062L37.774.6a3.538,3.538,0,0,1,3.537-.01L77.452,21.3a3.541,3.541,0,0,1,1.777,3.062Z" transform="translate(991.524 1180.489)" fill="#94cc00" opacity="0.3"/>
    <g id="Group_3470" data-name="Group 3470" transform="translate(1006.606 1198.333)">
      <g id="Group_3469" data-name="Group 3469" transform="translate(0 0)" clip-path="url(#clip-path)">
        <path id="Path_25773" data-name="Path 25773" d="M72.728,38.209H68.851a1.108,1.108,0,0,1-1.034-1.025.943.943,0,0,1,1.034-1.025h3.877c.775,0,1.033.256,1.033,1.025a.942.942,0,0,1-1.033,1.025" transform="translate(-24.569 -13.1)" fill="#95c93d" fill-rule="evenodd"/>
        <path id="Path_25774" data-name="Path 25774" d="M5.124,38.209h-4.1A1.1,1.1,0,0,1,0,37.184a.938.938,0,0,1,1.025-1.025h4.1a.938.938,0,0,1,1.025,1.025,1.1,1.1,0,0,1-1.025,1.025" transform="translate(0 -13.1)" fill="#95c93d" fill-rule="evenodd"/>
        <path id="Path_25775" data-name="Path 25775" d="M59.832,14.817a.883.883,0,0,1-.507-.254c-.254-.253-.507-.507-.507-.76s.253-.507.507-.761l2.535-2.789a1.618,1.618,0,0,1,1.521,0,.931.931,0,0,1,.254.761.931.931,0,0,1-.254.761l-2.788,2.788c-.254,0-.507.254-.761.254" transform="translate(-21.309 -3.646)" fill="#95c93d" fill-rule="evenodd"/>
        <path id="Path_25776" data-name="Path 25776" d="M12.114,62.582a.946.946,0,0,1-.768-.254c-.256,0-.256-.507-.256-.76s0-.507.256-.507l2.818-2.789a.73.73,0,0,1,1.281,0,1.256,1.256,0,0,1,0,1.521l-2.562,2.535a.946.946,0,0,1-.768.254" transform="translate(-4.017 -20.973)" fill="#95c93d" fill-rule="evenodd"/>
        <path id="Path_25777" data-name="Path 25777" d="M62.621,62.582a.931.931,0,0,1-.761-.254l-2.535-2.535c-.253-.253-.507-.507-.507-.76s.254-.508.507-.761a.718.718,0,0,1,1.268,0l2.789,2.789c.253,0,.253.253.253.507s0,.76-.253.76a.931.931,0,0,1-.761.254" transform="translate(-21.309 -20.973)" fill="#95c93d" fill-rule="evenodd"/>
        <path id="Path_25778" data-name="Path 25778" d="M14.675,14.817a.9.9,0,0,1-.513-.254l-2.818-2.788a.925.925,0,0,1-.256-.761.925.925,0,0,1,.256-.761,1.63,1.63,0,0,1,1.538,0l2.562,2.789a.925.925,0,0,1,.256.761.924.924,0,0,1-.256.76,2.594,2.594,0,0,1-.768.254" transform="translate(-4.017 -3.646)" fill="#95c93d" fill-rule="evenodd"/>
        <path id="Path_25779" data-name="Path 25779" d="M37.936,5.841a.914.914,0,0,1-.974-1.016V1.016A.913.913,0,0,1,37.936,0a1.071,1.071,0,0,1,.974,1.016v3.81a1.071,1.071,0,0,1-.974,1.016" transform="translate(-13.391)" fill="#95c93d" fill-rule="evenodd"/>
        <path id="Path_25780" data-name="Path 25780" d="M26.246,48.326,24.273,48a5.225,5.225,0,0,0-2.07-4.951,15.658,15.658,0,0,1-7.51-13.378A15.667,15.667,0,1,1,39.166,42.629a7.959,7.959,0,0,0-2.7,5.532h-2a9.9,9.9,0,0,1,3.471-7.109l.033-.027L38,41a13.667,13.667,0,1,0-14.733.352l.04.026a7.413,7.413,0,0,1,1.753,1.8A6.853,6.853,0,0,1,26.246,48.326Z" transform="translate(-5.686 -5.434)" fill="#011e41"/>
        <path id="Path_25781" data-name="Path 25781" d="M38.808,73.1H32.783a3.093,3.093,0,0,1-3.089-3.09V67a1,1,0,0,1,1-1H40.9a1,1,0,0,1,1,1v3.012A3.093,3.093,0,0,1,38.808,73.1ZM31.694,68v2.012a1.091,1.091,0,0,0,1.089,1.09h6.024a1.091,1.091,0,0,0,1.09-1.09V68Z" transform="translate(-11.12 -24.273)" fill="#011e41"/>
        <path id="Rectangle_1681" data-name="Rectangle 1681" d="M0-1H5.1a1,1,0,0,1,1,1V2.551a1,1,0,0,1-1,1H0a1,1,0,0,1-1-1V0A1,1,0,0,1,0-1ZM4.1,1H1v.551H4.1Z" transform="translate(22.125 47.829)" fill="#011e41"/>
        <path id="Path_25782" data-name="Path 25782" d="M39.753,23.44a1,1,0,0,1,.97,1.243l-1.85,7.4,3.42-.311a1,1,0,0,1,.828,1.672L33.475,43.967a1,1,0,0,1-1.669-1.038l2.407-6.19-2.594.519A1,1,0,0,1,30.605,35.7l8.329-11.837A1,1,0,0,1,39.753,23.44ZM37.56,34.208a1,1,0,0,1-.97-1.243l.89-3.558-3.8,5.4,1.929-.386a1,1,0,0,1,1.128,1.343L35.6,38.688,39.9,34l-2.248.2Q37.606,34.208,37.56,34.208Z" transform="translate(-11.384 -8.854)" fill="#95c93d"/>
      </g>
    </g>
  </g>
</svg>
