<svg xmlns="http://www.w3.org/2000/svg" xmlns:xlink="http://www.w3.org/1999/xlink" width="51.635" height="50.208" viewBox="0 0 51.635 50.208">
  <defs>
    <clipPath id="clip-path">
      <rect id="Rectangle_1484" data-name="Rectangle 1484" width="51.635" height="50.208" transform="translate(0 0)" fill="none"/>
    </clipPath>
  </defs>
  <g id="Group_2901" data-name="Group 2901" transform="translate(0 0)" clip-path="url(#clip-path)">
    <path id="Path_24551" data-name="Path 24551" d="M19.459,46.224a1,1,0,0,1-.985-.835c-.006-.029-.186-.937-.931-1.055a40.382,40.382,0,0,0-4.746-.145,1,1,0,1,1-.045-2,41.111,41.111,0,0,1,5.1.168,3.237,3.237,0,0,1,2.591,2.7,1,1,0,0,1-.821,1.151.946.946,0,0,1-.166.014" fill="#001733"/>
    <path id="Path_24552" data-name="Path 24552" d="M50.635,9.863a1,1,0,0,1-1-1V1.669a1,1,0,0,1,2,0V8.863a1,1,0,0,1-1,1" fill="#001733"/>
    <path id="Path_24553" data-name="Path 24553" d="M47.312,3.569a7.008,7.008,0,0,1-1.774-.227,8.644,8.644,0,0,0-4.3-.014,1,1,0,0,1-.606-1.905,10.506,10.506,0,0,1,5.408-.016A5.614,5.614,0,0,0,50.1.827a1,1,0,0,1,1.082,1.682,7.669,7.669,0,0,1-3.866,1.06" fill="#001733"/>
    <path id="Path_24554" data-name="Path 24554" d="M47.312,10.763a7,7,0,0,1-1.773-.227,8.458,8.458,0,0,0-4.294-.015,1,1,0,1,1-.611-1.9A10.485,10.485,0,0,1,46.042,8.6,5.609,5.609,0,0,0,50.1,8.02,1,1,0,0,1,51.178,9.7a7.676,7.676,0,0,1-3.866,1.06" fill="#001733"/>
    <path id="Path_24555" data-name="Path 24555" d="M40.555,32.1a1,1,0,0,1-1-1V1a1,1,0,0,1,2,0V31.1a1,1,0,0,1-1,1" fill="#001733"/>
    <path id="Path_24556" data-name="Path 24556" d="M46.452,50.208a1,1,0,0,1-.991-.877l-.811-6.574a1,1,0,0,1-.007-.11,2.01,2.01,0,0,0-.169-.785l-4.552-9.111a.964.964,0,0,0-1.248-.209.98.98,0,0,1-.267.106l-8.875,2.094-7.448,2.38c-.5.468-1.962,1.807-6.472,5.9a4.013,4.013,0,0,1-2.838,1.17H8.868a2.014,2.014,0,0,0-1.723.956,1.12,1.12,0,0,1-.128.163L2.6,49.9a1,1,0,0,1-1.443-1.386l4.347-4.522a4.006,4.006,0,0,1,3.36-1.8h3.906a2.044,2.044,0,0,0,1.452-.61c2.531-2.3,6.309-5.733,6.618-6.032a.98.98,0,0,1,.42-.264L29,32.816l8.822-2.084a2.935,2.935,0,0,1,3.792.948,1.083,1.083,0,0,1,.069.119l4.6,9.218a4.067,4.067,0,0,1,.356,1.546l.8,6.522a1,1,0,0,1-.87,1.116,1.031,1.031,0,0,1-.124.007" fill="#001733"/>
    <path id="Path_24557" data-name="Path 24557" d="M32.162,48.664a1,1,0,0,1-.425-1.905l13.23-6.2a1,1,0,1,1,.849,1.81l-13.23,6.2a.987.987,0,0,1-.424.1" fill="#001733"/>
    <path id="Path_24558" data-name="Path 24558" d="M37.112,46.224a.988.988,0,0,1-.425-.095L30.413,43.18l-4,2.858a1,1,0,1,1-1.162-1.628l4.48-3.2a1,1,0,0,1,1.007-.091l6.8,3.2a1,1,0,0,1-.426,1.9" fill="#001733"/>
    <path id="Path_24559" data-name="Path 24559" d="M1.042,31.263a2.747,2.747,0,0,0,3.189,2.181c.048-.009.1-.019.142-.03q-.089,1.513-.206,3.546l-1.957,6.8a2.732,2.732,0,0,0,1.869,3.382.98.98,0,0,0,.277.039,1,1,0,0,0,.276-1.961.732.732,0,0,1-.5-.906l1.988-6.9a1.026,1.026,0,0,0,.038-.219c.172-2.982.44-7.537.464-7.8l.9-4.806a1,1,0,0,0-1.738-.84L3.807,26.024a1,1,0,0,0-.219.88l.86,3.719A.733.733,0,1,1,3,30.859l-.993-4.43a.728.728,0,0,1,.086-.507L6.222,20.5a.717.717,0,0,1,.545-.32l1.707.075a4.268,4.268,0,0,0,1.915.838,4.41,4.41,0,0,0,.684.055,4.246,4.246,0,0,0,1.356-.224l1.671.423a.721.721,0,0,1,.348.25l1.687,2.222a1,1,0,0,0,1.48.125l2.881-2.7a.735.735,0,0,1,.5-.089.724.724,0,0,1,.472.3.734.734,0,0,1-.183,1.019.8.8,0,0,0-.081.063l-4.261,3.666a.746.746,0,0,1-.968-.18L14.057,23.5a1,1,0,0,0-1.778.416l-.922,4.807a1.087,1.087,0,0,0,.087.633L14.285,35.5a.74.74,0,0,1,.046.263L13.238,41.38a.93.93,0,0,0-.016.118.746.746,0,0,1-.78.677h0a.733.733,0,0,1-.679-.733l1.064-5.236a1,1,0,0,0-.11-.693l-2.635-4.638a1,1,0,0,0-1.865.4l-.607,6.206a.73.73,0,0,1-.028.155L5.823,43.726a1,1,0,0,0,1.922.554L9.5,38.189a2.653,2.653,0,0,0,.1-.546L9.9,34.6l.893,1.571L9.783,41.12a1.076,1.076,0,0,0-.017.127,2.733,2.733,0,0,0,5.445.463l1.1-5.637a1.174,1.174,0,0,0,.016-.119,2.773,2.773,0,0,0-.195-1.223l-2.747-5.943.439-2.288.56.738a2.792,2.792,0,0,0,3.737.59q.042-.03.081-.063l4.274-3.678a2.712,2.712,0,0,0,1.034-1.561l2.9-1.908q.111-.073.213-.156l-2.162,6.581a2.731,2.731,0,0,0-.129,1.051l.414,5.678a1,1,0,0,0,1,.927l.073,0a1,1,0,0,0,.925-1.07l-.414-5.677a.755.755,0,0,1,.034-.284l2.366-7.2c.012-.027.024-.055.031-.075a.99.99,0,0,0,.045-.52l-.687-3.848a1,1,0,0,0-.968-.824,1.044,1.044,0,0,0-1,.793l-.527,2.493a.727.727,0,0,1-.315.46L23.14,20.373c-.013-.018-.019-.038-.032-.056a2.705,2.705,0,0,0-1.136-.929l1.939-1.274a1,1,0,0,0,.429-.629l1.12-5.293a.74.74,0,0,1,.483-.543l1.8-.606c.028-.01.046-.031.073-.043a4.037,4.037,0,0,0,3.481-.539c.012,0,.022.007.034.007l1.9.017a.723.723,0,0,1,.518.222l3.821,3.927a.734.734,0,0,1,.158.239l1.32,4.754a.732.732,0,0,1-.51.9.757.757,0,0,1-.231.027.729.729,0,0,1-.67-.532L36.482,15.8a.985.985,0,0,0-.248-.434l-2.1-2.163a1,1,0,0,0-1.7.869l1.112,6.371a1.134,1.134,0,0,1-.043.54,1.023,1.023,0,0,0-.043.246l-.366,7.13a.975.975,0,0,0,.038.327L34.137,32.2a1,1,0,0,0,.96.724.98.98,0,0,0,.277-.039,1,1,0,0,0,.685-1.238L35.094,28.3l.351-6.848a3.1,3.1,0,0,0,.066-1.346l-.124-.708.315,1.157a2.726,2.726,0,0,0,2.506,2,2.732,2.732,0,0,0,2.759-3.461l-1.333-4.8A2.747,2.747,0,0,0,39,13.24L35.176,9.313a2.749,2.749,0,0,0-1.935-.828l-.387,0a4.157,4.157,0,1,0-7.133,1.131l-.419.142a2.748,2.748,0,0,0-1.8,2.022l-1.035,4.891-2.553,1.678a2.715,2.715,0,0,0-1.175,1.729c0,.025,0,.049,0,.074l-1.684,1.577-1.016-1.338a2.76,2.76,0,0,0-1.375-.958l-.154-.04A4.3,4.3,0,1,0,7,18.19l-.2-.009A2.707,2.707,0,0,0,4.6,19.33L.473,24.751a2.77,2.77,0,0,0-.424,2.08ZM28.631,4.873a2.209,2.209,0,0,1,.342-.027,2.164,2.164,0,1,1-.342.027M8.793,16.481a2.3,2.3,0,1,1,3.625,2.228,2.332,2.332,0,0,1-1.716.409,2.3,2.3,0,0,1-1.909-2.637" fill="#94cc00"/>
    <path id="Path_24560" data-name="Path 24560" d="M31.5,21.852a1.007,1.007,0,0,0-.948-.122c-.53.206-.53.206-2.679,6.034a1.014,1.014,0,0,0-.059.419l.39,5.337a1,1,0,0,0,1,.927l.074,0a1,1,0,0,0,.925-1.071l-.229-3.125.839,2.913a1,1,0,1,0,1.922-.554l-1.092-3.792a.742.742,0,0,1-.028-.239l.3-5.863a1,1,0,0,0-.413-.862" fill="#94cc00"/>
  </g>
</svg>
