<svg xmlns="http://www.w3.org/2000/svg" xmlns:xlink="http://www.w3.org/1999/xlink" width="279" height="64.298" viewBox="0 0 279 64.298">
  <defs>
    <clipPath id="clip-path">
      <rect id="Rectangle_1550" data-name="Rectangle 1550" width="279" height="64.298" fill="#fff"/>
    </clipPath>
  </defs>
  <g id="Group_3058" data-name="Group 3058" transform="translate(0 0)">
    <g id="Group_3052" data-name="Group 3052" transform="translate(0 0)" clip-path="url(#clip-path)">
      <path id="Path_24668" data-name="Path 24668" d="M66.784,62.894H53.043a35.072,35.072,0,0,1-1.172-5.59C47.933,61.685,42.739,64.3,31.439,64.3,11.143,64.3,0,50.674,0,32.711,0,15.218,11.1,0,35.3,0,54.827,0,65.079,9.88,66.842,20.21H46.808c-.932-2.842-3.587-7.044-11.542-7.044-10.441,0-14.2,8.537-14.2,18.513,0,10.865,4.268,19.182,14.587,19.182,8.744,0,11.866-4.974,11.866-9.734v-.633H35.489V27.067h31.3Z" transform="translate(0 0)" fill="#fff"/>
      <rect id="Rectangle_1549" data-name="Rectangle 1549" width="20.007" height="61.491" transform="translate(85.225 1.404)" fill="#fff"/>
      <path id="Path_24669" data-name="Path 24669" d="M364.3,38.994H331.443V49.258h36.733l-2.3,14.2H311.743V1.966h54.3V16.194h-34.6v8.571H364.3Z" transform="translate(-89.176 -0.562)" fill="#fff"/>
      <path id="Path_24670" data-name="Path 24670" d="M192.79,31.493,171.643,43.787l-.126-.075V19.27l.126-.074Z" transform="translate(-49.063 -5.491)" fill="#7b4f8a"/>
      <path id="Path_24671" data-name="Path 24671" d="M222.465,48.714,201.317,61.009V36.419Z" transform="translate(-57.588 -10.418)" fill="#3f1b58"/>
      <path id="Path_24672" data-name="Path 24672" d="M192.843,1.972V26.566h0l-21.148-12.3Z" transform="translate(-49.114 -0.564)" fill="#2e416f"/>
      <path id="Path_24673" data-name="Path 24673" d="M222.591,19.27V43.713l-.126.074L201.318,31.493v0L222.465,19.2Z" transform="translate(-57.588 -5.491)" fill="#ca0658"/>
      <path id="Path_24674" data-name="Path 24674" d="M192.843,36.42V61.011l-21.15-12.3L192.841,36.42Z" transform="translate(-49.114 -10.418)" fill="#5c2b5d"/>
      <path id="Path_24675" data-name="Path 24675" d="M222.465,14.27,201.317,26.564V1.975Z" transform="translate(-57.588 -0.565)" fill="#8f1b3b"/>
      <path id="Path_24676" data-name="Path 24676" d="M252.388,31.493,231.241,43.787l-.126-.075V19.27l.126-.074Z" transform="translate(-66.112 -5.491)" fill="#f92f49"/>
      <path id="Path_24677" data-name="Path 24677" d="M282.063,48.714,260.915,61.009V36.419Z" transform="translate(-74.636 -10.418)" fill="#e9353e"/>
      <path id="Path_24678" data-name="Path 24678" d="M252.441,1.972V26.566h0l-21.148-12.3Z" transform="translate(-66.162 -0.564)" fill="#ce2d23"/>
      <path id="Path_24679" data-name="Path 24679" d="M282.189,19.27V43.713l-.126.074L260.916,31.493v0L282.063,19.2Z" transform="translate(-74.636 -5.491)" fill="#f67a26"/>
      <path id="Path_24680" data-name="Path 24680" d="M252.441,36.42V61.011l-21.15-12.3L252.439,36.42Z" transform="translate(-66.162 -10.418)" fill="#a60a2a"/>
      <path id="Path_24681" data-name="Path 24681" d="M282.063,14.27,260.915,26.564V1.975Z" transform="translate(-74.636 -0.565)" fill="#ef5731"/>
      <path id="Path_24682" data-name="Path 24682" d="M222.644,53.64V78.234h0l-21.148-12.3Z" transform="translate(-57.639 -15.344)" fill="#50173f"/>
      <path id="Path_24683" data-name="Path 24683" d="M252.265,65.938,231.118,78.232V53.643Z" transform="translate(-66.113 -15.345)" fill="#721f41"/>
    </g>
  </g>
</svg>
