<?xml version="1.0" encoding="UTF-8"?>
<svg xmlns="http://www.w3.org/2000/svg" xmlns:xlink="http://www.w3.org/1999/xlink" viewBox="0 0 325.28 59">
  <defs>
    <style>
      .cls-1 {
        fill: url(#linear-gradient-3);
      }

      .cls-1, .cls-2, .cls-3, .cls-4, .cls-5 {
        mix-blend-mode: multiply;
      }

      .cls-6 {
        fill: url(#linear-gradient-2);
      }

      .cls-7 {
        fill: #fff;
      }

      .cls-2 {
        fill: url(#linear-gradient-4);
      }

      .cls-8 {
        fill: #91c63f;
      }

      .cls-9 {
        isolation: isolate;
      }

      .cls-3 {
        fill: url(#New_Gradient_Swatch_1-2);
      }

      .cls-10 {
        fill: #b2b1b0;
      }

      .cls-4, .cls-11 {
        fill: #0157a1;
      }

      .cls-12 {
        fill: #153c66;
      }

      .cls-13 {
        fill: url(#linear-gradient);
      }

      .cls-5 {
        fill: url(#New_Gradient_Swatch_1);
      }

      .cls-14 {
        fill: #003b71;
      }
    </style>
    <linearGradient id="linear-gradient" x1="321.75" y1="-440.6" x2="317.48" y2="-436.78" gradientTransform="translate(525.87 359.24) rotate(-90)" gradientUnits="userSpaceOnUse">
      <stop offset="0" stop-color="#91c63f" stop-opacity=".4"/>
      <stop offset="1" stop-color="#91c63f"/>
    </linearGradient>
    <linearGradient id="linear-gradient-2" x1="331.62" y1="-446.94" x2="340.08" y2="-450.16" xlink:href="#linear-gradient"/>
    <linearGradient id="New_Gradient_Swatch_1" data-name="New Gradient Swatch 1" x1="328.45" y1="-452.53" x2="329.8" y2="-458" gradientTransform="translate(525.87 359.24) rotate(-90)" gradientUnits="userSpaceOnUse">
      <stop offset="0" stop-color="#0157a1" stop-opacity=".4"/>
      <stop offset="1" stop-color="#0157a1" stop-opacity=".71"/>
    </linearGradient>
    <linearGradient id="New_Gradient_Swatch_1-2" data-name="New Gradient Swatch 1" x1="328.75" y1="-438.92" x2="328.3" y2="-430.98" xlink:href="#New_Gradient_Swatch_1"/>
    <linearGradient id="linear-gradient-3" x1="333.24" y1="-441.85" x2="340.35" y2="-437.13" gradientTransform="translate(525.87 359.24) rotate(-90)" gradientUnits="userSpaceOnUse">
      <stop offset="0" stop-color="#91c63f" stop-opacity=".4"/>
      <stop offset=".7" stop-color="#91c63f"/>
    </linearGradient>
    <linearGradient id="linear-gradient-4" x1="324.69" y1="-446.02" x2="316.98" y2="-451.57" xlink:href="#linear-gradient"/>
  </defs>
  <g class="cls-9">
    <g id="Layer_2" data-name="Layer 2">
      <g id="Layer_1-2" data-name="Layer 1">
        <g>
          <g>
            <g>
              <g>
                <path class="cls-12" d="m0,19.91c0-5.25,3.51-7.81,7.74-7.81,1.06,0,1.96.15,2.64.38l-.49,1.4c-.49-.11-1.13-.23-1.85-.23-3.06,0-5.85,1.96-5.85,6.23v.42h6.68v1.66H2.19v26.23H.04l-.04-28.27Z"/>
                <path class="cls-12" d="m29.93,36.81c-1.32,2.11-4.23,3.85-8.3,3.85-7.25,0-8.79-4.15-8.79-8.64v-11.74h2.15v11.44c-.04,3.51.98,7.13,6.94,7.13,3.96,0,6.76-2,8-4.68v-13.89h2.15v19.96h-2.15v-3.43Z"/>
                <path class="cls-12" d="m37.14,37.64c2.26.79,5.59,1.43,8.68,1.43,3.89,0,6.79-1.17,6.79-4.11,0-6.6-15.21-1.74-15.21-9.81,0-4.3,4.26-5.28,8.6-5.28,4.04,0,6.49.94,8.15,1.85l-.49,1.4c-1.47-.79-3.7-1.66-7.59-1.66s-6.68.87-6.68,3.51c0,6.04,15.21,1.25,15.25,9.85-.04,4.72-4.38,5.85-8.94,5.85-3.25,0-6.68-.68-9.02-1.55l.45-1.47Z"/>
                <path class="cls-12" d="m59.55,14.92c0-.68.45-1.32,1.36-1.32s1.32.68,1.32,1.36c0,.64-.45,1.32-1.32,1.32s-1.36-.68-1.36-1.36Zm.26,5.36h2.19v16.72c0,1.25.26,1.85,1.06,1.85.38,0,.68-.11,1.06-.19l.34,1.59c-.53.26-1.21.42-2.04.42-1.43,0-2.6-.64-2.6-3.55v-16.83Z"/>
                <path class="cls-12" d="m99.84,40.25v-19.96h2.19v3.74c1.28-2.23,4.15-4.15,8.3-4.15,7.25,0,8.83,4.19,8.83,8.64v11.74h-2.19v-11.55c.04-3.51-.98-7.13-6.94-7.13-4,0-6.76,2.15-8,4.98v13.7h-2.19Z"/>
              </g>
              <g>
                <path class="cls-13" d="m81.56,40.71c3.16,3.36,6.25,5.01,8.08,3.96s1.94-4.56.61-8.98c-1.6.38-3.4.65-5.33.8-1.09,1.59-2.23,3.01-3.36,4.21Z"/>
                <path class="cls-6" d="m81.56,20.65c-3.16-3.36-6.25-5.01-8.08-3.96s-1.94,4.56-.61,8.98c1.6-.38,3.4-.65,5.33-.8,1.09-1.59,2.23-3.01,3.36-4.21Z"/>
                <path class="cls-5" d="m72.88,25.66c-4.49,1.06-7.47,2.91-7.47,5.01s2.98,3.96,7.47,5.01c.48-1.58,1.13-3.27,1.97-5.01-.83-1.74-1.49-3.44-1.97-5.01Z"/>
                <path class="cls-3" d="m90.25,35.69c4.49-1.06,7.47-2.91,7.47-5.01s-2.98-3.96-7.47-5.01c-.48,1.58-1.13,3.27-1.97,5.01.83,1.74,1.49,3.44,1.97,5.01Z"/>
                <path class="cls-11" d="m76.41,27.7c.58-1,1.18-1.95,1.79-2.84-1.92.15-3.72.43-5.33.8.48,1.58,1.13,3.27,1.97,5.01.47-.98.99-1.98,1.57-2.97Z"/>
                <path class="cls-11" d="m86.71,33.65c-.58,1-1.18,1.95-1.79,2.84,1.92-.15,3.72-.43,5.33-.8-.48-1.58-1.13-3.27-1.97-5.01-.47.98-.99,1.98-1.57,2.97Z"/>
                <path class="cls-1" d="m81.56,20.65c1.13,1.2,2.27,2.62,3.36,4.21,1.92.15,3.72.43,5.33.8,1.33-4.42,1.22-7.92-.61-8.98s-4.92.6-8.08,3.96Z"/>
                <path class="cls-2" d="m72.88,35.69c-1.33,4.42-1.22,7.92.61,8.98s4.92-.6,8.08-3.96c-1.13-1.2-2.27-2.62-3.36-4.21-1.92-.15-3.72-.43-5.33-.8Z"/>
                <path class="cls-8" d="m81.56,24.73c1.15,0,2.28.05,3.36.13-1.09-1.59-2.23-3.01-3.36-4.21-1.13,1.2-2.27,2.62-3.36,4.21,1.08-.08,2.21-.13,3.36-.13Z"/>
                <path class="cls-8" d="m81.56,36.63c-1.15,0-2.28-.05-3.36-.13,1.09,1.59,2.23,3.01,3.36,4.21,1.13-1.2,2.27-2.62,3.36-4.21-1.08.08-2.21.13-3.36.13Z"/>
                <path class="cls-4" d="m76.41,33.65c-.58-1-1.1-1.99-1.57-2.97-.83,1.74-1.49,3.44-1.97,5.01,1.6.38,3.4.65,5.33.8-.62-.9-1.22-1.85-1.79-2.84Z"/>
                <path class="cls-4" d="m86.71,27.7c.58,1,1.1,1.99,1.57,2.97.83-1.74,1.49-3.44,1.97-5.01-1.6-.38-3.4-.65-5.33-.8.62.9,1.22,1.85,1.79,2.84Z"/>
                <path class="cls-7" d="m78.2,24.86c-.62.9-1.22,1.85-1.79,2.84s-1.1,1.99-1.57,2.97c.47.98.99,1.98,1.57,2.97s1.18,1.95,1.79,2.84c1.08.08,2.21.13,3.36.13s2.28-.05,3.36-.13c.62-.9,1.22-1.85,1.79-2.84s1.1-1.99,1.57-2.97c-.47-.98-.99-1.98-1.57-2.97s-1.18-1.95-1.79-2.84c-1.08-.08-2.21-.13-3.36-.13s-2.28.05-3.36.13Z"/>
              </g>
            </g>
            <path class="cls-12" d="m112.78,14.34c-.56-.15-.93-.31-1.13-.49-.2-.18-.3-.43-.3-.73,0-.33.14-.59.41-.78.27-.2.63-.29,1.08-.29.47,0,.84.1,1.11.31.27.21.4.51.39.9h-.64c0-.44-.29-.67-.86-.67s-.85.18-.85.53c0,.15.05.27.15.35.1.08.4.19.89.32.49.13.84.29,1.05.48.21.19.31.43.31.74,0,.33-.14.6-.41.79-.28.2-.66.29-1.16.29s-.89-.11-1.18-.32c-.29-.21-.43-.51-.43-.9h.64c0,.21.08.37.26.49.17.12.41.18.71.18s.54-.05.7-.15c.16-.1.23-.23.23-.39s-.07-.29-.22-.39c-.14-.1-.4-.19-.76-.27Zm4.37.67l1.22-2.92h.78v3.93h-.66v-2.67l-1.16,2.67h-.37l-1.19-2.76v2.76h-.66v-3.93h.83l1.21,2.92Z"/>
          </g>
          <rect class="cls-10" x="137.2" width=".68" height="59"/>
          <g>
            <path class="cls-14" d="m168.37,31.19c0-3.59.06-7.52.12-9.78h-.07c-.72,3.76-2.1,11.19-3.53,17.75h-2.91c-1.07-5.97-2.5-13.91-3.19-17.8h-.1c.12,2.38.21,6.73.21,10.25v7.55h-2.92v-20.41h4.74c1.27,5.9,2.43,12.31,2.87,15.18h.03c.4-2.58,1.92-9.52,3.18-15.18h4.64v20.41h-3.06v-7.97Z"/>
            <path class="cls-14" d="m184.72,29.84h-6.64v6.57h7.42l-.4,2.75h-10.16v-20.41h10.09v2.79h-6.96v5.53h6.64v2.77Z"/>
            <path class="cls-14" d="m193.19,21.54h-4.42v-2.79h12.02v2.79h-4.42v17.62h-3.17v-17.62Z"/>
            <path class="cls-14" d="m204.12,18.75h3.17v8.26h5.5v-8.26h3.17v20.41h-3.17v-9.38h-5.5v9.38h-3.17v-20.41Z"/>
            <path class="cls-14" d="m232.38,28.79c0,7.29-1.9,10.7-6.51,10.7-4.33,0-6.33-3.34-6.33-10.72s2.34-10.34,6.48-10.34c4.37,0,6.36,3.33,6.36,10.35Zm-9.58-.05c0,5.18.88,8.07,3.16,8.07s3.17-2.73,3.17-8.05-.85-7.61-3.18-7.61-3.15,2.7-3.15,7.59Z"/>
            <path class="cls-14" d="m235.95,18.75h5.05c5.06,0,7.13,3.34,7.13,9.75,0,6.9-1.94,10.66-7.42,10.66h-4.75v-20.41Zm3.2,17.79h1.5c3.16,0,4.21-2.43,4.21-8.01,0-4.94-1.05-7.12-4.18-7.12h-1.53v15.12Z"/>
            <path class="cls-14" d="m264.5,28.79c0,7.29-1.9,10.7-6.51,10.7-4.33,0-6.33-3.34-6.33-10.72s2.34-10.34,6.48-10.34c4.37,0,6.36,3.33,6.36,10.35Zm-9.58-.05c0,5.18.88,8.07,3.16,8.07s3.17-2.73,3.17-8.05-.85-7.61-3.18-7.61-3.15,2.7-3.15,7.59Z"/>
            <path class="cls-14" d="m268.06,18.75h3.17v17.68h7.09l-.34,2.73h-9.92v-20.41Z"/>
            <path class="cls-14" d="m293.15,28.79c0,7.29-1.9,10.7-6.51,10.7-4.33,0-6.33-3.34-6.33-10.72s2.34-10.34,6.48-10.34c4.37,0,6.36,3.33,6.36,10.35Zm-9.58-.05c0,5.18.88,8.07,3.16,8.07s3.17-2.73,3.17-8.05-.85-7.61-3.18-7.61-3.15,2.7-3.15,7.59Z"/>
            <path class="cls-14" d="m309.09,39.16h-2.44c-.08-.61-.14-1.12-.16-1.9-.83,1.55-2.11,2.23-4.06,2.23-4.32,0-5.73-4.06-5.73-10.45,0-7.3,2.39-10.61,6.69-10.61,5.31,0,5.62,4.6,5.68,5.82h-3.14c-.06-.79-.23-3.11-2.63-3.11-2.54,0-3.31,3.23-3.31,7.89s.63,7.78,3.14,7.78c2.22,0,2.82-1.76,2.82-5.2v-1.09h-3.02v-2.73h6.16v11.37Z"/>
            <path class="cls-14" d="m316.78,39.16v-7.41c0-.22-.04-.4-.13-.61l-5.16-12.38h3.54c1.23,3.29,2.82,7.52,3.43,9.62.74-2.32,2.34-6.49,3.47-9.62h3.35l-5.22,12.42c-.06.13-.11.35-.11.63v7.36h-3.17Z"/>
          </g>
        </g>
      </g>
    </g>
  </g>
</svg>