<svg width="80" height="91" viewBox="0 0 80 91" fill="none" xmlns="http://www.w3.org/2000/svg">
<g clip-path="url(#clip0_6514_3)">
<path opacity="0.3" d="M79.356 65.9059C79.3578 66.5269 79.1961 67.1375 78.8872 67.6762C78.5782 68.2149 78.1329 68.6628 77.596 68.9749L41.586 89.9119C41.0491 90.225 40.4392 90.391 39.8178 90.3933C39.1963 90.3956 38.5852 90.234 38.046 89.9249L1.90501 69.2109C1.3663 68.9021 0.918376 68.4569 0.606269 67.9201C0.294161 67.3833 0.128868 66.7738 0.127006 66.1529L6.33063e-06 24.4879C-0.00116573 23.8684 0.160428 23.2595 0.468608 22.7221C0.776788 22.1847 1.22074 21.7377 1.75601 21.4259L37.774 0.481904C38.3109 0.170043 38.9203 0.00494328 39.5412 0.00318797C40.162 0.00143266 40.7724 0.163084 41.311 0.471904L77.452 21.1819C77.9908 21.4915 78.4387 21.9374 78.7506 22.4749C79.0626 23.0124 79.2275 23.6225 79.229 24.2439L79.356 65.9059Z" fill="#94CC00"/>
<mask id="mask0_6514_3" style="mask-type:luminance" maskUnits="userSpaceOnUse" x="18" y="20" width="43" height="48">
<path d="M60.8811 20H18.4751V67.393H60.8811V20Z" fill="white"/>
</mask>
<g mask="url(#mask0_6514_3)">
<path fill-rule="evenodd" clip-rule="evenodd" d="M39.812 61.7198C38.8529 61.7103 37.918 61.4172 37.1251 60.8775C36.3323 60.3377 35.7168 59.5754 35.3563 58.6866C34.9958 57.7977 34.9064 56.8221 35.0993 55.8825C35.2922 54.943 35.7588 54.0815 36.4404 53.4066C37.1219 52.7317 37.988 52.2736 38.9294 52.0899C39.8708 51.9063 40.8455 52.0053 41.7308 52.3745C42.616 52.7437 43.3722 53.3666 43.9042 54.1647C44.4361 54.9629 44.72 55.9006 44.72 56.8598V56.8688C44.7113 58.1625 44.1896 59.4 43.2694 60.3094C42.3492 61.2189 41.1058 61.7262 39.812 61.7198ZM39.812 53.7448C39.1955 53.7509 38.5947 53.9393 38.085 54.2862C37.5754 54.6331 37.1798 55.1231 36.9481 55.6944C36.7164 56.2656 36.6588 56.8927 36.7828 57.4966C36.9067 58.1006 37.2066 58.6543 37.6446 59.0881C38.0826 59.522 38.6392 59.8165 39.2442 59.9347C39.8493 60.0529 40.4758 59.9893 41.0449 59.7522C41.6139 59.515 42.1001 59.1147 42.4421 58.6018C42.7841 58.0889 42.9668 57.4863 42.967 56.8698C42.965 56.4574 42.8819 56.0495 42.7223 55.6693C42.5626 55.2891 42.3297 54.944 42.0367 54.6538C41.7438 54.3636 41.3965 54.134 41.0148 53.978C40.6331 53.8221 40.2244 53.7428 39.812 53.7448Z" fill="#011E41"/>
<path fill-rule="evenodd" clip-rule="evenodd" d="M33.4552 67.3939C33.348 67.3903 33.242 67.3697 33.1412 67.3329C32.9262 67.2504 32.7527 67.0858 32.659 66.8754C32.5652 66.665 32.5588 66.426 32.6412 66.2109C33.0539 65.1591 33.7728 64.2553 34.7049 63.6165C35.637 62.9777 36.7393 62.6333 37.8692 62.6279H41.4942C42.6222 62.6339 43.7225 62.9775 44.6534 63.6145C45.5843 64.2515 46.3031 65.1527 46.7172 66.2019C46.8013 66.4181 46.796 66.6588 46.7026 66.8711C46.6093 67.0834 46.4354 67.2499 46.2192 67.3339C46.0031 67.418 45.7624 67.4128 45.5501 67.3194C45.3378 67.226 45.1713 67.0521 45.0872 66.8359C44.7978 66.1178 44.3005 65.5025 43.6591 65.0689C43.0177 64.6352 42.2614 64.403 41.4872 64.4019H37.8722C37.093 64.4059 36.3328 64.6433 35.6897 65.0833C35.0466 65.5234 34.5501 66.146 34.2642 66.8709C34.1955 67.028 34.0821 67.1613 33.938 67.2542C33.7939 67.347 33.6256 67.3953 33.4542 67.3929" fill="#011E41"/>
<path fill-rule="evenodd" clip-rule="evenodd" d="M25.5752 57.6729C24.6161 57.6634 23.6812 57.3704 22.8883 56.8306C22.0954 56.2909 21.48 55.5286 21.1195 54.6397C20.759 53.7509 20.6696 52.7752 20.8625 51.8357C21.0554 50.8961 21.522 50.0346 22.2036 49.3597C22.8851 48.6849 23.7511 48.2267 24.6926 48.0431C25.634 47.8594 26.6087 47.9584 27.4939 48.3276C28.3792 48.6968 29.1354 49.3197 29.6673 50.1179C30.1993 50.916 30.4831 51.8537 30.4832 52.8129V52.8219C30.4745 54.1156 29.9528 55.3531 29.0326 56.2626C28.1124 57.1721 26.869 57.6793 25.5752 57.6729ZM25.5752 49.6979C24.9587 49.704 24.3578 49.8924 23.8482 50.2393C23.3386 50.5862 22.943 51.0762 22.7113 51.6475C22.4795 52.2188 22.422 52.8459 22.546 53.4498C22.6699 54.0537 22.9698 54.6074 23.4078 55.0413C23.8458 55.4751 24.4024 55.7697 25.0074 55.8878C25.6125 56.006 26.239 55.9425 26.808 55.7053C27.3771 55.4681 27.8632 55.0679 28.2053 54.555C28.5473 54.042 28.73 53.4394 28.7302 52.8229C28.7282 52.4105 28.6451 52.0026 28.4854 51.6224C28.3258 51.2422 28.0929 50.8971 27.7999 50.607C27.5069 50.3168 27.1597 50.0871 26.778 49.9312C26.3962 49.7752 25.9875 49.6959 25.5752 49.6979Z" fill="#011E41"/>
<path fill-rule="evenodd" clip-rule="evenodd" d="M31.8122 63.288C31.6375 63.2884 31.4668 63.2363 31.322 63.1386C31.1773 63.0409 31.0652 62.9021 31.0002 62.74C30.7142 62.0138 30.2169 61.3901 29.5726 60.9496C28.9283 60.509 28.1666 60.272 27.3862 60.269H23.7812C23.0007 60.2711 22.239 60.5078 21.5947 60.9482C20.9504 61.3887 20.4534 62.0126 20.1682 62.739C20.0792 62.9486 19.912 63.1153 19.7022 63.2038C19.4924 63.2923 19.2564 63.2956 19.0442 63.213C18.832 63.1304 18.6603 62.9685 18.5654 62.7615C18.4706 62.5544 18.4601 62.3186 18.5362 62.104C18.9524 61.0531 19.674 60.1511 20.6078 59.5142C21.5416 58.8774 22.6448 58.5349 23.7752 58.531H27.3752C28.505 58.5365 29.6074 58.8797 30.5406 59.5166C31.4738 60.1535 32.1953 61.0549 32.6122 62.105C32.6537 62.2117 32.6737 62.3256 32.671 62.4401C32.6683 62.5546 32.643 62.6674 32.5966 62.7721C32.5501 62.8768 32.4834 62.9712 32.4002 63.05C32.3171 63.1287 32.2192 63.1902 32.1122 63.231H32.1012C32.0045 63.2639 31.9033 63.2815 31.8012 63.283" fill="#011E41"/>
<path fill-rule="evenodd" clip-rule="evenodd" d="M39.5832 35.4141C38.6241 35.4046 37.6893 35.1116 36.8964 34.5718C36.1035 34.0321 35.488 33.2698 35.1276 32.3809C34.7671 31.4921 34.6776 30.5164 34.8706 29.5769C35.0635 28.6373 35.5301 27.7758 36.2116 27.101C36.8932 26.4261 37.7592 25.9679 38.7006 25.7843C39.642 25.6006 40.6167 25.6996 41.502 26.0688C42.3873 26.438 43.1435 27.0609 43.6754 27.8591C44.2073 28.6572 44.4912 29.5949 44.4912 30.5541V30.5631C44.4825 31.8569 43.9608 33.0943 43.0406 34.0038C42.1205 34.9133 40.877 35.4205 39.5832 35.4141ZM39.5832 27.4391C38.9668 27.4452 38.3659 27.6336 37.8563 27.9805C37.3466 28.3274 36.9511 28.8174 36.7193 29.3887C36.4876 29.96 36.4301 30.5871 36.554 31.191C36.678 31.7949 36.9778 32.3486 37.4158 32.7825C37.8538 33.2163 38.4104 33.5109 39.0155 33.629C39.6205 33.7472 40.2471 33.6837 40.8161 33.4465C41.3852 33.2093 41.8713 32.8091 42.2133 32.2962C42.5554 31.7833 42.738 31.1806 42.7382 30.5641C42.7335 29.7318 42.3985 28.9355 41.8069 28.3501C41.2153 27.7647 40.4155 27.4381 39.5832 27.4421" fill="#011E41"/>
<path fill-rule="evenodd" clip-rule="evenodd" d="M45.8202 41.029C45.6456 41.0293 45.4749 40.9773 45.3301 40.8796C45.1853 40.7819 45.0732 40.6431 45.0082 40.481C44.7221 39.7551 44.2249 39.1317 43.5808 38.6914C42.9368 38.2511 42.1754 38.0141 41.3952 38.011H37.7892C37.0088 38.0131 36.247 38.2497 35.6027 38.6902C34.9585 39.1306 34.4615 39.7545 34.1762 40.481C34.0872 40.6906 33.9201 40.8573 33.7103 40.9457C33.5005 41.0342 33.2645 41.0375 33.0522 40.955C32.84 40.8724 32.6683 40.7104 32.5735 40.5034C32.4787 40.2964 32.4682 40.0606 32.5442 39.846C32.9602 38.7952 33.6814 37.8932 34.6148 37.2562C35.5483 36.6191 36.6511 36.2763 37.7812 36.272H41.3812C42.5111 36.2773 43.6135 36.6205 44.5468 37.2574C45.48 37.8943 46.2014 38.7958 46.6182 39.846C46.6599 39.9524 46.6801 40.066 46.6778 40.1802C46.6754 40.2945 46.6506 40.4072 46.6046 40.5118C46.5586 40.6164 46.4924 40.7109 46.4098 40.7899C46.3272 40.8688 46.2298 40.9307 46.1232 40.972H46.1122C46.0155 41.0049 45.9143 41.0224 45.8122 41.024" fill="#011E41"/>
<path fill-rule="evenodd" clip-rule="evenodd" d="M53.7902 58.0541C52.8311 58.0462 51.8957 57.7546 51.102 57.2162C50.3082 56.6777 49.6915 55.9165 49.3295 55.0282C48.9676 54.14 48.8766 53.1645 49.0679 52.2246C49.2593 51.2847 49.7245 50.4225 50.405 49.7465C51.0854 49.0704 51.9507 48.6109 52.8918 48.4257C53.8329 48.2405 54.8078 48.3379 55.6936 48.7057C56.5795 49.0734 57.3367 49.6951 57.87 50.4924C58.4032 51.2897 58.6886 52.2269 58.6902 53.1861V53.1951C58.6839 54.489 58.1643 55.7275 57.2456 56.6387C56.3269 57.5499 55.0841 58.0583 53.7902 58.0541ZM53.7902 50.0801C53.1736 50.0846 52.572 50.2716 52.0614 50.6174C51.5508 50.9631 51.154 51.4523 50.9209 52.0233C50.6879 52.5942 50.629 53.2213 50.7517 53.8257C50.8744 54.43 51.1733 54.9845 51.6106 55.4193C52.0479 55.8541 52.6041 56.1498 53.2091 56.269C53.8141 56.3883 54.4409 56.3258 55.0105 56.0894C55.5801 55.8531 56.067 55.4535 56.4098 54.9409C56.7527 54.4283 56.9362 53.8257 56.9372 53.2091V53.1921C56.9324 52.362 56.5983 51.5678 56.0082 50.9841C55.418 50.4003 54.6203 50.0748 53.7902 50.0791" fill="#011E41"/>
<path fill-rule="evenodd" clip-rule="evenodd" d="M60.0101 63.6771C59.8343 63.6769 59.6626 63.6237 59.5175 63.5243C59.3725 63.4249 59.2608 63.284 59.1971 63.1201C58.9098 62.3942 58.4115 61.771 57.7667 61.3309C57.1218 60.8908 56.3599 60.6541 55.5791 60.6511H51.9631C51.1824 60.6541 50.4205 60.8908 49.7756 61.3309C49.1307 61.771 48.6325 62.3942 48.3451 63.1201C48.2511 63.3197 48.0851 63.4762 47.8803 63.5583C47.6756 63.6404 47.4474 63.642 47.2416 63.5627C47.0357 63.4834 46.8675 63.3291 46.7708 63.1309C46.6741 62.9327 46.656 62.7052 46.7201 62.4941C47.1357 61.4412 47.8574 60.5371 48.792 59.8986C49.7266 59.2601 50.8312 58.9165 51.9631 58.9121H55.5801C56.712 58.9166 57.8165 59.2603 58.7511 59.8988C59.6857 60.5373 60.4075 61.4413 60.8231 62.4941C60.864 62.6006 60.8836 62.7141 60.8806 62.8282C60.8776 62.9422 60.8522 63.0546 60.8057 63.1588C60.7593 63.263 60.6928 63.357 60.61 63.4355C60.5271 63.5139 60.4297 63.5753 60.3231 63.6161C60.2232 63.6572 60.1161 63.678 60.0081 63.6771" fill="#011E41"/>
<path d="M39.679 20.354C43.2632 20.354 46.7005 21.7778 49.2349 24.3122C51.7692 26.8465 53.193 30.2839 53.193 33.868C53.193 37.4521 51.7692 40.8895 49.2349 43.4238C46.7005 45.9582 43.2632 47.382 39.679 47.382C36.0949 47.382 32.6576 45.9582 30.1232 43.4238C27.5888 40.8895 26.165 37.4521 26.165 33.868C26.165 30.2839 27.5888 26.8465 30.1232 24.3122C32.6576 21.7778 36.0949 20.354 39.679 20.354ZM39.679 44.382C41.7585 44.382 43.7913 43.7654 45.5203 42.6101C47.2493 41.4548 48.5969 39.8127 49.3927 37.8915C50.1885 35.9704 50.3967 33.8563 49.991 31.8168C49.5853 29.7773 48.584 27.9039 47.1136 26.4335C45.6432 24.9631 43.7697 23.9617 41.7302 23.556C39.6907 23.1503 37.5767 23.3586 35.6555 24.1543C33.7343 24.9501 32.0923 26.2977 30.937 28.0267C29.7817 29.7558 29.165 31.7885 29.165 33.868C29.1682 36.6555 30.277 39.3279 32.248 41.299C34.2191 43.2701 36.8915 44.3788 39.679 44.382Z" fill="#95C93D"/>
</g>
</g>
<defs>
<clipPath id="clip0_6514_3">
<rect width="79.356" height="90.393" fill="white"/>
</clipPath>
</defs>
</svg>
