<svg xmlns="http://www.w3.org/2000/svg" xmlns:xlink="http://www.w3.org/1999/xlink" width="79.356" height="90.393" viewBox="0 0 79.356 90.393">
  <defs>
    <clipPath id="clip-path">
      <rect id="Rectangle_1680" data-name="Rectangle 1680" width="49.856" height="47.142" fill="none"/>
    </clipPath>
  </defs>
  <g id="Group_3636" data-name="Group 3636" transform="translate(-991.524 -731.106)">
    <path id="Path_26181" data-name="Path 26181" d="M79.356,66.024a3.538,3.538,0,0,1-1.76,3.069L41.586,90.03a3.536,3.536,0,0,1-3.54.013L1.905,69.329A3.537,3.537,0,0,1,.127,66.271L0,24.606a3.536,3.536,0,0,1,1.756-3.062L37.774.6a3.538,3.538,0,0,1,3.537-.01L77.452,21.3a3.541,3.541,0,0,1,1.777,3.062Z" transform="translate(991.524 730.988)" fill="#94cc00" opacity="0.3"/>
    <g id="Group_3468" data-name="Group 3468" transform="translate(1007.072 752.442)">
      <g id="Group_3467" data-name="Group 3467" transform="translate(0 0)" clip-path="url(#clip-path)">
        <path id="Path_25767" data-name="Path 25767" d="M47.082,23.595a1,1,0,0,1-1-1,20.6,20.6,0,0,0-40.77-4.152,1,1,0,0,1-1.959-.4,22.595,22.595,0,0,1,44.73,4.553A1,1,0,0,1,47.082,23.595Z" transform="translate(-0.559 -0.129)" fill="#011e41"/>
        <path id="Path_25768" data-name="Path 25768" d="M53.038,26.946l-3.612-2.7a1,1,0,0,1,1.2-1.6l2.3,1.72L54.776,22.7a1,1,0,1,1,1.336,1.488Z" transform="translate(-6.458 -3.026)" fill="#011e41"/>
        <path id="Path_25769" data-name="Path 25769" d="M25.422,50.929A22.573,22.573,0,0,1,2.828,28.335a1,1,0,1,1,2,0,20.6,20.6,0,0,0,40.508,5.274,1,1,0,0,1,1.934.51A22.571,22.571,0,0,1,25.422,50.929Z" transform="translate(-0.494 -3.658)" fill="#011e41"/>
        <path id="Path_25770" data-name="Path 25770" d="M6.417,31.359a1,1,0,0,1-.6-.2l-2.3-1.72L1.668,31.1A1,1,0,1,1,.332,29.615l3.073-2.759,3.612,2.7a1,1,0,0,1-.6,1.8Z" transform="translate(-0.129 -3.634)" fill="#011e41"/>
        <path id="Path_25771" data-name="Path 25771" d="M27.1,37.782A12.3,12.3,0,0,1,14.76,25.35,12.451,12.451,0,0,1,27.1,12.918,12.61,12.61,0,0,1,39.433,25.35,12.451,12.451,0,0,1,27.1,37.782m0-22.952A10.572,10.572,0,0,0,16.658,25.35a10.439,10.439,0,1,0,20.877,0A10.572,10.572,0,0,0,27.1,14.83" transform="translate(-1.906 -1.668)" fill="#95c93d" fill-rule="evenodd"/>
        <path id="Path_25772" data-name="Path 25772" d="M28.349,33.858A1.023,1.023,0,0,1,27.4,32.9v-.718A4.008,4.008,0,0,1,24.094,28.6a.945.945,0,1,1,1.891,0c0,.956,1.183,1.673,2.364,1.673A1.915,1.915,0,0,0,30.477,28.6a2,2,0,0,0-1.655-1.674L27.4,26.685a3.554,3.554,0,0,1-3.073-3.347c0-1.674,1.182-2.869,3.073-3.347v-.718a.972.972,0,1,1,1.892,0v.718c1.655.478,3.073,1.673,3.073,3.347a1.085,1.085,0,0,1-1.182.956,1.023,1.023,0,0,1-.946-.956c0-.717-.946-1.434-1.892-1.434-1.182,0-2.128.718-2.128,1.434s.709,1.2,1.655,1.434l1.419.24A3.8,3.8,0,0,1,32.6,28.6,4.008,4.008,0,0,1,29.3,32.184V32.9a1.023,1.023,0,0,1-.946.956" transform="translate(-3.111 -2.334)" fill="#95c93d" fill-rule="evenodd"/>
      </g>
    </g>
  </g>
</svg>
